<?xml version="1.0" standalone="no"?>
<!DOCTYPE svg PUBLIC "-//W3C//DTD SVG 1.1//EN" "http://www.w3.org/Graphics/SVG/1.1/DTD/svg11.dtd" >
<svg xmlns="http://www.w3.org/2000/svg" xmlns:xlink="http://www.w3.org/1999/xlink" version="1.1">
<metadata>
Created by FontForge 20170731 at Tue Dec 13 14:00:02 2016
 By Aleksey,,,
Copyright 2012 The Yeseva One Project Authors (lemonad@jovanny.ru), with Reserved Font Name "Yeseva".
</metadata>
<defs>
<font id="YesevaOne-Regular" horiz-adv-x="560" >
  <font-face 
    font-family="Yeseva One"
    font-weight="400"
    font-stretch="normal"
    units-per-em="1000"
    panose-1="0 0 5 0 0 0 0 0 0 0"
    ascent="800"
    descent="-200"
    x-height="500"
    cap-height="700"
    bbox="-409 -310 1070 1079"
    underline-thickness="50"
    underline-position="-150"
    unicode-range="U+000D-2215"
  />
<missing-glyph horiz-adv-x="285" 
 />
    <glyph glyph-name=".notdef" horiz-adv-x="285" 
 />
    <glyph glyph-name=".null" horiz-adv-x="0" 
 />
    <glyph glyph-name="nonmarkingreturn" unicode="&#xd;" horiz-adv-x="280" 
 />
    <glyph glyph-name="space" unicode=" " horiz-adv-x="280" 
 />
    <glyph glyph-name="exclam" unicode="!" horiz-adv-x="310" 
d="M60 600q0 52 27.5 83.5t67.5 31.5t67.5 -31.5t27.5 -83.5l-80 -385h-30zM102.5 13.5q-22.5 23.5 -22.5 56.5t22.5 56.5t52.5 23.5t52.5 -23.5t22.5 -56.5t-22.5 -56.5t-52.5 -23.5t-52.5 23.5z" />
    <glyph glyph-name="quotedbl" unicode="&#x22;" horiz-adv-x="370" 
d="M45 640q0 33 16.5 51.5t43.5 18.5t43.5 -18.5t16.5 -51.5l-40 -195h-40zM205 640q0 33 16.5 51.5t43.5 18.5t43.5 -18.5t16.5 -51.5l-40 -195h-40z" />
    <glyph glyph-name="numbersign" unicode="#" horiz-adv-x="650" 
d="M85 0l47 185h-112v50h125l59 230h-134v50h147l48 185h60l-48 -185h180l48 185h60l-48 -185h113v-50h-126l-59 -230h135v-50h-148l-47 -185h-60l47 185h-180l-47 -185h-60zM205 235h180l59 230h-180z" />
    <glyph glyph-name="dollar" unicode="$" horiz-adv-x="595" 
d="M290 -15q-68 1 -130 33q-24 13 -45 32q-14 -23 -35 -41q-18 -13 -20 -14h-25v190h40q15 -49 42 -88q61 -87 158 -87q12 0 15 1v255l-46 27q-65 38 -104.5 67.5t-67 74t-27.5 105.5q0 49 27.5 88.5t82.5 63t135 23.5v65h30v-68q56 -10 94 -35q20 -12 36 -27q17 26 35 41
q18 13 20 14h25v-190h-40q-14 48 -37 84q-23 37 -56.5 62t-76.5 28v-248q28 -18 60 -36q62 -35 99.5 -63t64 -68t26.5 -94q0 -51 -28 -94t-84.5 -69.5t-137.5 -30.5v-66h-30v65zM290 687q-33 -8 -54 -37t-21 -70q0 -36 19.5 -64.5t55.5 -54.5v226zM378.5 60q21.5 31 21.5 75
q0 33 -21 60.5t-59 52.5v-231q37 12 58.5 43z" />
    <glyph glyph-name="percent" unicode="%" horiz-adv-x="750" 
d="M110.5 382q-37.5 22 -59 61.5t-21.5 91.5t21.5 91.5t59 61.5t84.5 22t84.5 -22t59 -61.5t21.5 -91.5t-21.5 -91.5t-59 -61.5t-84.5 -22t-84.5 22zM90 0l515 700h55l-515 -700h-55zM234 415q16 35 16 120t-16 120t-39 35t-39 -35t-16 -120t16 -120t39 -35t39 35zM470.5 12
q-37.5 22 -59 61.5t-21.5 91.5t21.5 91.5t59 61.5t84.5 22t84.5 -22t59 -61.5t21.5 -91.5t-21.5 -91.5t-59 -61.5t-84.5 -22t-84.5 22zM594 45q16 35 16 120t-16 120t-39 35t-39 -35t-16 -120t16 -120t39 -35t39 35z" />
    <glyph glyph-name="ampersand" unicode="&#x26;" horiz-adv-x="690" 
d="M20 160q0 52 27 87.5t70 61.5q44 24 98 36l-55 80q-23 33 -36.5 65t-13.5 70q0 43 23.5 78t70 56t111.5 21q53 0 102 -33q21 -14 38 -32q17 26 35 41q18 13 20 14h25v-190h-40q-13 45 -37 87q-24 39 -53.5 63.5t-69.5 24.5q-31 0 -53 -24.5t-22 -65.5q0 -33 18 -66
t44 -69l178 -250q9 17 17 37q18 46 18 93l-80 30v15h185v-15l-80 -30q0 -50 -22 -108q-12 -28 -21 -47l113 -160l50 -15v-15h-140q-41 0 -70.5 13t-44.5 37q-17 -20 -37 -33q-48 -32 -108 -32q-260 0 -260 175zM379 40q20 16 31 30l-180 255q-12 -13 -20 -34
q-20 -45 -20 -131q0 -72 31.5 -111t78.5 -39q41 0 79 30z" />
    <glyph glyph-name="quotesingle" unicode="'" horiz-adv-x="210" 
d="M45 640q0 33 16.5 51.5t43.5 18.5t43.5 -18.5t16.5 -51.5l-40 -195h-40z" />
    <glyph glyph-name="parenleft" unicode="(" horiz-adv-x="355" 
d="M128.5 -29.5q-78.5 129.5 -78.5 294.5t77.5 292.5t202.5 212.5l10 -15q-59 -77 -89.5 -205t-30.5 -285t30.5 -285t89.5 -205l-10 -15q-123 81 -201.5 210.5z" />
    <glyph glyph-name="parenright" unicode=")" horiz-adv-x="355" 
d="M15 -225q59 77 89.5 205t30.5 285t-30.5 285t-89.5 205l10 15q125 -85 202.5 -212.5t77.5 -292.5t-78.5 -294.5t-201.5 -210.5z" />
    <glyph glyph-name="asterisk" unicode="*" horiz-adv-x="390" 
d="M163 383q-13 13 -13 32l30 100l-70 -75q-11 -7 -27 -7q-13 0 -23 5.5t-15 16.5q-5 12 -5 21q0 12 6.5 22.5t18.5 16.5l100 25l-100 25q-12 6 -18.5 16.5t-6.5 22.5q0 21 12.5 32t30.5 11q16 0 27 -7l70 -75l-30 100q0 19 13 32t32 13t32 -13t13 -32l-30 -100l70 75
q11 7 27 7q13 0 23 -5.5t15 -16.5q5 -12 5 -21q0 -12 -6.5 -22.5t-18.5 -16.5l-100 -25l100 -25q12 -6 18.5 -16.5t6.5 -22.5q0 -21 -12.5 -32t-30.5 -11q-16 0 -27 7l-70 75l30 -100q0 -19 -13 -32t-32 -13t-32 13z" />
    <glyph glyph-name="plus" unicode="+" horiz-adv-x="515" 
d="M235 95v215h-200v45h200v215h45v-215h200v-45h-200v-215h-45z" />
    <glyph glyph-name="comma" unicode="," horiz-adv-x="245" 
d="M70 -105q21 7 42 23q43 32 53 87l-13 -8q-13 -7 -32 -7q-30 0 -52.5 22.5t-22.5 52.5t22.5 52.5t52.5 22.5q35 0 57.5 -24.5t22.5 -65.5q0 -92 -60 -144q-26 -24 -60 -36z" />
    <glyph glyph-name="hyphen" unicode="-" horiz-adv-x="470" 
d="M35 300v45h400v-45h-400z" />
    <glyph glyph-name="period" unicode="." horiz-adv-x="240" 
d="M67.5 12.5q-22.5 22.5 -22.5 52.5t22.5 52.5t52.5 22.5t52.5 -22.5t22.5 -52.5t-22.5 -52.5t-52.5 -22.5t-52.5 22.5z" />
    <glyph glyph-name="slash" unicode="/" horiz-adv-x="350" 
d="M-20 -50l345 800h45l-345 -800h-45z" />
    <glyph glyph-name="zero" unicode="0" horiz-adv-x="670" 
d="M188 28q-66 43 -104.5 125.5t-38.5 196.5t38.5 196.5t104.5 125.5t147 43t147 -43t104.5 -125.5t38.5 -196.5t-38.5 -196.5t-104.5 -125.5t-147 -43t-147 43zM450 350q0 345 -115 345t-115 -345t115 -345t115 345z" />
    <glyph glyph-name="one" unicode="1" horiz-adv-x="415" 
d="M70 0v15l70 20v549l-105 -74l-20 25l182 165h108v-665l70 -20v-15h-305z" />
    <glyph glyph-name="two" unicode="2" horiz-adv-x="575" 
d="M30 45q0 59 23.5 107.5t57.5 84.5t89 85q51 45 80 75.5t49 69t20 83.5q0 66 -32 103t-83 37q-29 0 -59 -8l-21 -7v-160l-13 -3q-16 -2 -27 -2q-34 0 -54.5 20.5t-20.5 54.5q0 32 24.5 62t73 49t117.5 19q135 0 200 -54t65 -151q0 -61 -31.5 -105t-77 -73t-121.5 -66
q-64 -31 -103.5 -54.5t-73 -56.5t-47.5 -75h370q7 54 34 90q11 17 26 30h30v-200h-495v45z" />
    <glyph glyph-name="three" unicode="3" horiz-adv-x="585" 
d="M122.5 4q-48.5 19 -73 49t-24.5 62q0 34 20.5 54.5t54.5 20.5q8 0 16 -1.5t11 -1.5l13 -2v-160q1 0 21 -8q26 -7 59 -7q70 0 107.5 42.5t37.5 127.5q0 87 -36.5 131t-98.5 44h-50v25h50q45 0 75 40t30 115t-31 115t-79 40q-26 0 -50 -8q-3 -1 -20 -7v-160l-13 -3
q-16 -2 -27 -2q-34 0 -54.5 20.5t-20.5 54.5q0 31 24 61t70.5 49.5t110.5 19.5q84 0 142.5 -24.5t88 -65.5t29.5 -90q0 -57 -29 -90.5t-76 -53.5q-46 -18 -105 -21v-5q66 -3 120 -23q120 -48 120 -162q0 -88 -72.5 -141.5t-222.5 -53.5q-69 0 -117.5 19z" />
    <glyph glyph-name="four" unicode="4" horiz-adv-x="600" 
d="M235 0v15l70 20v150h-285l-20 30l375 495h95v-480h105v-45h-105v-150l70 -20v-15h-305zM55 230h250v330z" />
    <glyph glyph-name="five" unicode="5" horiz-adv-x="570" 
d="M132.5 4q-48.5 19 -73 49t-24.5 62q0 34 20.5 54.5t54.5 20.5q8 0 16 -1.5t11 -1.5l13 -2v-160q1 0 21 -8q26 -7 59 -7q60 0 95 49.5t35 155.5q0 105 -36 152.5t-104 47.5q-26 0 -49 -9t-49 -24q-21 -13 -42 -32l-20 15l40 335h295q7 54 34 90q11 17 26 30h30v-195h-363
l-27 -230q14 10 41 22q56 23 104 23q146 0 218 -59.5t72 -165.5q0 -108 -71 -169t-209 -61q-69 0 -117.5 19z" />
    <glyph glyph-name="six" unicode="6" horiz-adv-x="620" 
d="M122 75q-72 90 -72 275q0 180 78.5 272.5t216.5 92.5q59 0 103.5 -19.5t68 -49.5t23.5 -61q0 -34 -20.5 -54.5t-54.5 -20.5q-14 0 -28 2l-12 3v160l-19 7q-22 8 -41 8q-49 0 -80.5 -26t-48 -96t-16.5 -198q11 17 27 30q38 30 88 30q73 0 127.5 -27.5t83.5 -76.5t29 -111
q0 -107 -66.5 -168.5t-188.5 -61.5q-126 0 -198 90zM359.5 25q19.5 20 32.5 65t13 115t-13.5 115t-34 65t-42.5 20q-41 0 -65.5 -40t-24.5 -125q0 -127 27.5 -181t67.5 -54q20 0 39.5 20z" />
    <glyph glyph-name="seven" unicode="7" horiz-adv-x="530" 
d="M172.5 175.5q27.5 76.5 66.5 131t102 123.5q55 60 86.5 102.5t47.5 92.5h-355q-7 -54 -34 -90q-11 -17 -26 -30h-30v195h475v-45q0 -56 -17.5 -104t-54.5 -124q-36 -71 -58.5 -126t-38.5 -131.5t-16 -169.5h-175q0 99 27.5 175.5z" />
    <glyph glyph-name="eight" unicode="8" horiz-adv-x="615" 
d="M104.5 35q-64.5 50 -64.5 130q0 55 48 106.5t117 73.5q-66 37 -100.5 81.5t-34.5 108.5q0 80 64.5 130t190.5 50q63 0 110.5 -23t73.5 -60t26 -77q0 -47 -40.5 -91t-94.5 -59q91 -40 138 -95t47 -135q0 -52 -32 -95t-97 -69t-161 -26q-126 0 -190.5 50zM431.5 474
q23.5 32 23.5 81q0 36 -17.5 67t-45 49.5t-57.5 18.5q-43 0 -71.5 -33.5t-28.5 -91.5q0 -80 135 -140q38 17 61.5 49zM384.5 45.5q35.5 35.5 35.5 99.5q0 48 -48 97t-127 83q-56 -20 -88 -59.5t-32 -100.5q0 -42 21.5 -77.5t58 -56.5t80.5 -21q64 0 99.5 35.5z" />
    <glyph glyph-name="nine" unicode="9" horiz-adv-x="620" 
d="M171.5 4.5q-44.5 19.5 -68 49.5t-23.5 61q0 34 20.5 54.5t54.5 20.5q8 0 16 -1.5t11 -1.5l13 -2v-160l19 -8q18 -7 41 -7q49 0 80 26t48 96t17 198q-9 -15 -28 -30q-38 -30 -87 -30q-73 0 -127.5 27.5t-83.5 76.5t-29 111q0 107 66.5 168.5t188.5 61.5q126 0 198 -90
t72 -275q0 -180 -78.5 -272.5t-216.5 -92.5q-59 0 -103.5 19.5zM370.5 335q24.5 40 24.5 125q0 127 -27.5 181t-67.5 54q-20 0 -39.5 -20t-32.5 -65t-13 -115t13.5 -115t34 -65t42.5 -20q41 0 65.5 40z" />
    <glyph glyph-name="colon" unicode=":" horiz-adv-x="240" 
d="M67.5 382.5q-22.5 22.5 -22.5 52.5t22.5 52.5t52.5 22.5t52.5 -22.5t22.5 -52.5t-22.5 -52.5t-52.5 -22.5t-52.5 22.5zM67.5 12.5q-22.5 22.5 -22.5 52.5t22.5 52.5t52.5 22.5t52.5 -22.5t22.5 -52.5t-22.5 -52.5t-52.5 -22.5t-52.5 22.5z" />
    <glyph glyph-name="semicolon" unicode=";" horiz-adv-x="245" 
d="M67.5 382.5q-22.5 22.5 -22.5 52.5t22.5 52.5t52.5 22.5t52.5 -22.5t22.5 -52.5t-22.5 -52.5t-52.5 -22.5t-52.5 22.5zM70 -105q21 7 42 23q43 32 53 87l-13 -8q-13 -7 -32 -7q-30 0 -52.5 22.5t-22.5 52.5t22.5 52.5t52.5 22.5q35 0 57.5 -24.5t22.5 -65.5
q0 -92 -60 -144q-26 -24 -60 -36z" />
    <glyph glyph-name="less" unicode="&#x3c;" horiz-adv-x="505" 
d="M470 0l-445 250l445 250v-55l-345 -195l345 -195v-55z" />
    <glyph glyph-name="equal" unicode="=" horiz-adv-x="460" 
d="M35 385v45h390v-45h-390zM35 235v45h390v-45h-390z" />
    <glyph glyph-name="greater" unicode="&#x3e;" horiz-adv-x="505" 
d="M35 0v55l345 195l-345 195v55l445 -250z" />
    <glyph glyph-name="question" unicode="?" 
d="M225 310q61 24 93 70t32 130q0 96 -34.5 138t-105.5 42q-29 0 -59 -8l-21 -7v-160l-13 -3q-16 -2 -27 -2q-34 0 -54.5 20.5t-20.5 54.5q0 32 24.5 62t73 49t117.5 19q146 0 220.5 -57t74.5 -148q0 -85 -62.5 -141t-187.5 -74l-5 -80h-40zM192.5 13.5
q-22.5 23.5 -22.5 56.5t22.5 56.5t52.5 23.5t52.5 -23.5t22.5 -56.5t-22.5 -56.5t-52.5 -23.5t-52.5 23.5z" />
    <glyph glyph-name="at" unicode="@" horiz-adv-x="840" 
d="M229 -48.5q-87 51.5 -138 141t-51 197.5t51 197.5t138 141t191 51.5t191 -51.5t138 -141t51 -197.5q0 -65 -23 -114t-61 -75t-81 -26q-94 0 -136 40q-18 18 -24 40q-7 -22 -21 -40q-32 -40 -89 -40q-73 0 -119 50t-46 135q0 114 65.5 177t189.5 63h145v-325
q0 -37 15.5 -56t39.5 -19t49.5 22.5t43 65.5t17.5 102q0 100 -46.5 182.5t-125.5 130t-173 47.5t-173 -47.5t-125.5 -130t-46.5 -182.5t46.5 -182.5t125.5 -130t173 -47.5q66 0 136 30q30 14 54 30l15 -25q-24 -19 -58 -33q-72 -32 -147 -32q-104 0 -191 51.5zM443 140
q8 14 12 30v305q-110 0 -110 -215q0 -80 17 -115t43 -35q22 0 38 30z" />
    <glyph glyph-name="A" unicode="A" horiz-adv-x="680" 
d="M-20 15l80 30l275 665h30l285 -680l50 -15v-15h-120q-52 0 -85 23.5t-49 61.5l-51 120h-239l-66 -160l75 -30v-15h-185v15zM166 230h219l-110 263z" />
    <glyph glyph-name="B" unicode="B" horiz-adv-x="680" 
d="M50 15l60 15v640l-60 15v15h270q152 0 223.5 -48.5t71.5 -126.5q0 -54 -31 -87t-79 -49q-51 -18 -110 -19v-5q73 -3 127 -22q55 -18 91.5 -56t36.5 -97q0 -89 -73 -139.5t-237 -50.5h-290v15zM320 380q33 0 61.5 18.5t46 52t17.5 74.5q0 44 -17.5 78t-46 53t-61.5 19h-45
v-295h45zM340 25q62 0 101 44t39 121t-39 121t-101 44h-65v-330h65z" />
    <glyph glyph-name="C" unicode="C" horiz-adv-x="650" 
d="M135 80q-90 95 -90 270q0 115 39.5 197.5t111 125t165.5 42.5q57 0 115 -33q22 -12 44 -32q17 26 35 41q18 13 20 14h25v-190h-40q-13 48 -39 87q-24 38 -59.5 63t-81.5 25q-69 0 -114.5 -80t-45.5 -260q0 -183 49.5 -261.5t135.5 -78.5q47 0 89.5 26.5t69 70.5t26.5 93
h25q0 -57 -30.5 -106.5t-83 -79t-116.5 -29.5q-160 0 -250 95z" />
    <glyph glyph-name="D" unicode="D" horiz-adv-x="715" 
d="M50 15l60 15v640l-60 15v15h255q179 0 274.5 -92t95.5 -258t-95.5 -258t-274.5 -92h-255v15zM305 25q93 0 144 75.5t51 249.5t-51 249.5t-144 75.5h-30v-650h30z" />
    <glyph glyph-name="E" unicode="E" horiz-adv-x="645" 
d="M50 15l60 15v640l-60 15v15h535v-180h-30q-19 15 -33 38q-32 54 -32 117h-215v-315h115q7 38 26 71q8 15 19 29h30v-225h-30q-11 14 -19 29q-19 33 -26 71h-115v-310h235q0 63 32 117q14 23 33 38h30v-180h-555v15z" />
    <glyph glyph-name="F" unicode="F" horiz-adv-x="610" 
d="M50 15l60 15v640l-60 15v15h535v-180h-30q-19 15 -33 38q-32 54 -32 117h-215v-315h115q7 38 26 71q8 15 19 29h30v-225h-30q-11 14 -19 29q-19 33 -26 71h-115v-305l60 -15v-15h-285v15z" />
    <glyph glyph-name="G" unicode="G" horiz-adv-x="700" 
d="M185 28q-64 43 -102 125.5t-38 196.5q0 115 39.5 197.5t111 125t165.5 42.5q57 0 115 -33q22 -12 44 -32q17 26 35 41q18 13 20 14h25v-190h-40q-13 48 -39 87q-24 38 -59.5 63t-81.5 25q-69 0 -114.5 -80t-45.5 -260t40.5 -255t104.5 -75q37 0 67 40q11 15 23 40v230
l-60 15v15h285v-15l-60 -15v-335h-15q-73 0 -111 40q-17 18 -24 40q-14 -25 -33 -45q-45 -45 -112 -45q-76 0 -140 43z" />
    <glyph glyph-name="H" unicode="H" horiz-adv-x="765" 
d="M50 0v15l60 15v640l-60 15v15h285v-15l-60 -15v-310h215v310l-60 15v15h285v-15l-60 -15v-640l60 -15v-15h-285v15l60 15v305h-215v-305l60 -15v-15h-285z" />
    <glyph glyph-name="I" unicode="I" horiz-adv-x="385" 
d="M50 0v15l60 15v640l-60 15v15h285v-15l-60 -15v-640l60 -15v-15h-285z" />
    <glyph glyph-name="J" unicode="J" horiz-adv-x="550" 
d="M46.5 17q-46.5 32 -46.5 78q0 34 20.5 54.5t54.5 20.5q8 0 16 -1.5t11 -1.5l13 -2v-150q7 -4 14 -5q17 -5 36 -5q120 0 120 195v470l-60 15v15h285v-15l-60 -15v-470q0 -104 -65 -159.5t-200 -55.5q-92 0 -138.5 32z" />
    <glyph glyph-name="K" unicode="K" horiz-adv-x="690" 
d="M50 15l60 15v640l-60 15v15h285v-15l-60 -15v-314l245 299l-75 30v15h190v-15l-80 -30l-175 -215l270 -410l50 -15v-15h-140q-45 0 -76.5 22.5t-58.5 62.5l-150 230v-285l60 -15v-15h-285v15z" />
    <glyph glyph-name="L" unicode="L" horiz-adv-x="610" 
d="M50 15l60 15v640l-60 15v15h285v-15l-60 -15v-645h215q0 63 32 117q14 23 33 38h30v-180h-535v15z" />
    <glyph glyph-name="M" unicode="M" horiz-adv-x="985" 
d="M140 575v-530l80 -30v-15h-190v15l80 30v625l-60 15v15h125q52 0 82.5 -21.5t52.5 -63.5l218 -417l167 417q17 44 46 64.5t89 20.5h105v-15l-60 -15v-640l60 -15v-15h-285v15l60 15v545l-235 -585h-30z" />
    <glyph glyph-name="N" unicode="N" horiz-adv-x="740" 
d="M140 530v-485l80 -30v-15h-190v15l80 30v620l-70 20v15h105q53 0 83 -19t57 -51l320 -375v400l-80 30v15h190v-15l-80 -30v-670h-30z" />
    <glyph glyph-name="O" unicode="O" horiz-adv-x="740" 
d="M198.5 27.5q-73.5 42.5 -113.5 124.5t-40 198t40 198t113.5 124.5t171.5 42.5t171.5 -42.5t113.5 -124.5t40 -198t-40 -198t-113.5 -124.5t-171.5 -42.5t-171.5 42.5zM442.5 38q33.5 33 55.5 110t22 202t-22 202t-55.5 110t-72.5 33t-72.5 -33t-55.5 -110t-22 -202
t22 -202t55.5 -110t72.5 -33t72.5 33z" />
    <glyph glyph-name="P" unicode="P" horiz-adv-x="675" 
d="M50 15l60 15v640l-60 15v15h280q166 0 238 -54.5t72 -160.5t-72 -160.5t-238 -54.5h-55v-240l60 -15v-15h-285v15zM330 295q63 0 101.5 48t38.5 142q0 93 -38.5 141.5t-101.5 48.5h-55v-380h55z" />
    <glyph glyph-name="Q" unicode="Q" horiz-adv-x="740" 
d="M375 -148.5q-41 21.5 -63 59t-22 84.5q-115 24 -180 115.5t-65 239.5q0 116 40 198t113.5 124.5t171.5 42.5t171.5 -42.5t113.5 -124.5t40 -198q0 -148 -65 -239.5t-180 -115.5q0 -135 50 -135q14 0 22 5q1 0 8 5l10 -25q-4 -3 -16 -8q-18 -7 -54 -7q-54 0 -95 21.5z
M442.5 38q33.5 33 55.5 110t22 202t-22 202t-55.5 110t-72.5 33t-72.5 -33t-55.5 -110t-22 -202t22 -202t55.5 -110t72.5 -33t72.5 33z" />
    <glyph glyph-name="R" unicode="R" horiz-adv-x="700" 
d="M50 15l60 15v640l-60 15v15h265q170 0 245 -51.5t75 -143.5q0 -62 -33 -100.5t-85 -57.5q-55 -21 -117 -22v-5q37 -2 65 -11q70 -22 95 -79l90 -200l50 -15v-15h-140q-82 0 -120 85l-100 225h-65v-280l70 -15v-15h-295v15zM315 335q70 0 110 44t40 126t-40 126t-110 44
h-40v-340h40z" />
    <glyph glyph-name="S" unicode="S" horiz-adv-x="595" 
d="M162 17q-28 14 -47 33q-14 -23 -35 -41q-18 -13 -20 -14h-25v190h40q15 -49 42 -88q61 -87 158 -87q57 0 91 34t34 91q0 33 -19.5 59t-48.5 46t-81 50q-66 37 -107 67t-70 75.5t-29 107.5q0 49 27.5 88.5t82.5 63t135 23.5q58 0 116 -33q22 -12 44 -32q17 26 35 41
q18 13 20 14h25v-190h-40q-13 48 -39 87q-24 38 -59.5 63t-81.5 25q-39 0 -67 -31t-28 -79q0 -37 21.5 -66.5t53 -51.5t85.5 -53q63 -36 102 -64t66 -69.5t27 -95.5t-31 -98.5t-93 -70.5t-151 -26q-71 0 -133 32z" />
    <glyph glyph-name="T" unicode="T" horiz-adv-x="635" 
d="M175 15l60 15v645h-115q0 -61 -33 -117q-14 -23 -32 -38h-30v180h585v-180h-30q-19 15 -33 38q-32 54 -32 117h-115v-645l60 -15v-15h-285v15z" />
    <glyph glyph-name="U" unicode="U" horiz-adv-x="710" 
d="M171 54.5q-76 69.5 -76 195.5v420l-60 15v15h285v-15l-60 -15v-420q0 -129 40 -184.5t115 -55.5q46 0 87.5 29.5t67 84t25.5 126.5v405l-80 30v15h190v-15l-80 -30v-405q0 -81 -30 -141t-82 -92t-118 -32q-148 0 -224 69.5z" />
    <glyph glyph-name="V" unicode="V" horiz-adv-x="665" 
d="M30 670l-50 15v15h120q52 0 85 -23.5t50 -61.5l177 -403l163 443l-75 30v15h185v-15l-80 -30l-245 -665h-30z" />
    <glyph glyph-name="W" unicode="W" horiz-adv-x="985" 
d="M35 675l-55 10v15h120q53 0 87 -24t48 -61l151 -385l88 258l-74 187l-55 10v15h120q53 0 86 -23.5t49 -61.5l151 -385l144 425l-75 30v15h185v-15l-80 -30l-225 -665h-30l-180 457l-155 -457h-30z" />
    <glyph glyph-name="X" unicode="X" horiz-adv-x="665" 
d="M15 15l80 30l170 251l-220 374l-50 15v15h145q50 0 79.5 -21t55.5 -64l96 -164l139 204l-75 30v15h190v-15l-80 -30l-157 -231l232 -394l50 -15v-15h-145q-49 0 -79 21t-56 64l-108 183l-152 -223l75 -30v-15h-190v15z" />
    <glyph glyph-name="Y" unicode="Y" horiz-adv-x="665" 
d="M195 15l60 15v230l-205 410l-50 15v15h125q52 0 83.5 -22t51.5 -63l148 -295l152 335l-75 30v15h190v-15l-80 -30l-175 -385v-240l60 -15v-15h-285v15z" />
    <glyph glyph-name="Z" unicode="Z" horiz-adv-x="635" 
d="M40 25l371 650h-261q0 -61 -33 -117q-14 -23 -32 -38h-30v180h540v-25l-370 -650h270q0 63 32 117q14 23 33 38h30v-180h-550v25z" />
    <glyph glyph-name="bracketleft" unicode="[" horiz-adv-x="350" 
d="M85 -220v940h255v-25h-95v-890h95v-25h-255z" />
    <glyph glyph-name="backslash" unicode="\" horiz-adv-x="350" 
d="M325 -50l-345 800h45l345 -800h-45z" />
    <glyph glyph-name="bracketright" unicode="]" horiz-adv-x="350" 
d="M10 -220v25h95v890h-95v25h255v-940h-255z" />
    <glyph glyph-name="asciicircum" unicode="^" horiz-adv-x="480" 
d="M30 430l210 290l210 -290h-60l-150 205l-150 -205h-60z" />
    <glyph glyph-name="underscore" unicode="_" horiz-adv-x="390" 
d="M0 -100v45h390v-45h-390z" />
    <glyph glyph-name="grave" unicode="`" horiz-adv-x="220" 
d="M155 550l-135 150h130l40 -150h-35z" />
    <glyph glyph-name="a" unicode="a" horiz-adv-x="605" 
d="M98 23q-48 38 -48 97q0 39 17 77q7 18 18 33q41 10 89 18q108 18 191 22v30q0 111 -27 153t-83 42q-21 0 -36 -5l-14 -5v-150l-13 -3q-16 -2 -27 -2q-34 0 -54.5 20.5t-20.5 54.5q0 46 46.5 78t138.5 32q78 0 134.5 -27.5t86 -76t29.5 -111.5v-270l60 -15v-15h-90
q-60 0 -93 37q-14 15 -22 38q-14 -25 -33 -45q-45 -45 -112 -45q-89 0 -137 38zM342 60q11 15 23 40v145q-46 0 -88 -5q-31 -4 -42 -5q-5 -11 -10 -30q-10 -38 -10 -75q0 -56 17 -83t43 -27q37 0 67 40z" />
    <glyph glyph-name="b" unicode="b" horiz-adv-x="615" 
d="M258 30q-19 20 -33 45q-7 -22 -24 -40q-38 -40 -111 -40h-10v675l-60 15v15h130q90 0 90 -90v-135q16 13 31 20q36 20 84 20q101 0 160.5 -68.5t59.5 -196.5q0 -85 -27 -144.5t-73 -90t-105 -30.5q-67 0 -112 45zM383.5 70.5q21.5 50.5 21.5 179.5q0 135 -23.5 185
t-66.5 50q-26 0 -53 -20q-8 -6 -22 -20v-345q9 -23 22 -40q30 -40 68 -40q32 0 53.5 50.5z" />
    <glyph glyph-name="c" unicode="c" horiz-adv-x="530" 
d="M111 55.5q-71 70.5 -71 194.5t71 194.5t199 70.5q92 0 138.5 -32t46.5 -78q0 -34 -20.5 -54.5t-54.5 -20.5q-14 0 -28 2l-12 3v150l-14 5q-15 5 -36 5q-57 0 -88.5 -54t-31.5 -191q0 -133 31.5 -186.5t88.5 -53.5q39 0 72.5 18.5t53 49t19.5 62.5h25q0 -40 -24 -76
t-67 -57.5t-99 -21.5q-128 0 -199 70.5z" />
    <glyph glyph-name="d" unicode="d" horiz-adv-x="620" 
d="M140 15.5q-46 30.5 -73 90t-27 144.5q0 128 59.5 196.5t160.5 68.5q48 0 84 -20q15 -7 31 -20v195l-60 15v15h130q90 0 90 -90v-580l60 -15v-15h-90q-60 0 -93 37q-14 15 -22 38q-13 -25 -33 -45q-45 -45 -112 -45q-59 0 -105 30.5zM352 60q11 15 23 40v345
q-11 11 -23 20q-27 20 -52 20q-43 0 -66.5 -50t-23.5 -185q0 -129 21.5 -179.5t53.5 -50.5q37 0 67 40z" />
    <glyph glyph-name="e" unicode="e" 
d="M111 55.5q-71 70.5 -71 194.5q0 81 31 141t86.5 92t127.5 32t126.5 -27t84 -72.5t29.5 -100.5q0 -25 -5 -43l-5 -17q-43 -9 -93 -15q-105 -15 -212 -15q0 -116 32 -165.5t88 -49.5q39 0 72.5 18.5t53 49t19.5 62.5h25q0 -40 -24 -76t-67 -57.5t-99 -21.5
q-128 0 -199 70.5zM314 255q17 1 36 5q1 5 5 22q5 25 5 53q0 83 -22 121.5t-53 38.5q-75 0 -75 -245q64 0 104 5z" />
    <glyph glyph-name="f" unicode="f" horiz-adv-x="425" 
d="M35 15l60 15v425h-70v25h70v50q0 53 25.5 95t73 66t111.5 24q52 0 89.5 -15.5t56.5 -41t19 -53.5q0 -34 -20.5 -54.5t-54.5 -20.5q-14 0 -28 2l-12 3v155l-9 2q-4 1 -9 2t-12 1q-34 0 -52 -35.5t-18 -129.5v-50h160v-25h-160v-425l60 -15v-15h-280v15z" />
    <glyph glyph-name="g" unicode="g" horiz-adv-x="605" 
d="M130 -199q-56 16 -80.5 41t-24.5 53q0 34 20.5 54.5t54.5 20.5q8 0 29 -3l11 -2v-140q12 -4 38 -10q46 -10 87 -10q122 0 178.5 34.5t56.5 85.5q0 65 -120 65h-190q-75 0 -115 31t-40 79t47 85q19 14 48 25q-37 23 -53.5 54.5t-16.5 75.5q0 74 56 119.5t164 45.5
q47 0 86.5 -9.5t63.5 -25.5q8 17 21 30q30 30 74 30q34 0 57 -23.5t23 -61.5q0 -29 -15.5 -47t-39.5 -18q-11 0 -25 2l-10 3v120q-26 0 -49 -25q-9 -9 -16 -25q50 -44 50 -115q0 -74 -56 -119.5t-164 -45.5q-72 0 -130 25l-20 -10q-10 -6 -15 -11.5t-5 -13.5q0 -17 17.5 -26
t62.5 -9h190q75 0 117.5 -43.5t42.5 -121.5q0 -80 -66.5 -130t-198.5 -50q-89 0 -145 16zM331.5 227q18.5 32 18.5 113t-18.5 113t-51.5 32t-51.5 -32t-18.5 -113t18.5 -113t51.5 -32t51.5 32z" />
    <glyph glyph-name="h" unicode="h" horiz-adv-x="665" 
d="M40 15l60 15v640l-60 15v15h130q90 0 90 -90v-160q15 20 31 32q43 33 99 33t100.5 -23.5t69.5 -61.5t25 -80v-320l60 -15v-15h-130q-90 0 -90 90v260q0 63 -22.5 96.5t-52.5 33.5q-38 0 -68 -40q-13 -17 -22 -40v-370l60 -15v-15h-280v15z" />
    <glyph glyph-name="i" unicode="i" horiz-adv-x="340" 
d="M40 15l60 15v440l-60 15v15h130q90 0 90 -90v-380l60 -15v-15h-280v15zM120 580q-20 20 -20 50t20 50t50 20t50 -20t20 -50t-20 -50t-50 -20t-50 20z" />
    <glyph glyph-name="j" unicode="j" horiz-adv-x="330" 
d="M-75 -190q-35 25 -35 70q0 34 20.5 54.5t54.5 20.5q8 0 16 -1.5t11 -1.5l13 -2v-140l6 -3q10 -2 14 -2q31 0 50.5 37.5t19.5 127.5v500l-60 15v15h130q90 0 90 -90v-440q0 -53 -26 -95t-76 -66t-118 -24q-75 0 -110 25zM115 580q-20 20 -20 50t20 50t50 20t50 -20t20 -50
t-20 -50t-50 -20t-50 20z" />
    <glyph glyph-name="k" unicode="k" horiz-adv-x="600" 
d="M40 15l60 15v640l-60 15v15h130q90 0 90 -90v-350l185 195l-75 30v15h190v-15l-80 -30l-115 -120l195 -305l50 -15v-15h-130q-48 0 -78 21t-57 64l-85 135v-190l60 -15v-15h-280v15z" />
    <glyph glyph-name="l" unicode="l" horiz-adv-x="340" 
d="M40 15l60 15v640l-60 15v15h130q90 0 90 -90v-580l60 -15v-15h-280v15z" />
    <glyph glyph-name="m" unicode="m" horiz-adv-x="950" 
d="M40 15l60 15v440l-60 15v15h90q59 0 93 -38q13 -15 22 -37q15 28 32 45q45 45 103 45t102 -25.5t68 -69.5q15 29 32 47q46 48 103 48q53 0 95.5 -22t66 -60t23.5 -83v-320l60 -15v-15h-130q-90 0 -90 90v260q0 65 -20 97.5t-45 32.5q-29 0 -59 -40q-12 -19 -21 -40v-370
l60 -15v-15h-280v15l60 15v320q0 65 -20 97.5t-45 32.5q-29 0 -59 -40q-12 -19 -21 -40v-370l60 -15v-15h-280v15z" />
    <glyph glyph-name="n" unicode="n" horiz-adv-x="665" 
d="M40 15l60 15v440l-60 15v15h90q59 0 93 -38q13 -15 22 -37q14 26 33 45q45 45 112 45q56 0 100.5 -23.5t69.5 -61.5t25 -80v-320l60 -15v-15h-130q-90 0 -90 90v260q0 63 -22.5 96.5t-52.5 33.5q-38 0 -68 -40q-13 -17 -22 -40v-370l60 -15v-15h-280v15z" />
    <glyph glyph-name="o" unicode="o" horiz-adv-x="610" 
d="M110.5 55.5q-70.5 70.5 -70.5 194.5t70.5 194.5t194.5 70.5t194.5 -70.5t70.5 -194.5t-70.5 -194.5t-194.5 -70.5t-194.5 70.5zM372.5 61q27.5 56 27.5 189t-27.5 189t-67.5 56t-67.5 -56t-27.5 -189t27.5 -189t67.5 -56t67.5 56z" />
    <glyph glyph-name="p" unicode="p" horiz-adv-x="625" 
d="M30 -185l60 15v640l-60 15v15h90q59 0 93 -38q13 -15 22 -37q13 26 33 45q45 45 112 45q59 0 105 -30.5t73 -90t27 -144.5q0 -128 -59.5 -196.5t-160.5 -68.5q-48 0 -84 20q-15 7 -31 20v-195l60 -15v-15h-280v15zM391.5 65q23.5 50 23.5 185q0 129 -21.5 179.5
t-53.5 50.5q-38 0 -68 -40q-13 -17 -22 -40v-345q14 -14 22 -20q27 -20 53 -20q43 0 66.5 50z" />
    <glyph glyph-name="q" unicode="q" horiz-adv-x="615" 
d="M315 -185l60 15v195q-16 -13 -31 -20q-36 -20 -84 -20q-101 0 -160.5 68.5t-59.5 196.5q0 85 27 144.5t73 90t105 30.5q67 0 112 -45q19 -19 33 -45q7 22 24 40q38 40 111 40h10v-675l60 -15v-15h-280v15zM352 35q12 9 23 20v345q-12 25 -23 40q-30 40 -67 40
q-32 0 -53.5 -50.5t-21.5 -179.5q0 -135 23.5 -185t66.5 -50q25 0 52 20z" />
    <glyph glyph-name="r" unicode="r" horiz-adv-x="505" 
d="M40 15l60 15v440l-60 15v15h90q59 0 93 -38q13 -15 22 -37q15 22 37 40q50 40 112 40q53 0 79.5 -24.5t26.5 -70.5q0 -34 -20.5 -54.5t-54.5 -20.5q-14 0 -28 2l-12 3v140q-51 0 -93 -40q-20 -20 -32 -40v-370l60 -15v-15h-280v15z" />
    <glyph glyph-name="s" unicode="s" horiz-adv-x="540" 
d="M164 12q-24 13 -39 28q-16 -22 -35 -34q-9 -6 -20 -11h-25v170h40q13 -42 38 -78q53 -77 132 -77q42 0 63.5 20.5t21.5 59.5q0 33 -29.5 55.5t-92.5 55.5q-54 27 -87.5 48.5t-57 54t-23.5 76.5q0 60 51.5 97.5t158.5 37.5q53 0 98 -28q22 -13 38 -27q13 18 35 34
q17 10 20 11h25v-170h-40q-15 43 -37 77q-50 78 -119 78q-27 0 -46 -20t-19 -50q0 -38 32 -63.5t97 -58.5q53 -27 84.5 -47.5t54 -50.5t22.5 -70q0 -145 -230 -145q-62 0 -111 27z" />
    <glyph glyph-name="t" unicode="t" horiz-adv-x="450" 
d="M185.5 9q-48.5 24 -74.5 66t-26 95v305h-70v25h70v50q0 90 90 90h70v-140h140v-25h-140v-305q0 -92 19 -126t56 -34q36 0 63 35t27 95h25q0 -74 -37 -114.5t-98 -40.5q-66 0 -114.5 24z" />
    <glyph glyph-name="u" unicode="u" horiz-adv-x="650" 
d="M179.5 8.5q-44.5 23.5 -69.5 61.5t-25 80v320l-60 15v15h130q90 0 90 -90v-260q0 -63 22.5 -96.5t52.5 -33.5q37 0 67 40q11 15 23 40v370l-60 15v15h280v-15l-60 -15v-475h-10q-73 0 -111 40q-17 18 -24 40q-14 -25 -33 -45q-45 -45 -112 -45q-56 0 -100.5 23.5z" />
    <glyph glyph-name="v" unicode="v" 
d="M30 470l-50 15v15h125q52 0 82.5 -21.5t52.5 -63.5l119 -231l111 271l-75 30v15h185v-15l-80 -30l-190 -465h-30z" />
    <glyph glyph-name="w" unicode="w" horiz-adv-x="835" 
d="M30 470l-50 15v15h115q53 0 84 -22t51 -63l110 -230l57 146l-67 139l-50 15v15h115q53 0 84 -22t51 -63l110 -230l105 270l-75 30v15h185v-15l-80 -30l-185 -465h-30l-148 308l-122 -308h-30z" />
    <glyph glyph-name="x" unicode="x" horiz-adv-x="555" 
d="M10 15l80 30l124 159l-169 266l-50 15v15h135q48 0 78 -21.5t57 -63.5l51 -81l94 121l-75 30v15h190v-15l-80 -30l-114 -145l179 -280l50 -15v-15h-135q-48 0 -78 21t-57 64l-60 94l-105 -134l75 -30v-15h-190v15z" />
    <glyph glyph-name="y" unicode="y" 
d="M80 -191q-25 24 -25 66q0 38 20.5 59t54.5 21q8 0 16 -1.5t11 -1.5l13 -2v-135q29 5 51 32t49 93l20 50l-260 480l-50 15v15h125q52 0 82.5 -21.5t52.5 -63.5l125 -231l105 271l-75 30v15h185v-15l-80 -30l-200 -515q-32 -82 -68 -118.5t-82 -36.5q-45 0 -70 24z" />
    <glyph glyph-name="z" unicode="z" horiz-adv-x="545" 
d="M40 25l285 450h-180q0 -55 -33 -111q-13 -21 -32 -39h-30v175h455v-25l-285 -450h190q0 57 32 111q14 23 33 39h30v-175h-465v25z" />
    <glyph glyph-name="braceleft" unicode="{" horiz-adv-x="370" 
d="M195.5 -199.5q-44.5 20.5 -67.5 54.5t-23 75v205q0 51 -20 75.5t-55 24.5v30q35 0 55 24.5t20 75.5v205q0 41 23 75t67.5 54.5t104.5 20.5h60v-25h-10q-39 0 -62 -26.5t-23 -78.5v-185q0 -94 -80 -134q-34 -18 -80 -21q46 -3 80 -21q80 -40 80 -134v-185q0 -52 23 -78.5
t62 -26.5h10v-25h-60q-60 0 -104.5 20.5z" />
    <glyph glyph-name="bar" unicode="|" horiz-adv-x="225" 
d="M85 -200v900h55v-900h-55z" />
    <glyph glyph-name="braceright" unicode="}" horiz-adv-x="370" 
d="M10 -195h10q39 0 62 26.5t23 78.5v185q0 94 80 134q34 18 80 21q-46 3 -80 21q-80 40 -80 134v185q0 52 -23 78.5t-62 26.5h-10v25h60q60 0 104.5 -20.5t67.5 -54.5t23 -75v-205q0 -51 20 -75.5t55 -24.5v-30q-35 0 -55 -24.5t-20 -75.5v-205q0 -41 -23 -75t-67.5 -54.5
t-104.5 -20.5h-60v25z" />
    <glyph glyph-name="asciitilde" unicode="~" horiz-adv-x="515" 
d="M66 374.5q36 45.5 99 45.5q33 0 58.5 -10t58.5 -30q31 -18 52 -26.5t46 -8.5q33 0 56.5 22.5t23.5 52.5h25q0 -95 -35.5 -140t-99.5 -45q-33 0 -57 10t-57 29q-32 19 -53 27.5t-48 8.5q-33 0 -56.5 -22.5t-23.5 -52.5h-25q0 94 36 139.5z" />
    <glyph glyph-name="uni00A0" unicode="&#xa0;" horiz-adv-x="280" 
 />
    <glyph glyph-name="exclamdown" unicode="&#xa1;" horiz-adv-x="310" 
d="M102.5 373.5q-22.5 23.5 -22.5 56.5t22.5 56.5t52.5 23.5t52.5 -23.5t22.5 -56.5t-22.5 -56.5t-52.5 -23.5t-52.5 23.5zM87.5 -183.5q-27.5 31.5 -27.5 83.5l80 385h30l80 -385q0 -52 -27.5 -83.5t-67.5 -31.5t-67.5 31.5z" />
    <glyph glyph-name="cent" unicode="&#xa2;" horiz-adv-x="530" 
d="M300 -15q-125 3 -192.5 72.5t-67.5 192.5q0 121 68.5 191.5t191.5 73.5v65h30v-66q81 -4 123 -35t42 -74q0 -34 -20.5 -54.5t-54.5 -20.5q-14 0 -28 2l-12 3v150l-14 5q-15 5 -36 5v-485q39 0 72.5 18.5t53 49t19.5 62.5h25q0 -39 -21 -72.5t-60 -55.5t-89 -26v-66h-30
v65zM300 491q-43 -10 -66.5 -67t-23.5 -174q0 -115 23.5 -169.5t66.5 -67.5v478z" />
    <glyph glyph-name="sterling" unicode="&#xa3;" horiz-adv-x="600" 
d="M35 24q33 4 52 36.5t23 109.5l8 180h-73v30h74l6 130q5 96 64 150.5t166 54.5q91 0 133 -31t42 -78q0 -34 -20.5 -54.5t-54.5 -20.5q-14 0 -28 2l-12 3v150l-9 4q-12 5 -31 5q-38 0 -58.5 -40t-26.5 -145l-6 -130h176v-30h-177l-8 -180q-4 -65 -49 -97q-19 -13 -46 -18
h295q7 54 34 90q11 17 26 30h30v-175h-530v24z" />
    <glyph glyph-name="currency" unicode="&#xa4;" horiz-adv-x="690" 
d="M65 15l60 15v145h-75v30h75v65h-75v30h75v370l-60 15v15h280q166 0 238 -54.5t72 -160.5t-72 -160.5t-238 -54.5h-55v-65h250v-30h-250v-145l60 -15v-15h-285v15zM345 300q63 0 101.5 47.5t38.5 137.5q0 93 -38.5 141.5t-101.5 48.5h-55v-375h55z" />
    <glyph glyph-name="yen" unicode="&#xa5;" horiz-adv-x="665" 
d="M195 15l60 15v160h-125v30h125v40l-10 20h-115v30h100l-180 360l-50 15v15h125q52 0 83.5 -22t51.5 -63l148 -293l152 333l-75 30v15h190v-15l-80 -30l-158 -345h108v-30h-121l-4 -10v-50h125v-30h-125v-160l60 -15v-15h-285v15z" />
    <glyph glyph-name="brokenbar" unicode="&#xa6;" horiz-adv-x="225" 
d="M85 340v360h55v-360h-55zM85 -200v360h55v-360h-55z" />
    <glyph glyph-name="section" unicode="&#xa7;" horiz-adv-x="520" 
d="M91.5 -178q-46.5 32 -46.5 78q0 34 20.5 54.5t54.5 20.5q8 0 16 -1.5t11 -1.5l13 -2v-150q7 -4 14 -5q17 -5 36 -5q50 0 77.5 29.5t27.5 85.5q0 31 -17 55.5t-42.5 42t-68.5 40.5q-49 27 -77.5 47.5t-49 51.5t-20.5 73q0 45 34 81.5t101 53.5q-54 35 -84.5 77t-30.5 103
q0 71 57 115.5t168 44.5q57 0 96.5 -15.5t59 -40.5t19.5 -54q0 -34 -20.5 -54.5t-54.5 -20.5q-14 0 -28 2l-12 3v155l-13 2q-3 0 -11 1.5t-16 1.5q-32 0 -56 -29.5t-24 -80.5q0 -46 30 -76.5t90 -66.5q44 -27 71 -48.5t45.5 -52t18.5 -71.5q0 -42 -34 -76.5t-101 -48.5
q63 -35 99 -76.5t36 -108.5q0 -76 -61 -120.5t-189 -44.5q-92 0 -138.5 32zM325 164q5 18 5 51q0 53 -65 102q-29 22 -65 38q-4 -5 -5 -14q-5 -18 -5 -51q0 -55 65 -102q32 -23 65 -38z" />
    <glyph glyph-name="dieresis" unicode="&#xa8;" horiz-adv-x="365" 
d="M40 580q-20 20 -20 50t20 50t50 20t50 -20t20 -50t-20 -50t-50 -20t-50 20zM225 580q-20 20 -20 50t20 50t50 20t50 -20t20 -50t-20 -50t-50 -20t-50 20z" />
    <glyph glyph-name="copyright" unicode="&#xa9;" horiz-adv-x="840" 
d="M229 11.5q-87 51.5 -138 141t-51 197.5t51 197.5t138 141t191 51.5t191 -51.5t138 -141t51 -197.5t-51 -197.5t-138 -141t-191 -51.5t-191 51.5zM595.5 36q78.5 46 124 128t45.5 186t-45.5 186t-124 128t-175.5 46t-175.5 -46t-124 -128t-45.5 -186t45.5 -186t124 -128
t175.5 -46t175.5 46zM282.5 191.5q-57.5 56.5 -57.5 158.5t56.5 158.5t158.5 56.5q78 0 119 -29t41 -71q0 -30 -17.5 -47.5t-47.5 -17.5q-14 0 -28 2l-12 3v135l-10 2q-3 0 -10 1.5t-15 1.5q-39 0 -67 -47.5t-28 -147.5q0 -98 28.5 -144t71.5 -46q48 0 81.5 32t33.5 78h25
q0 -35 -20 -66t-57 -50t-83 -19q-105 0 -162.5 56.5z" />
    <glyph glyph-name="ordfeminine" unicode="&#xaa;" horiz-adv-x="415" 
d="M62 385q-32 25 -32 65q0 25 10 47q5 12 10 18l59 15q75 15 126 15v35q0 60 -15.5 85t-44.5 25q-8 0 -16 -1.5t-11 -1.5l-13 -2v-100l-10 -3q-14 -2 -25 -2q-23 0 -36.5 13.5t-13.5 36.5q0 34 36 57t109 23q72 0 111 -39t39 -111v-165l40 -10v-15h-60q-45 0 -66 25
q-8 9 -14 25q-8 -18 -19 -30q-30 -30 -71 -30q-61 0 -93 25zM221 411q9 12 14 27v87q-10 0 -55 -3l-25 -2q-3 -4 -8 -17q-7 -18 -7 -43q0 -35 14 -55t31 -20q18 0 36 26z" />
    <glyph glyph-name="guillemotleft" unicode="&#xab;" horiz-adv-x="440" 
d="M275 20l-260 230l260 230l25 -25l-185 -205l185 -205zM385 75l-190 175l190 175l25 -25l-120 -150l120 -150z" />
    <glyph glyph-name="logicalnot" unicode="&#xac;" horiz-adv-x="470" 
d="M395 220v100h-365v45h410v-145h-45z" />
    <glyph glyph-name="uni00AD" unicode="&#xad;" horiz-adv-x="460" 
d="M30 300v45h400v-45h-400z" />
    <glyph glyph-name="registered" unicode="&#xae;" horiz-adv-x="840" 
d="M229 11.5q-87 51.5 -138 141t-51 197.5t51 197.5t138 141t191 51.5t191 -51.5t138 -141t51 -197.5t-51 -197.5t-138 -141t-191 -51.5t-191 51.5zM595.5 36q78.5 46 124 128t45.5 186t-45.5 186t-124 128t-175.5 46t-175.5 -46t-124 -128t-45.5 -186t45.5 -186t124 -128
t175.5 -46t175.5 46zM210 155l50 10v370l-50 10v15h190q120 0 170 -31.5t50 -88.5q0 -64 -70 -90q-32 -12 -70 -15q20 -2 38 -9q40 -15 57 -51l50 -110l35 -10v-15h-100q-36 0 -60 17t-35 43l-55 125h-20v-160l50 -10v-15h-230v15zM400 345q39 0 59.5 24.5t20.5 70.5
q0 44 -22.5 69.5t-57.5 25.5h-10v-190h10z" />
    <glyph glyph-name="macron" unicode="&#xaf;" horiz-adv-x="300" 
d="M20 655v45h260v-45h-260z" />
    <glyph glyph-name="degree" unicode="&#xb0;" horiz-adv-x="370" 
d="M103.5 421q-35.5 21 -54.5 56.5t-19 77.5t19 77.5t54.5 56.5t81.5 21t81.5 -21t54.5 -56.5t19 -77.5t-19 -77.5t-54.5 -56.5t-81.5 -21t-81.5 21zM242.5 477q22.5 27 22.5 78t-22.5 78t-57.5 27t-57.5 -27t-22.5 -78t22.5 -78t57.5 -27t57.5 27z" />
    <glyph glyph-name="plusminus" unicode="&#xb1;" horiz-adv-x="505" 
d="M230 135v185h-200v45h200v205h45v-205h200v-45h-200v-185h-45zM40 50v45h425v-45h-425z" />
    <glyph glyph-name="uni00B2" unicode="&#xb2;" horiz-adv-x="345" 
d="M30 400q0 28 12.5 49.5t29.5 36t48 35.5q43 28 64 50.5t21 58.5q0 25 -15.5 42.5t-34.5 17.5q-8 0 -16 -1.5t-11 -1.5l-13 -2v-100l-10 -3q-14 -2 -25 -2q-23 0 -36.5 13.5t-13.5 36.5q0 34 36 57t109 23q68 0 104 -28t36 -72q0 -34 -19 -57.5t-47 -38t-75 -33.5
q-45 -18 -71.5 -32t-42.5 -34h190q3 26 22 57q8 13 18 23h20v-125h-280v30z" />
    <glyph glyph-name="uni00B3" unicode="&#xb3;" horiz-adv-x="360" 
d="M66 383q-36 23 -36 57q0 23 13.5 36.5t36.5 13.5q8 0 15 -1.5t10 -1.5l10 -2v-100l13 -3q16 -2 27 -2q30 0 47.5 19.5t17.5 55.5q0 37 -16.5 56t-43.5 19h-26v20h26q17 0 31 19t14 51t-14 51t-31 19q-8 0 -16 -1.5t-11 -1.5l-13 -2v-100l-10 -3q-14 -2 -25 -2
q-23 0 -36.5 13.5t-13.5 36.5q0 34 36 57t109 23q64 0 99.5 -26.5t35.5 -63.5q0 -26 -15 -42t-40 -26q-26 -11 -55 -12q37 -3 62 -13q63 -22 63 -72q0 -41 -39 -68t-116 -27q-73 0 -109 23z" />
    <glyph glyph-name="acute" unicode="&#xb4;" horiz-adv-x="220" 
d="M30 550l40 150h130l-135 -150h-35z" />
    <glyph glyph-name="uni00B5" unicode="&#xb5;" horiz-adv-x="655" 
d="M30 -185l60 15v640l-60 15v15h130q90 0 90 -90v-250q0 -63 22.5 -96.5t52.5 -33.5q37 0 67 40q11 15 23 40v360l-60 15v15h280v-15l-60 -15v-475h-10q-74 0 -111 45q-16 20 -24 45q-9 -26 -24 -45q-33 -45 -81 -45q-33 0 -56 17q-13 9 -19 18v-140q0 -90 -90 -90h-130v15
z" />
    <glyph glyph-name="paragraph" unicode="&#xb6;" horiz-adv-x="590" 
d="M270 270q-116 0 -175.5 56t-59.5 159t59.5 159t175.5 56h295v-30h-80v-870h-55v870h-105v-870h-55v470z" />
    <glyph glyph-name="periodcentered" unicode="&#xb7;" horiz-adv-x="280" 
d="M87.5 293.5q-22.5 23.5 -22.5 56.5t22.5 56.5t52.5 23.5t52.5 -23.5t22.5 -56.5t-22.5 -56.5t-52.5 -23.5t-52.5 23.5z" />
    <glyph glyph-name="cedilla" unicode="&#xb8;" horiz-adv-x="201" 
d="M37 -198l-17 3v30q6 -4 10 -5q12 -5 26 -5q23 0 36.5 13.5t13.5 36.5t-14.5 36.5t-40.5 13.5v75h35v-50q43 0 69 -22t26 -53q0 -32 -27 -53.5t-78 -21.5q-17 0 -39 2z" />
    <glyph glyph-name="uni00B9" unicode="&#xb9;" horiz-adv-x="285" 
d="M65 370v15l40 10v225l-60 -45l-15 15l110 110h75v-305l40 -10v-15h-190z" />
    <glyph glyph-name="ordmasculine" unicode="&#xba;" horiz-adv-x="390" 
d="M110.5 382q-37.5 22 -59 61.5t-21.5 91.5t21.5 91.5t59 61.5t84.5 22t84.5 -22t59 -61.5t21.5 -91.5t-21.5 -91.5t-59 -61.5t-84.5 -22t-84.5 22zM234 415q16 35 16 120t-16 120t-39 35t-39 -35t-16 -120t16 -120t39 -35t39 35z" />
    <glyph glyph-name="guillemotright" unicode="&#xbb;" horiz-adv-x="440" 
d="M165 20l-25 25l185 205l-185 205l25 25l260 -230zM55 75l-25 25l120 150l-120 150l25 25l190 -175z" />
    <glyph glyph-name="onequarter" unicode="&#xbc;" horiz-adv-x="687" 
d="M55 370v15l40 10v225l-60 -45l-15 15l110 110h75v-305l40 -10v-15h-190zM75 0l515 700h55l-515 -700h-55zM445 0v15l40 10v50h-145l-15 25l210 230h60v-225h62v-30h-62v-50l40 -10v-15h-190zM365 105h120v130z" />
    <glyph glyph-name="onehalf" unicode="&#xbd;" horiz-adv-x="705" 
d="M55 370v15l40 10v225l-60 -45l-15 15l110 110h75v-305l40 -10v-15h-190zM65 0l515 700h55l-515 -700h-55zM390 30q0 28 12.5 49.5t29.5 36t48 35.5q43 28 64 50.5t21 58.5q0 25 -15.5 42.5t-34.5 17.5q-8 0 -16 -1.5t-11 -1.5l-13 -2v-100l-10 -3q-14 -2 -25 -2
q-23 0 -36.5 13.5t-13.5 36.5q0 34 36 57t109 23q68 0 104 -28t36 -72q0 -34 -19 -57.5t-47 -38t-75 -33.5q-45 -18 -71.5 -32t-42.5 -34h190q3 26 22 57q8 13 18 23h20v-125h-280v30z" />
    <glyph glyph-name="threequarters" unicode="&#xbe;" horiz-adv-x="707" 
d="M66 383q-36 23 -36 57q0 23 13.5 36.5t36.5 13.5q8 0 15 -1.5t10 -1.5l10 -2v-100l13 -3q16 -2 27 -2q30 0 47.5 19.5t17.5 55.5q0 37 -16.5 56t-43.5 19h-26v20h26q17 0 31 19t14 51t-14 51t-31 19q-8 0 -16 -1.5t-11 -1.5l-13 -2v-100l-10 -3q-14 -2 -25 -2
q-23 0 -36.5 13.5t-13.5 36.5q0 34 36 57t109 23q64 0 99.5 -26.5t35.5 -63.5q0 -26 -15 -42t-40 -26q-26 -11 -55 -12q37 -3 62 -13q63 -22 63 -72q0 -41 -39 -68t-116 -27q-73 0 -109 23zM105 0l515 700h55l-515 -700h-55zM465 0v15l40 10v50h-145l-15 25l210 230h60v-225
h62v-30h-62v-50l40 -10v-15h-190zM385 105h120v130z" />
    <glyph glyph-name="questiondown" unicode="&#xbf;" 
d="M262.5 373.5q-22.5 23.5 -22.5 56.5t22.5 56.5t52.5 23.5t52.5 -23.5t22.5 -56.5t-22.5 -56.5t-52.5 -23.5t-52.5 23.5zM109.5 -158q-74.5 57 -74.5 148q0 85 62.5 141t187.5 74l5 80h40l5 -95q-61 -24 -93 -70t-32 -130q0 -96 34.5 -138t105.5 -42q33 0 59 7q20 7 21 8
v160l12 2q21 3 28 3q34 0 54.5 -20.5t20.5 -54.5q0 -32 -24.5 -62t-73 -49t-117.5 -19q-146 0 -220.5 57z" />
    <glyph glyph-name="Agrave" unicode="&#xc0;" horiz-adv-x="680" 
d="M-20 15l80 30l275 665h30l285 -680l50 -15v-15h-120q-52 0 -85 23.5t-49 61.5l-51 120h-239l-66 -160l75 -30v-15h-185v15zM166 230h219l-110 263zM339 750l-135 150h130l40 -150h-35z" />
    <glyph glyph-name="Aacute" unicode="&#xc1;" horiz-adv-x="680" 
d="M-20 15l80 30l275 665h30l285 -680l50 -15v-15h-120q-52 0 -85 23.5t-49 61.5l-51 120h-239l-66 -160l75 -30v-15h-185v15zM166 230h219l-110 263zM322 750l40 150h130l-135 -150h-35z" />
    <glyph glyph-name="Acircumflex" unicode="&#xc2;" horiz-adv-x="680" 
d="M-20 15l80 30l275 665h30l285 -680l50 -15v-15h-120q-52 0 -85 23.5t-49 61.5l-51 120h-239l-66 -160l75 -30v-15h-185v15zM166 230h219l-110 263zM205 750l145 165l145 -165h-35l-110 70l-110 -70h-35z" />
    <glyph glyph-name="Atilde" unicode="&#xc3;" horiz-adv-x="680" 
d="M-20 15l80 30l275 665h30l285 -680l50 -15v-15h-120q-52 0 -85 23.5t-49 61.5l-51 120h-239l-66 -160l75 -30v-15h-185v15zM166 230h219l-110 263zM359 787.5q-16 7.5 -35 21.5q-14 11 -24.5 16t-22.5 5q-19 0 -32 -13t-13 -32h-20q0 58 23.5 86.5t66.5 28.5
q22 0 38 -7.5t35 -21.5q14 -10 24.5 -15.5t22.5 -5.5q19 0 32 13t13 32h20q0 -58 -23.5 -86.5t-66.5 -28.5q-22 0 -38 7.5z" />
    <glyph glyph-name="Adieresis" unicode="&#xc4;" horiz-adv-x="680" 
d="M-20 15l80 30l275 665h30l285 -680l50 -15v-15h-120q-52 0 -85 23.5t-49 61.5l-51 120h-239l-66 -160l75 -30v-15h-185v15zM166 230h219l-110 263zM207 780q-20 20 -20 50t20 50t50 20t50 -20t20 -50t-20 -50t-50 -20t-50 20zM392 780q-20 20 -20 50t20 50t50 20t50 -20
t20 -50t-20 -50t-50 -20t-50 20z" />
    <glyph glyph-name="Aring" unicode="&#xc5;" horiz-adv-x="680" 
d="M-20 15l80 30l275 665h30l285 -680l50 -15v-15h-120q-52 0 -85 23.5t-49 61.5l-51 120h-239l-66 -160l75 -30v-15h-185v15zM166 230h219l-110 263zM275 779q-30 29 -30 71t30 71t75 29t75 -29t30 -71t-30 -71t-75 -29t-75 29zM389.5 803q15.5 18 15.5 47t-15.5 47
t-39.5 18t-39.5 -18t-15.5 -47t15.5 -47t39.5 -18t39.5 18z" />
    <glyph glyph-name="AE" unicode="&#xc6;" horiz-adv-x="991" 
d="M-30 15l80 30l366 655h514v-180h-30q-19 15 -33 38q-32 54 -32 117h-205v-315h105q7 38 26 71q8 15 19 29h30v-225h-30q-11 14 -19 29q-19 33 -26 71h-105v-310h225q0 63 32 117q14 23 33 38h30v-180h-545v15l60 15v235h-257l-122 -220l75 -30v-15h-191v15zM223 290h242
v385h-27z" />
    <glyph glyph-name="Ccedilla" unicode="&#xc7;" horiz-adv-x="650" 
d="M324 -198l-17 3v30q6 -4 10 -5q12 -5 26 -5q23 0 36.5 13.5t13.5 36.5t-14.5 36.5t-40.5 13.5v63q-139 13 -216 106t-77 256q0 115 39.5 197.5t111 125t165.5 42.5q57 0 115 -33q22 -12 44 -32q17 26 35 41q18 13 20 14h25v-190h-40q-13 48 -39 87q-24 38 -59.5 63
t-81.5 25q-69 0 -114.5 -80t-45.5 -260q0 -183 49.5 -261.5t135.5 -78.5q47 0 89.5 26.5t69 70.5t26.5 93h25q0 -57 -30.5 -106.5t-83 -79t-116.5 -29.5h-12v-35q43 0 69 -22t26 -53q0 -32 -27 -53.5t-78 -21.5q-17 0 -39 2z" />
    <glyph glyph-name="Egrave" unicode="&#xc8;" horiz-adv-x="645" 
d="M50 15l60 15v640l-60 15v15h535v-180h-30q-19 15 -33 38q-32 54 -32 117h-215v-315h115q7 38 26 71q8 15 19 29h30v-225h-30q-11 14 -19 29q-19 33 -26 71h-115v-310h235q0 63 32 117q14 23 33 38h30v-180h-555v15zM352 750l-135 150h130l40 -150h-35z" />
    <glyph glyph-name="Eacute" unicode="&#xc9;" horiz-adv-x="645" 
d="M50 15l60 15v640l-60 15v15h535v-180h-30q-19 15 -33 38q-32 54 -32 117h-215v-315h115q7 38 26 71q8 15 19 29h30v-225h-30q-11 14 -19 29q-19 33 -26 71h-115v-310h235q0 63 32 117q14 23 33 38h30v-180h-555v15zM335 750l40 150h130l-135 -150h-35z" />
    <glyph glyph-name="Ecircumflex" unicode="&#xca;" horiz-adv-x="645" 
d="M50 15l60 15v640l-60 15v15h535v-180h-30q-19 15 -33 38q-32 54 -32 117h-215v-315h115q7 38 26 71q8 15 19 29h30v-225h-30q-11 14 -19 29q-19 33 -26 71h-115v-310h235q0 63 32 117q14 23 33 38h30v-180h-555v15zM218 750l145 165l145 -165h-35l-110 70l-110 -70h-35z
" />
    <glyph glyph-name="Edieresis" unicode="&#xcb;" horiz-adv-x="645" 
d="M50 15l60 15v640l-60 15v15h535v-180h-30q-19 15 -33 38q-32 54 -32 117h-215v-315h115q7 38 26 71q8 15 19 29h30v-225h-30q-11 14 -19 29q-19 33 -26 71h-115v-310h235q0 63 32 117q14 23 33 38h30v-180h-555v15zM220 780q-20 20 -20 50t20 50t50 20t50 -20t20 -50
t-20 -50t-50 -20t-50 20zM405 780q-20 20 -20 50t20 50t50 20t50 -20t20 -50t-20 -50t-50 -20t-50 20z" />
    <glyph glyph-name="Igrave" unicode="&#xcc;" horiz-adv-x="385" 
d="M50 0v15l60 15v640l-60 15v15h285v-15l-60 -15v-640l60 -15v-15h-285zM182 750l-135 150h130l40 -150h-35z" />
    <glyph glyph-name="Iacute" unicode="&#xcd;" horiz-adv-x="385" 
d="M50 0v15l60 15v640l-60 15v15h285v-15l-60 -15v-640l60 -15v-15h-285zM165 750l40 150h130l-135 -150h-35z" />
    <glyph glyph-name="Icircumflex" unicode="&#xce;" horiz-adv-x="385" 
d="M50 0v15l60 15v640l-60 15v15h285v-15l-60 -15v-640l60 -15v-15h-285zM48 750l145 165l145 -165h-35l-110 70l-110 -70h-35z" />
    <glyph glyph-name="Idieresis" unicode="&#xcf;" horiz-adv-x="385" 
d="M50 0v15l60 15v640l-60 15v15h285v-15l-60 -15v-640l60 -15v-15h-285zM50 780q-20 20 -20 50t20 50t50 20t50 -20t20 -50t-20 -50t-50 -20t-50 20zM235 780q-20 20 -20 50t20 50t50 20t50 -20t20 -50t-20 -50t-50 -20t-50 20z" />
    <glyph glyph-name="Eth" unicode="&#xd0;" horiz-adv-x="715" 
d="M55 15l60 15v310h-65v30h65v300l-60 15v15h255q179 0 274.5 -92t95.5 -258t-95.5 -258t-274.5 -92h-255v15zM310 25q93 0 144 75.5t51 249.5t-51 249.5t-144 75.5h-30v-305h120v-30h-120v-315h30z" />
    <glyph glyph-name="Ntilde" unicode="&#xd1;" horiz-adv-x="740" 
d="M140 530v-485l80 -30v-15h-190v15l80 30v620l-70 20v15h105q53 0 83 -19t57 -51l320 -375v400l-80 30v15h190v-15l-80 -30v-670h-30zM379 787.5q-16 7.5 -35 21.5q-14 11 -24.5 16t-22.5 5q-19 0 -32 -13t-13 -32h-20q0 58 23.5 86.5t66.5 28.5q22 0 38 -7.5t35 -21.5
q14 -10 24.5 -15.5t22.5 -5.5q19 0 32 13t13 32h20q0 -58 -23.5 -86.5t-66.5 -28.5q-22 0 -38 7.5z" />
    <glyph glyph-name="Ograve" unicode="&#xd2;" horiz-adv-x="740" 
d="M198.5 27.5q-73.5 42.5 -113.5 124.5t-40 198t40 198t113.5 124.5t171.5 42.5t171.5 -42.5t113.5 -124.5t40 -198t-40 -198t-113.5 -124.5t-171.5 -42.5t-171.5 42.5zM442.5 38q33.5 33 55.5 110t22 202t-22 202t-55.5 110t-72.5 33t-72.5 -33t-55.5 -110t-22 -202
t22 -202t55.5 -110t72.5 -33t72.5 33zM359 750l-135 150h130l40 -150h-35z" />
    <glyph glyph-name="Oacute" unicode="&#xd3;" horiz-adv-x="740" 
d="M198.5 27.5q-73.5 42.5 -113.5 124.5t-40 198t40 198t113.5 124.5t171.5 42.5t171.5 -42.5t113.5 -124.5t40 -198t-40 -198t-113.5 -124.5t-171.5 -42.5t-171.5 42.5zM442.5 38q33.5 33 55.5 110t22 202t-22 202t-55.5 110t-72.5 33t-72.5 -33t-55.5 -110t-22 -202
t22 -202t55.5 -110t72.5 -33t72.5 33zM342 750l40 150h130l-135 -150h-35z" />
    <glyph glyph-name="Ocircumflex" unicode="&#xd4;" horiz-adv-x="740" 
d="M198.5 27.5q-73.5 42.5 -113.5 124.5t-40 198t40 198t113.5 124.5t171.5 42.5t171.5 -42.5t113.5 -124.5t40 -198t-40 -198t-113.5 -124.5t-171.5 -42.5t-171.5 42.5zM442.5 38q33.5 33 55.5 110t22 202t-22 202t-55.5 110t-72.5 33t-72.5 -33t-55.5 -110t-22 -202
t22 -202t55.5 -110t72.5 -33t72.5 33zM225 750l145 165l145 -165h-35l-110 70l-110 -70h-35z" />
    <glyph glyph-name="Otilde" unicode="&#xd5;" horiz-adv-x="740" 
d="M198.5 27.5q-73.5 42.5 -113.5 124.5t-40 198t40 198t113.5 124.5t171.5 42.5t171.5 -42.5t113.5 -124.5t40 -198t-40 -198t-113.5 -124.5t-171.5 -42.5t-171.5 42.5zM442.5 38q33.5 33 55.5 110t22 202t-22 202t-55.5 110t-72.5 33t-72.5 -33t-55.5 -110t-22 -202
t22 -202t55.5 -110t72.5 -33t72.5 33zM379 787.5q-16 7.5 -35 21.5q-14 11 -24.5 16t-22.5 5q-19 0 -32 -13t-13 -32h-20q0 58 23.5 86.5t66.5 28.5q22 0 38 -7.5t35 -21.5q14 -10 24.5 -15.5t22.5 -5.5q19 0 32 13t13 32h20q0 -58 -23.5 -86.5t-66.5 -28.5q-22 0 -38 7.5z
" />
    <glyph glyph-name="Odieresis" unicode="&#xd6;" horiz-adv-x="740" 
d="M198.5 27.5q-73.5 42.5 -113.5 124.5t-40 198t40 198t113.5 124.5t171.5 42.5t171.5 -42.5t113.5 -124.5t40 -198t-40 -198t-113.5 -124.5t-171.5 -42.5t-171.5 42.5zM442.5 38q33.5 33 55.5 110t22 202t-22 202t-55.5 110t-72.5 33t-72.5 -33t-55.5 -110t-22 -202
t22 -202t55.5 -110t72.5 -33t72.5 33zM227 780q-20 20 -20 50t20 50t50 20t50 -20t20 -50t-20 -50t-50 -20t-50 20zM412 780q-20 20 -20 50t20 50t50 20t50 -20t20 -50t-20 -50t-50 -20t-50 20z" />
    <glyph glyph-name="multiply" unicode="&#xd7;" horiz-adv-x="406" 
d="M62 167l-32 31l141 142l-141 141l32 32l141 -141l141 141l32 -32l-141 -141l141 -142l-32 -31l-141 141z" />
    <glyph glyph-name="Oslash" unicode="&#xd8;" horiz-adv-x="740" 
d="M163 56l-43 -56h-35l57 75q-46 49 -71.5 118t-25.5 157q0 116 40 198t113.5 124.5t171.5 42.5q124 0 207 -71l43 56h35l-58 -76q98 -103 98 -274q0 -116 -40 -198t-113.5 -124.5t-171.5 -42.5q-124 0 -207 71zM500 543q-20 79 -55 115.5t-75 36.5q-39 0 -72.5 -33
t-55.5 -110t-22 -202q0 -93 12 -158zM442.5 38q33.5 33 55.5 110t22 202q0 83 -12 157l-269 -351q19 -79 54.5 -115t76.5 -36q39 0 72.5 33z" />
    <glyph glyph-name="Ugrave" unicode="&#xd9;" horiz-adv-x="710" 
d="M171 54.5q-76 69.5 -76 195.5v420l-60 15v15h285v-15l-60 -15v-420q0 -129 40 -184.5t115 -55.5q46 0 87.5 29.5t67 84t25.5 126.5v405l-80 30v15h190v-15l-80 -30v-405q0 -81 -30 -141t-82 -92t-118 -32q-148 0 -224 69.5zM404 750l-135 150h130l40 -150h-35z" />
    <glyph glyph-name="Uacute" unicode="&#xda;" horiz-adv-x="710" 
d="M171 54.5q-76 69.5 -76 195.5v420l-60 15v15h285v-15l-60 -15v-420q0 -129 40 -184.5t115 -55.5q46 0 87.5 29.5t67 84t25.5 126.5v405l-80 30v15h190v-15l-80 -30v-405q0 -81 -30 -141t-82 -92t-118 -32q-148 0 -224 69.5zM387 750l40 150h130l-135 -150h-35z" />
    <glyph glyph-name="Ucircumflex" unicode="&#xdb;" horiz-adv-x="710" 
d="M171 54.5q-76 69.5 -76 195.5v420l-60 15v15h285v-15l-60 -15v-420q0 -129 40 -184.5t115 -55.5q46 0 87.5 29.5t67 84t25.5 126.5v405l-80 30v15h190v-15l-80 -30v-405q0 -81 -30 -141t-82 -92t-118 -32q-148 0 -224 69.5zM270 750l145 165l145 -165h-35l-110 70
l-110 -70h-35z" />
    <glyph glyph-name="Udieresis" unicode="&#xdc;" horiz-adv-x="710" 
d="M171 54.5q-76 69.5 -76 195.5v420l-60 15v15h285v-15l-60 -15v-420q0 -129 40 -184.5t115 -55.5q46 0 87.5 29.5t67 84t25.5 126.5v405l-80 30v15h190v-15l-80 -30v-405q0 -81 -30 -141t-82 -92t-118 -32q-148 0 -224 69.5zM272 780q-20 20 -20 50t20 50t50 20t50 -20
t20 -50t-20 -50t-50 -20t-50 20zM457 780q-20 20 -20 50t20 50t50 20t50 -20t20 -50t-20 -50t-50 -20t-50 20z" />
    <glyph glyph-name="Yacute" unicode="&#xdd;" horiz-adv-x="665" 
d="M195 15l60 15v230l-205 410l-50 15v15h125q52 0 83.5 -22t51.5 -63l148 -295l152 335l-75 30v15h190v-15l-80 -30l-175 -385v-240l60 -15v-15h-285v15zM305 750l40 150h130l-135 -150h-35z" />
    <glyph glyph-name="Thorn" unicode="&#xde;" horiz-adv-x="700" 
d="M50 15l60 15v640l-60 15v15h285v-15l-60 -15v-60h45q117 0 195.5 -33t116.5 -91.5t38 -135.5t-38 -135.5t-116.5 -91.5t-195.5 -33h-45v-60l60 -15v-15h-285v15zM320 115q49 0 88.5 27t63 80t23.5 128t-23.5 128t-63 80t-88.5 27h-45v-470h45z" />
    <glyph glyph-name="germandbls" unicode="&#xdf;" horiz-adv-x="690" 
d="M414 7q-15 12 -24 23q-14 -20 -35 -29q-11 -5 -20 -6h-25v170h40q13 -41 32 -78q41 -77 88 -77q17 0 28.5 17t11.5 53q0 42 -22 69.5t-68 63.5q-33 26 -53 45.5t-33.5 47.5t-13.5 64q0 37 11 61.5t33 53.5q20 27 30.5 49.5t10.5 55.5q0 47 -21.5 73.5t-53.5 26.5
q-38 0 -59 -41t-21 -149v-500h-220v15l60 15v470q0 62 29 111t83.5 76.5t127.5 27.5q59 0 106 -22t73 -56t26 -67q0 -40 -9 -64.5t-26 -53.5q-13 -22 -19 -36.5t-6 -35.5q0 -30 20 -51t63 -51q35 -24 56 -42t36 -44.5t15 -61.5q0 -66 -45 -105.5t-130 -39.5q-44 0 -76 22z
" />
    <glyph glyph-name="agrave" unicode="&#xe0;" horiz-adv-x="605" 
d="M98 23q-48 38 -48 97q0 39 17 77q7 18 18 33q41 10 89 18q108 18 191 22v30q0 111 -27 153t-83 42q-21 0 -36 -5l-14 -5v-150l-13 -3q-16 -2 -27 -2q-34 0 -54.5 20.5t-20.5 54.5q0 46 46.5 78t138.5 32q78 0 134.5 -27.5t86 -76t29.5 -111.5v-270l60 -15v-15h-90
q-60 0 -93 37q-14 15 -22 38q-14 -25 -33 -45q-45 -45 -112 -45q-89 0 -137 38zM342 60q11 15 23 40v145q-46 0 -88 -5q-31 -4 -42 -5q-5 -11 -10 -30q-10 -38 -10 -75q0 -56 17 -83t43 -27q37 0 67 40zM292 550l-135 150h130l40 -150h-35z" />
    <glyph glyph-name="aacute" unicode="&#xe1;" horiz-adv-x="605" 
d="M98 23q-48 38 -48 97q0 39 17 77q7 18 18 33q41 10 89 18q108 18 191 22v30q0 111 -27 153t-83 42q-21 0 -36 -5l-14 -5v-150l-13 -3q-16 -2 -27 -2q-34 0 -54.5 20.5t-20.5 54.5q0 46 46.5 78t138.5 32q78 0 134.5 -27.5t86 -76t29.5 -111.5v-270l60 -15v-15h-90
q-60 0 -93 37q-14 15 -22 38q-14 -25 -33 -45q-45 -45 -112 -45q-89 0 -137 38zM342 60q11 15 23 40v145q-46 0 -88 -5q-31 -4 -42 -5q-5 -11 -10 -30q-10 -38 -10 -75q0 -56 17 -83t43 -27q37 0 67 40zM275 550l40 150h130l-135 -150h-35z" />
    <glyph glyph-name="acircumflex" unicode="&#xe2;" horiz-adv-x="605" 
d="M98 23q-48 38 -48 97q0 39 17 77q7 18 18 33q41 10 89 18q108 18 191 22v30q0 111 -27 153t-83 42q-21 0 -36 -5l-14 -5v-150l-13 -3q-16 -2 -27 -2q-34 0 -54.5 20.5t-20.5 54.5q0 46 46.5 78t138.5 32q78 0 134.5 -27.5t86 -76t29.5 -111.5v-270l60 -15v-15h-90
q-60 0 -93 37q-14 15 -22 38q-14 -25 -33 -45q-45 -45 -112 -45q-89 0 -137 38zM342 60q11 15 23 40v145q-46 0 -88 -5q-31 -4 -42 -5q-5 -11 -10 -30q-10 -38 -10 -75q0 -56 17 -83t43 -27q37 0 67 40zM158 550l145 165l145 -165h-35l-110 70l-110 -70h-35z" />
    <glyph glyph-name="atilde" unicode="&#xe3;" horiz-adv-x="605" 
d="M98 23q-48 38 -48 97q0 39 17 77q7 18 18 33q41 10 89 18q108 18 191 22v30q0 111 -27 153t-83 42q-21 0 -36 -5l-14 -5v-150l-13 -3q-16 -2 -27 -2q-34 0 -54.5 20.5t-20.5 54.5q0 46 46.5 78t138.5 32q78 0 134.5 -27.5t86 -76t29.5 -111.5v-270l60 -15v-15h-90
q-60 0 -93 37q-14 15 -22 38q-14 -25 -33 -45q-45 -45 -112 -45q-89 0 -137 38zM342 60q11 15 23 40v145q-46 0 -88 -5q-31 -4 -42 -5q-5 -11 -10 -30q-10 -38 -10 -75q0 -56 17 -83t43 -27q37 0 67 40zM312 587.5q-16 7.5 -35 21.5q-14 11 -24.5 16t-22.5 5q-19 0 -32 -13
t-13 -32h-20q0 58 23.5 86.5t66.5 28.5q22 0 38 -7.5t35 -21.5q14 -10 24.5 -15.5t22.5 -5.5q19 0 32 13t13 32h20q0 -58 -23.5 -86.5t-66.5 -28.5q-22 0 -38 7.5z" />
    <glyph glyph-name="adieresis" unicode="&#xe4;" horiz-adv-x="605" 
d="M98 23q-48 38 -48 97q0 39 17 77q7 18 18 33q41 10 89 18q108 18 191 22v30q0 111 -27 153t-83 42q-21 0 -36 -5l-14 -5v-150l-13 -3q-16 -2 -27 -2q-34 0 -54.5 20.5t-20.5 54.5q0 46 46.5 78t138.5 32q78 0 134.5 -27.5t86 -76t29.5 -111.5v-270l60 -15v-15h-90
q-60 0 -93 37q-14 15 -22 38q-14 -25 -33 -45q-45 -45 -112 -45q-89 0 -137 38zM342 60q11 15 23 40v145q-46 0 -88 -5q-31 -4 -42 -5q-5 -11 -10 -30q-10 -38 -10 -75q0 -56 17 -83t43 -27q37 0 67 40zM160 580q-20 20 -20 50t20 50t50 20t50 -20t20 -50t-20 -50t-50 -20
t-50 20zM345 580q-20 20 -20 50t20 50t50 20t50 -20t20 -50t-20 -50t-50 -20t-50 20z" />
    <glyph glyph-name="aring" unicode="&#xe5;" horiz-adv-x="605" 
d="M98 23q-48 38 -48 97q0 39 17 77q7 18 18 33q41 10 89 18q108 18 191 22v30q0 111 -27 153t-83 42q-21 0 -36 -5l-14 -5v-150l-13 -3q-16 -2 -27 -2q-34 0 -54.5 20.5t-20.5 54.5q0 46 46.5 78t138.5 32q78 0 134.5 -27.5t86 -76t29.5 -111.5v-270l60 -15v-15h-90
q-60 0 -93 37q-14 15 -22 38q-14 -25 -33 -45q-45 -45 -112 -45q-89 0 -137 38zM342 60q11 15 23 40v145q-46 0 -88 -5q-31 -4 -42 -5q-5 -11 -10 -30q-10 -38 -10 -75q0 -56 17 -83t43 -27q37 0 67 40zM228 579q-30 29 -30 71t30 71t75 29t75 -29t30 -71t-30 -71t-75 -29
t-75 29zM342.5 603q15.5 18 15.5 47t-15.5 47t-39.5 18t-39.5 -18t-15.5 -47t15.5 -47t39.5 -18t39.5 18z" />
    <glyph glyph-name="ae" unicode="&#xe6;" horiz-adv-x="880" 
d="M101 22.5q-51 37.5 -51 97.5q0 36 17 72q7 14 18 28q41 10 89 18q108 18 191 22v40q0 111 -27 153t-83 42q-21 0 -36 -5l-14 -5v-150l-13 -3q-16 -2 -27 -2q-34 0 -54.5 20.5t-20.5 54.5q0 46 46.5 78t138.5 32q81 0 136 -45q24 -20 39 -45q13 24 37 45q53 45 128 45
q68 0 120 -27t81 -72.5t29 -100.5q0 -21 -5 -36l-5 -14q-43 -9 -93 -15q-105 -15 -212 -15v-22q2 -111 33 -157t87 -46q39 0 72.5 18.5t53 49t19.5 62.5h25q0 -40 -24 -76t-67 -57.5t-99 -21.5q-86 0 -141 47q-26 21 -39 48q-22 -28 -49 -48q-65 -47 -146 -47
q-103 0 -154 37.5zM634 265q17 1 36 5q1 7 5 21q5 20 5 44q0 83 -22 121.5t-53 38.5q-32 0 -52.5 -49.5t-22.5 -180.5v-5q64 0 104 5zM346 57q11 19 19 48v130q-46 0 -88 -5q-31 -4 -42 -5q-5 -11 -10 -30q-10 -38 -10 -75q0 -56 17 -83t43 -27q42 0 71 47z" />
    <glyph glyph-name="ccedilla" unicode="&#xe7;" horiz-adv-x="530" 
d="M256 -198l-17 3v30q6 -4 10 -5q12 -5 26 -5q23 0 36.5 13.5t13.5 36.5t-14.5 36.5t-40.5 13.5v62q-109 10 -169.5 79.5t-60.5 183.5q0 124 71 194.5t199 70.5q92 0 138.5 -32t46.5 -78q0 -34 -20.5 -54.5t-54.5 -20.5q-14 0 -28 2l-12 3v150l-14 5q-15 5 -36 5
q-57 0 -88.5 -54t-31.5 -191q0 -133 31.5 -186.5t88.5 -53.5q39 0 72.5 18.5t53 49t19.5 62.5h25q0 -40 -24 -76t-67 -57.5t-99 -21.5h-5v-35q43 0 69 -22t26 -53q0 -32 -27 -53.5t-78 -21.5q-17 0 -39 2z" />
    <glyph glyph-name="egrave" unicode="&#xe8;" 
d="M111 55.5q-71 70.5 -71 194.5q0 81 31 141t86.5 92t127.5 32t126.5 -27t84 -72.5t29.5 -100.5q0 -25 -5 -43l-5 -17q-43 -9 -93 -15q-105 -15 -212 -15q0 -116 32 -165.5t88 -49.5q39 0 72.5 18.5t53 49t19.5 62.5h25q0 -40 -24 -76t-67 -57.5t-99 -21.5
q-128 0 -199 70.5zM314 255q17 1 36 5q1 5 5 22q5 25 5 53q0 83 -22 121.5t-53 38.5q-75 0 -75 -245q64 0 104 5zM269 550l-135 150h130l40 -150h-35z" />
    <glyph glyph-name="eacute" unicode="&#xe9;" 
d="M111 55.5q-71 70.5 -71 194.5q0 81 31 141t86.5 92t127.5 32t126.5 -27t84 -72.5t29.5 -100.5q0 -25 -5 -43l-5 -17q-43 -9 -93 -15q-105 -15 -212 -15q0 -116 32 -165.5t88 -49.5q39 0 72.5 18.5t53 49t19.5 62.5h25q0 -40 -24 -76t-67 -57.5t-99 -21.5
q-128 0 -199 70.5zM314 255q17 1 36 5q1 5 5 22q5 25 5 53q0 83 -22 121.5t-53 38.5q-75 0 -75 -245q64 0 104 5zM252 550l40 150h130l-135 -150h-35z" />
    <glyph glyph-name="ecircumflex" unicode="&#xea;" 
d="M111 55.5q-71 70.5 -71 194.5q0 81 31 141t86.5 92t127.5 32t126.5 -27t84 -72.5t29.5 -100.5q0 -25 -5 -43l-5 -17q-43 -9 -93 -15q-105 -15 -212 -15q0 -116 32 -165.5t88 -49.5q39 0 72.5 18.5t53 49t19.5 62.5h25q0 -40 -24 -76t-67 -57.5t-99 -21.5
q-128 0 -199 70.5zM314 255q17 1 36 5q1 5 5 22q5 25 5 53q0 83 -22 121.5t-53 38.5q-75 0 -75 -245q64 0 104 5zM135 550l145 165l145 -165h-35l-110 70l-110 -70h-35z" />
    <glyph glyph-name="edieresis" unicode="&#xeb;" 
d="M111 55.5q-71 70.5 -71 194.5q0 81 31 141t86.5 92t127.5 32t126.5 -27t84 -72.5t29.5 -100.5q0 -25 -5 -43l-5 -17q-43 -9 -93 -15q-105 -15 -212 -15q0 -116 32 -165.5t88 -49.5q39 0 72.5 18.5t53 49t19.5 62.5h25q0 -40 -24 -76t-67 -57.5t-99 -21.5
q-128 0 -199 70.5zM314 255q17 1 36 5q1 5 5 22q5 25 5 53q0 83 -22 121.5t-53 38.5q-75 0 -75 -245q64 0 104 5zM137 580q-20 20 -20 50t20 50t50 20t50 -20t20 -50t-20 -50t-50 -20t-50 20zM322 580q-20 20 -20 50t20 50t50 20t50 -20t20 -50t-20 -50t-50 -20t-50 20z" />
    <glyph glyph-name="igrave" unicode="&#xec;" horiz-adv-x="340" 
d="M40 15l60 15v440l-60 15v15h130q90 0 90 -90v-380l60 -15v-15h-280v15zM159 550l-135 150h130l40 -150h-35z" />
    <glyph glyph-name="iacute" unicode="&#xed;" horiz-adv-x="340" 
d="M40 15l60 15v440l-60 15v15h130q90 0 90 -90v-380l60 -15v-15h-280v15zM142 550l40 150h130l-135 -150h-35z" />
    <glyph glyph-name="icircumflex" unicode="&#xee;" horiz-adv-x="340" 
d="M40 15l60 15v440l-60 15v15h130q90 0 90 -90v-380l60 -15v-15h-280v15zM25 550l145 165l145 -165h-35l-110 70l-110 -70h-35z" />
    <glyph glyph-name="idieresis" unicode="&#xef;" horiz-adv-x="340" 
d="M40 15l60 15v440l-60 15v15h130q90 0 90 -90v-380l60 -15v-15h-280v15zM27 580q-20 20 -20 50t20 50t50 20t50 -20t20 -50t-20 -50t-50 -20t-50 20zM212 580q-20 20 -20 50t20 50t50 20t50 -20t20 -50t-20 -50t-50 -20t-50 20z" />
    <glyph glyph-name="eth" unicode="&#xf0;" horiz-adv-x="605" 
d="M158.5 16q-59.5 31 -91.5 86.5t-32 127.5t30 127.5t84 86.5t121 31q57 0 103 -38q15 -13 32 -37q-4 66 -25.5 115t-59.5 90l-41 -75l-21 13l44 80q-69 57 -165 57v20q103 0 190 -31l40 73l21 -13l-38 -70q104 -46 159.5 -143.5t55.5 -245.5q0 -138 -70 -211.5t-196 -73.5
q-81 0 -140.5 31zM367 57.5q28 52.5 28 172.5v10q0 112 -29.5 163.5t-76.5 51.5q-19 0 -38.5 -21.5t-32.5 -72t-13 -131.5q0 -120 27.5 -172.5t66.5 -52.5q40 0 68 52.5z" />
    <glyph glyph-name="ntilde" unicode="&#xf1;" horiz-adv-x="665" 
d="M40 15l60 15v440l-60 15v15h90q59 0 93 -38q13 -15 22 -37q14 26 33 45q45 45 112 45q56 0 100.5 -23.5t69.5 -61.5t25 -80v-320l60 -15v-15h-130q-90 0 -90 90v260q0 63 -22.5 96.5t-52.5 33.5q-38 0 -68 -40q-13 -17 -22 -40v-370l60 -15v-15h-280v15zM362 587.5
q-16 7.5 -35 21.5q-14 11 -24.5 16t-22.5 5q-19 0 -32 -13t-13 -32h-20q0 58 23.5 86.5t66.5 28.5q22 0 38 -7.5t35 -21.5q14 -10 24.5 -15.5t22.5 -5.5q19 0 32 13t13 32h20q0 -58 -23.5 -86.5t-66.5 -28.5q-22 0 -38 7.5z" />
    <glyph glyph-name="ograve" unicode="&#xf2;" horiz-adv-x="610" 
d="M110.5 55.5q-70.5 70.5 -70.5 194.5t70.5 194.5t194.5 70.5t194.5 -70.5t70.5 -194.5t-70.5 -194.5t-194.5 -70.5t-194.5 70.5zM372.5 61q27.5 56 27.5 189t-27.5 189t-67.5 56t-67.5 -56t-27.5 -189t27.5 -189t67.5 -56t67.5 56zM294 550l-135 150h130l40 -150h-35z" />
    <glyph glyph-name="oacute" unicode="&#xf3;" horiz-adv-x="610" 
d="M110.5 55.5q-70.5 70.5 -70.5 194.5t70.5 194.5t194.5 70.5t194.5 -70.5t70.5 -194.5t-70.5 -194.5t-194.5 -70.5t-194.5 70.5zM372.5 61q27.5 56 27.5 189t-27.5 189t-67.5 56t-67.5 -56t-27.5 -189t27.5 -189t67.5 -56t67.5 56zM277 550l40 150h130l-135 -150h-35z" />
    <glyph glyph-name="ocircumflex" unicode="&#xf4;" horiz-adv-x="610" 
d="M110.5 55.5q-70.5 70.5 -70.5 194.5t70.5 194.5t194.5 70.5t194.5 -70.5t70.5 -194.5t-70.5 -194.5t-194.5 -70.5t-194.5 70.5zM372.5 61q27.5 56 27.5 189t-27.5 189t-67.5 56t-67.5 -56t-27.5 -189t27.5 -189t67.5 -56t67.5 56zM160 550l145 165l145 -165h-35l-110 70
l-110 -70h-35z" />
    <glyph glyph-name="otilde" unicode="&#xf5;" horiz-adv-x="610" 
d="M110.5 55.5q-70.5 70.5 -70.5 194.5t70.5 194.5t194.5 70.5t194.5 -70.5t70.5 -194.5t-70.5 -194.5t-194.5 -70.5t-194.5 70.5zM372.5 61q27.5 56 27.5 189t-27.5 189t-67.5 56t-67.5 -56t-27.5 -189t27.5 -189t67.5 -56t67.5 56zM314 587.5q-16 7.5 -35 21.5
q-14 11 -24.5 16t-22.5 5q-19 0 -32 -13t-13 -32h-20q0 58 23.5 86.5t66.5 28.5q22 0 38 -7.5t35 -21.5q14 -10 24.5 -15.5t22.5 -5.5q19 0 32 13t13 32h20q0 -58 -23.5 -86.5t-66.5 -28.5q-22 0 -38 7.5z" />
    <glyph glyph-name="odieresis" unicode="&#xf6;" horiz-adv-x="610" 
d="M110.5 55.5q-70.5 70.5 -70.5 194.5t70.5 194.5t194.5 70.5t194.5 -70.5t70.5 -194.5t-70.5 -194.5t-194.5 -70.5t-194.5 70.5zM372.5 61q27.5 56 27.5 189t-27.5 189t-67.5 56t-67.5 -56t-27.5 -189t27.5 -189t67.5 -56t67.5 56zM162 580q-20 20 -20 50t20 50t50 20
t50 -20t20 -50t-20 -50t-50 -20t-50 20zM347 580q-20 20 -20 50t20 50t50 20t50 -20t20 -50t-20 -50t-50 -20t-50 20z" />
    <glyph glyph-name="divide" unicode="&#xf7;" horiz-adv-x="500" 
d="M197.5 462.5q-22.5 22.5 -22.5 52.5t22.5 52.5t52.5 22.5t52.5 -22.5t22.5 -52.5t-22.5 -52.5t-52.5 -22.5t-52.5 22.5zM30 310v45h440v-45h-440zM197.5 97.5q-22.5 22.5 -22.5 52.5t22.5 52.5t52.5 22.5t52.5 -22.5t22.5 -52.5t-22.5 -52.5t-52.5 -22.5t-52.5 22.5z" />
    <glyph glyph-name="oslash" unicode="&#xf8;" horiz-adv-x="610" 
d="M142 32l-27 -32h-35l41 49q-81 78 -81 201q0 124 70.5 194.5t194.5 70.5q96 0 163 -48l27 33h35l-41 -50q38 -35 59.5 -86t21.5 -114q0 -124 -70.5 -194.5t-194.5 -70.5q-98 0 -163 47zM391 374q-11 64 -34.5 92.5t-51.5 28.5q-40 0 -67.5 -56t-27.5 -189q0 -53 4 -89z
M372.5 61q27.5 56 27.5 189q0 55 -4 88l-177 -213q11 -65 34 -92.5t52 -27.5q40 0 67.5 56z" />
    <glyph glyph-name="ugrave" unicode="&#xf9;" horiz-adv-x="650" 
d="M179.5 8.5q-44.5 23.5 -69.5 61.5t-25 80v320l-60 15v15h130q90 0 90 -90v-260q0 -63 22.5 -96.5t52.5 -33.5q37 0 67 40q11 15 23 40v370l-60 15v15h280v-15l-60 -15v-475h-10q-73 0 -111 40q-17 18 -24 40q-14 -25 -33 -45q-45 -45 -112 -45q-56 0 -100.5 23.5z
M314 550l-135 150h130l40 -150h-35z" />
    <glyph glyph-name="uacute" unicode="&#xfa;" horiz-adv-x="650" 
d="M179.5 8.5q-44.5 23.5 -69.5 61.5t-25 80v320l-60 15v15h130q90 0 90 -90v-260q0 -63 22.5 -96.5t52.5 -33.5q37 0 67 40q11 15 23 40v370l-60 15v15h280v-15l-60 -15v-475h-10q-73 0 -111 40q-17 18 -24 40q-14 -25 -33 -45q-45 -45 -112 -45q-56 0 -100.5 23.5z
M297 550l40 150h130l-135 -150h-35z" />
    <glyph glyph-name="ucircumflex" unicode="&#xfb;" horiz-adv-x="650" 
d="M179.5 8.5q-44.5 23.5 -69.5 61.5t-25 80v320l-60 15v15h130q90 0 90 -90v-260q0 -63 22.5 -96.5t52.5 -33.5q37 0 67 40q11 15 23 40v370l-60 15v15h280v-15l-60 -15v-475h-10q-73 0 -111 40q-17 18 -24 40q-14 -25 -33 -45q-45 -45 -112 -45q-56 0 -100.5 23.5z
M180 550l145 165l145 -165h-35l-110 70l-110 -70h-35z" />
    <glyph glyph-name="udieresis" unicode="&#xfc;" horiz-adv-x="650" 
d="M179.5 8.5q-44.5 23.5 -69.5 61.5t-25 80v320l-60 15v15h130q90 0 90 -90v-260q0 -63 22.5 -96.5t52.5 -33.5q37 0 67 40q11 15 23 40v370l-60 15v15h280v-15l-60 -15v-475h-10q-73 0 -111 40q-17 18 -24 40q-14 -25 -33 -45q-45 -45 -112 -45q-56 0 -100.5 23.5z
M182 580q-20 20 -20 50t20 50t50 20t50 -20t20 -50t-20 -50t-50 -20t-50 20zM367 580q-20 20 -20 50t20 50t50 20t50 -20t20 -50t-20 -50t-50 -20t-50 20z" />
    <glyph glyph-name="yacute" unicode="&#xfd;" 
d="M80 -191q-25 24 -25 66q0 38 20.5 59t54.5 21q8 0 16 -1.5t11 -1.5l13 -2v-135q29 5 51 32t49 93l20 50l-260 480l-50 15v15h125q52 0 82.5 -21.5t52.5 -63.5l125 -231l105 271l-75 30v15h185v-15l-80 -30l-200 -515q-32 -82 -68 -118.5t-82 -36.5q-45 0 -70 24zM252 550
l40 150h130l-135 -150h-35z" />
    <glyph glyph-name="thorn" unicode="&#xfe;" horiz-adv-x="625" 
d="M30 -185l60 15v840l-60 15v15h130q90 0 90 -90v-160q14 19 33 32q47 33 97 33q59 0 105 -30.5t73 -90t27 -144.5q0 -128 -59.5 -196.5t-160.5 -68.5q-48 0 -84 20q-15 7 -31 20v-195l60 -15v-15h-280v15zM391.5 65q23.5 50 23.5 185q0 129 -21.5 179.5t-53.5 50.5
q-34 0 -66 -40q-14 -19 -24 -40v-345q14 -14 22 -20q27 -20 53 -20q43 0 66.5 50z" />
    <glyph glyph-name="ydieresis" unicode="&#xff;" 
d="M80 -191q-25 24 -25 66q0 38 20.5 59t54.5 21q8 0 16 -1.5t11 -1.5l13 -2v-135q29 5 51 32t49 93l20 50l-260 480l-50 15v15h125q52 0 82.5 -21.5t52.5 -63.5l125 -231l105 271l-75 30v15h185v-15l-80 -30l-200 -515q-32 -82 -68 -118.5t-82 -36.5q-45 0 -70 24zM137 580
q-20 20 -20 50t20 50t50 20t50 -20t20 -50t-20 -50t-50 -20t-50 20zM322 580q-20 20 -20 50t20 50t50 20t50 -20t20 -50t-20 -50t-50 -20t-50 20z" />
    <glyph glyph-name="Amacron" unicode="&#x100;" horiz-adv-x="680" 
d="M-20 15l80 30l275 665h30l285 -680l50 -15v-15h-120q-52 0 -85 23.5t-49 61.5l-51 120h-239l-66 -160l75 -30v-15h-185v15zM166 230h219l-110 263zM220 855v45h260v-45h-260z" />
    <glyph glyph-name="amacron" unicode="&#x101;" horiz-adv-x="605" 
d="M98 23q-48 38 -48 97q0 39 17 77q7 18 18 33q41 10 89 18q108 18 191 22v30q0 111 -27 153t-83 42q-21 0 -36 -5l-14 -5v-150l-13 -3q-16 -2 -27 -2q-34 0 -54.5 20.5t-20.5 54.5q0 46 46.5 78t138.5 32q78 0 134.5 -27.5t86 -76t29.5 -111.5v-270l60 -15v-15h-90
q-60 0 -93 37q-14 15 -22 38q-14 -25 -33 -45q-45 -45 -112 -45q-89 0 -137 38zM342 60q11 15 23 40v145q-46 0 -88 -5q-31 -4 -42 -5q-5 -11 -10 -30q-10 -38 -10 -75q0 -56 17 -83t43 -27q37 0 67 40zM173 655v45h260v-45h-260z" />
    <glyph glyph-name="Abreve" unicode="&#x102;" horiz-adv-x="680" 
d="M-20 15l80 30l275 665h30l285 -680l50 -15v-15h-120q-52 0 -85 23.5t-49 61.5l-51 120h-239l-66 -160l75 -30v-15h-185v15zM166 230h219l-110 263zM236.5 774q-36.5 24 -36.5 61q0 26 17 43t43 17q2 0 23 -3l12 -2v-110q1 0 14.5 -5t40.5 -5t40.5 5t14.5 5v110l12 2
q21 3 23 3q26 0 43 -17t17 -43q0 -37 -36.5 -61t-113.5 -24t-113.5 24z" />
    <glyph glyph-name="abreve" unicode="&#x103;" horiz-adv-x="605" 
d="M98 23q-48 38 -48 97q0 39 17 77q7 18 18 33q41 10 89 18q108 18 191 22v30q0 111 -27 153t-83 42q-21 0 -36 -5l-14 -5v-150l-13 -3q-16 -2 -27 -2q-34 0 -54.5 20.5t-20.5 54.5q0 46 46.5 78t138.5 32q78 0 134.5 -27.5t86 -76t29.5 -111.5v-270l60 -15v-15h-90
q-60 0 -93 37q-14 15 -22 38q-14 -25 -33 -45q-45 -45 -112 -45q-89 0 -137 38zM342 60q11 15 23 40v145q-46 0 -88 -5q-31 -4 -42 -5q-5 -11 -10 -30q-10 -38 -10 -75q0 -56 17 -83t43 -27q37 0 67 40zM189.5 574q-36.5 24 -36.5 61q0 26 17 43t43 17q2 0 23 -3l12 -2v-110
q1 0 14.5 -5t40.5 -5t40.5 5t14.5 5v110l12 2q21 3 23 3q26 0 43 -17t17 -43q0 -37 -36.5 -61t-113.5 -24t-113.5 24z" />
    <glyph glyph-name="Aogonek" unicode="&#x104;" horiz-adv-x="680" 
d="M547 -168.5q-27 21.5 -27 53.5q0 37 27.5 61.5t47 32.5t59.5 21h-74q-52 0 -85 23.5t-49 61.5l-51 120h-239l-66 -160l75 -30v-15h-185v15l80 30l275 665h30l285 -680l50 -15v-15q-28 -14 -48 -31q-47 -41 -47 -94q0 -40 40 -40q16 0 32 10q7 4 13 10v-30q-2 -1 -18 -8
q-18 -7 -47 -7q-51 0 -78 21.5zM166 230h219l-110 263z" />
    <glyph glyph-name="aogonek" unicode="&#x105;" horiz-adv-x="605" 
d="M432 -168.5q-27 21.5 -27 53.5q0 37 27.5 61.5t47 32.5t59.5 21h-44q-57 0 -83 26.5t-32 47.5q0 -5 -17.5 -27.5t-50 -42t-77.5 -19.5q-89 0 -137 38t-48 97q0 39 17 77q7 18 18 33q41 10 89 18q108 18 191 22v30q0 111 -27 153t-83 42q-21 0 -36 -5l-14 -5v-150l-13 -3
q-16 -2 -27 -2q-34 0 -54.5 20.5t-20.5 54.5q0 46 46.5 78t138.5 32q78 0 134.5 -27.5t86 -76t29.5 -111.5v-270l60 -15v-15q-28 -14 -48 -31q-47 -41 -47 -94q0 -40 40 -40q16 0 32 10q8 5 13 10v-30q-2 -1 -18 -8q-18 -7 -47 -7q-51 0 -78 21.5zM342 60q11 15 23 40v145
q-46 0 -88 -5q-31 -4 -42 -5q-5 -11 -10 -30q-10 -38 -10 -75q0 -56 17 -83t43 -27q37 0 67 40z" />
    <glyph glyph-name="Cacute" unicode="&#x106;" horiz-adv-x="650" 
d="M135 80q-90 95 -90 270q0 115 39.5 197.5t111 125t165.5 42.5q57 0 115 -33q22 -12 44 -32q17 26 35 41q18 13 20 14h25v-190h-40q-13 48 -39 87q-24 38 -59.5 63t-81.5 25q-69 0 -114.5 -80t-45.5 -260q0 -183 49.5 -261.5t135.5 -78.5q47 0 89.5 26.5t69 70.5t26.5 93
h25q0 -57 -30.5 -106.5t-83 -79t-116.5 -29.5q-160 0 -250 95zM337 750l40 150h130l-135 -150h-35z" />
    <glyph glyph-name="cacute" unicode="&#x107;" horiz-adv-x="530" 
d="M111 55.5q-71 70.5 -71 194.5t71 194.5t199 70.5q92 0 138.5 -32t46.5 -78q0 -34 -20.5 -54.5t-54.5 -20.5q-14 0 -28 2l-12 3v150l-14 5q-15 5 -36 5q-57 0 -88.5 -54t-31.5 -191q0 -133 31.5 -186.5t88.5 -53.5q39 0 72.5 18.5t53 49t19.5 62.5h25q0 -40 -24 -76
t-67 -57.5t-99 -21.5q-128 0 -199 70.5zM287 550l40 150h130l-135 -150h-35z" />
    <glyph glyph-name="Ccircumflex" unicode="&#x108;" horiz-adv-x="650" 
d="M135 80q-90 95 -90 270q0 115 39.5 197.5t111 125t165.5 42.5q57 0 115 -33q22 -12 44 -32q17 26 35 41q18 13 20 14h25v-190h-40q-13 48 -39 87q-24 38 -59.5 63t-81.5 25q-69 0 -114.5 -80t-45.5 -260q0 -183 49.5 -261.5t135.5 -78.5q47 0 89.5 26.5t69 70.5t26.5 93
h25q0 -57 -30.5 -106.5t-83 -79t-116.5 -29.5q-160 0 -250 95zM220 750l145 165l145 -165h-35l-110 70l-110 -70h-35z" />
    <glyph glyph-name="ccircumflex" unicode="&#x109;" horiz-adv-x="530" 
d="M111 55.5q-71 70.5 -71 194.5t71 194.5t199 70.5q92 0 138.5 -32t46.5 -78q0 -34 -20.5 -54.5t-54.5 -20.5q-14 0 -28 2l-12 3v150l-14 5q-15 5 -36 5q-57 0 -88.5 -54t-31.5 -191q0 -133 31.5 -186.5t88.5 -53.5q39 0 72.5 18.5t53 49t19.5 62.5h25q0 -40 -24 -76
t-67 -57.5t-99 -21.5q-128 0 -199 70.5zM170 550l145 165l145 -165h-35l-110 70l-110 -70h-35z" />
    <glyph glyph-name="Cdotaccent" unicode="&#x10a;" horiz-adv-x="650" 
d="M135 80q-90 95 -90 270q0 115 39.5 197.5t111 125t165.5 42.5q57 0 115 -33q22 -12 44 -32q17 26 35 41q18 13 20 14h25v-190h-40q-13 48 -39 87q-24 38 -59.5 63t-81.5 25q-69 0 -114.5 -80t-45.5 -260q0 -183 49.5 -261.5t135.5 -78.5q47 0 89.5 26.5t69 70.5t26.5 93
h25q0 -57 -30.5 -106.5t-83 -79t-116.5 -29.5q-160 0 -250 95zM315 780q-20 20 -20 50t20 50t50 20t50 -20t20 -50t-20 -50t-50 -20t-50 20z" />
    <glyph glyph-name="cdotaccent" unicode="&#x10b;" horiz-adv-x="530" 
d="M111 55.5q-71 70.5 -71 194.5t71 194.5t199 70.5q92 0 138.5 -32t46.5 -78q0 -34 -20.5 -54.5t-54.5 -20.5q-14 0 -28 2l-12 3v150l-14 5q-15 5 -36 5q-57 0 -88.5 -54t-31.5 -191q0 -133 31.5 -186.5t88.5 -53.5q39 0 72.5 18.5t53 49t19.5 62.5h25q0 -40 -24 -76
t-67 -57.5t-99 -21.5q-128 0 -199 70.5zM265 580q-20 20 -20 50t20 50t50 20t50 -20t20 -50t-20 -50t-50 -20t-50 20z" />
    <glyph glyph-name="Ccaron" unicode="&#x10c;" horiz-adv-x="650" 
d="M135 80q-90 95 -90 270q0 115 39.5 197.5t111 125t165.5 42.5q57 0 115 -33q22 -12 44 -32q17 26 35 41q18 13 20 14h25v-190h-40q-13 48 -39 87q-24 38 -59.5 63t-81.5 25q-69 0 -114.5 -80t-45.5 -260q0 -183 49.5 -261.5t135.5 -78.5q47 0 89.5 26.5t69 70.5t26.5 93
h25q0 -57 -30.5 -106.5t-83 -79t-116.5 -29.5q-160 0 -250 95zM220 915h35l110 -70l110 70h35l-145 -165z" />
    <glyph glyph-name="ccaron" unicode="&#x10d;" horiz-adv-x="530" 
d="M111 55.5q-71 70.5 -71 194.5t71 194.5t199 70.5q92 0 138.5 -32t46.5 -78q0 -34 -20.5 -54.5t-54.5 -20.5q-14 0 -28 2l-12 3v150l-14 5q-15 5 -36 5q-57 0 -88.5 -54t-31.5 -191q0 -133 31.5 -186.5t88.5 -53.5q39 0 72.5 18.5t53 49t19.5 62.5h25q0 -40 -24 -76
t-67 -57.5t-99 -21.5q-128 0 -199 70.5zM170 715h35l110 -70l110 70h35l-145 -165z" />
    <glyph glyph-name="Dcaron" unicode="&#x10e;" horiz-adv-x="715" 
d="M50 15l60 15v640l-60 15v15h255q179 0 274.5 -92t95.5 -258t-95.5 -258t-274.5 -92h-255v15zM305 25q93 0 144 75.5t51 249.5t-51 249.5t-144 75.5h-30v-650h30zM213 915h35l110 -70l110 70h35l-145 -165z" />
    <glyph glyph-name="dcaron" unicode="&#x10f;" horiz-adv-x="697" 
d="M140 15.5q-46 30.5 -73 90t-27 144.5q0 128 59.5 196.5t160.5 68.5q48 0 84 -20q15 -7 31 -20v195l-60 15v15h130q90 0 90 -90v-580l60 -15v-15h-90q-60 0 -93 37q-14 15 -22 38q-13 -25 -33 -45q-45 -45 -112 -45q-59 0 -105 30.5zM352 60q11 15 23 40v345
q-11 11 -23 20q-27 20 -52 20q-43 0 -66.5 -50t-23.5 -185q0 -129 21.5 -179.5t53.5 -50.5q37 0 67 40zM587 515q21 7 42 23q43 32 53 87l-13 -8q-13 -7 -32 -7q-30 0 -52.5 22.5t-22.5 52.5t22.5 52.5t52.5 22.5q35 0 57.5 -24.5t22.5 -65.5q0 -92 -60 -144
q-26 -24 -60 -36z" />
    <glyph glyph-name="Dcroat" unicode="&#x110;" horiz-adv-x="720" 
d="M55 15l60 15v310h-65v30h65v300l-60 15v15h255q179 0 274.5 -92t95.5 -258t-95.5 -258t-274.5 -92h-255v15zM310 25q93 0 144 75.5t51 249.5t-51 249.5t-144 75.5h-30v-305h120v-30h-120v-315h30z" />
    <glyph glyph-name="dcroat" unicode="&#x111;" horiz-adv-x="625" 
d="M140.5 15q-46.5 30 -73.5 87.5t-27 137.5q0 121 60 188t160 67q48 0 84 -20q15 -7 31 -20v105h-125v30h125v80l-60 15v15h130q90 0 90 -90v-20h65v-30h-65v-530l60 -15v-15h-90q-60 0 -93 37q-14 15 -22 38q-13 -25 -33 -45q-45 -45 -112 -45q-58 0 -104.5 30zM352 60
q11 15 23 40v325q-1 0 -21 19.5t-54 20.5q-43 0 -66.5 -48t-23.5 -177q0 -122 21.5 -171t53.5 -49q37 0 67 40z" />
    <glyph glyph-name="Emacron" unicode="&#x112;" horiz-adv-x="645" 
d="M50 15l60 15v640l-60 15v15h535v-180h-30q-19 15 -33 38q-32 54 -32 117h-215v-315h115q7 38 26 71q8 15 19 29h30v-225h-30q-11 14 -19 29q-19 33 -26 71h-115v-310h235q0 63 32 117q14 23 33 38h30v-180h-555v15zM233 855v45h260v-45h-260z" />
    <glyph glyph-name="emacron" unicode="&#x113;" 
d="M111 55.5q-71 70.5 -71 194.5q0 81 31 141t86.5 92t127.5 32t126.5 -27t84 -72.5t29.5 -100.5q0 -25 -5 -43l-5 -17q-43 -9 -93 -15q-105 -15 -212 -15q0 -116 32 -165.5t88 -49.5q39 0 72.5 18.5t53 49t19.5 62.5h25q0 -40 -24 -76t-67 -57.5t-99 -21.5
q-128 0 -199 70.5zM314 255q17 1 36 5q1 5 5 22q5 25 5 53q0 83 -22 121.5t-53 38.5q-75 0 -75 -245q64 0 104 5zM150 655v45h260v-45h-260z" />
    <glyph glyph-name="Ebreve" unicode="&#x114;" horiz-adv-x="645" 
d="M50 15l60 15v640l-60 15v15h535v-180h-30q-19 15 -33 38q-32 54 -32 117h-215v-315h115q7 38 26 71q8 15 19 29h30v-225h-30q-11 14 -19 29q-19 33 -26 71h-115v-310h235q0 63 32 117q14 23 33 38h30v-180h-555v15zM249.5 774q-36.5 24 -36.5 61q0 26 17 43t43 17
q2 0 23 -3l12 -2v-110q1 0 14.5 -5t40.5 -5t40.5 5t14.5 5v110l12 2q21 3 23 3q26 0 43 -17t17 -43q0 -37 -36.5 -61t-113.5 -24t-113.5 24z" />
    <glyph glyph-name="ebreve" unicode="&#x115;" 
d="M111 55.5q-71 70.5 -71 194.5q0 81 31 141t86.5 92t127.5 32t126.5 -27t84 -72.5t29.5 -100.5q0 -25 -5 -43l-5 -17q-43 -9 -93 -15q-105 -15 -212 -15q0 -116 32 -165.5t88 -49.5q39 0 72.5 18.5t53 49t19.5 62.5h25q0 -40 -24 -76t-67 -57.5t-99 -21.5
q-128 0 -199 70.5zM314 255q17 1 36 5q1 5 5 22q5 25 5 53q0 83 -22 121.5t-53 38.5q-75 0 -75 -245q64 0 104 5zM166.5 574q-36.5 24 -36.5 61q0 26 17 43t43 17q2 0 23 -3l12 -2v-110q1 0 14.5 -5t40.5 -5t40.5 5t14.5 5v110l12 2q21 3 23 3q26 0 43 -17t17 -43
q0 -37 -36.5 -61t-113.5 -24t-113.5 24z" />
    <glyph glyph-name="Edotaccent" unicode="&#x116;" horiz-adv-x="645" 
d="M50 15l60 15v640l-60 15v15h535v-180h-30q-19 15 -33 38q-32 54 -32 117h-215v-315h115q7 38 26 71q8 15 19 29h30v-225h-30q-11 14 -19 29q-19 33 -26 71h-115v-310h235q0 63 32 117q14 23 33 38h30v-180h-555v15zM313 780q-20 20 -20 50t20 50t50 20t50 -20t20 -50
t-20 -50t-50 -20t-50 20z" />
    <glyph glyph-name="edotaccent" unicode="&#x117;" 
d="M111 55.5q-71 70.5 -71 194.5q0 81 31 141t86.5 92t127.5 32t126.5 -27t84 -72.5t29.5 -100.5q0 -25 -5 -43l-5 -17q-43 -9 -93 -15q-105 -15 -212 -15q0 -116 32 -165.5t88 -49.5q39 0 72.5 18.5t53 49t19.5 62.5h25q0 -40 -24 -76t-67 -57.5t-99 -21.5
q-128 0 -199 70.5zM314 255q17 1 36 5q1 5 5 22q5 25 5 53q0 83 -22 121.5t-53 38.5q-75 0 -75 -245q64 0 104 5zM230 580q-20 20 -20 50t20 50t50 20t50 -20t20 -50t-20 -50t-50 -20t-50 20z" />
    <glyph glyph-name="Eogonek" unicode="&#x118;" horiz-adv-x="645" 
d="M292 -168.5q-27 21.5 -27 53.5q0 37 27.5 61.5t47 32.5t59.5 21h-349v15l60 15v640l-60 15v15h535v-180h-30q-19 15 -33 38q-32 54 -32 117h-215v-315h115q7 38 26 71q8 15 19 29h30v-225h-30q-11 14 -19 29q-19 33 -26 71h-115v-310h235q0 63 32 117q14 23 33 38h30
v-180h-160q-28 -14 -48 -31q-47 -41 -47 -94q0 -40 40 -40q16 0 32 10q8 5 13 10v-30q-2 -1 -18 -8q-18 -7 -47 -7q-51 0 -78 21.5z" />
    <glyph glyph-name="eogonek" unicode="&#x119;" 
d="M411.5 488q54.5 -27 84 -72.5t29.5 -100.5q0 -25 -5 -43l-5 -17q-43 -9 -93 -15q-105 -15 -212 -15q0 -116 32 -165.5t88 -49.5q39 0 72.5 18.5t53 49t19.5 62.5h25q0 -42 -25 -78t-69 -57q-22 -12 -39 -26q-47 -41 -47 -94q0 -40 40 -40q16 0 32 10q8 5 13 10v-30
q-2 -1 -18 -8q-18 -7 -47 -7q-51 0 -78 21.5t-27 53.5q0 53 67 89l2 1q-125 1 -194.5 71.5t-69.5 193.5q0 81 31 141t86.5 92t127.5 32t126.5 -27zM360 335q0 83 -22 121.5t-53 38.5q-75 0 -75 -245q64 0 104 5q17 1 36 5q1 5 5 22q5 25 5 53z" />
    <glyph glyph-name="Ecaron" unicode="&#x11a;" horiz-adv-x="645" 
d="M50 15l60 15v640l-60 15v15h535v-180h-30q-19 15 -33 38q-32 54 -32 117h-215v-315h115q7 38 26 71q8 15 19 29h30v-225h-30q-11 14 -19 29q-19 33 -26 71h-115v-310h235q0 63 32 117q14 23 33 38h30v-180h-555v15zM218 915h35l110 -70l110 70h35l-145 -165z" />
    <glyph glyph-name="ecaron" unicode="&#x11b;" 
d="M111 55.5q-71 70.5 -71 194.5q0 81 31 141t86.5 92t127.5 32t126.5 -27t84 -72.5t29.5 -100.5q0 -25 -5 -43l-5 -17q-43 -9 -93 -15q-105 -15 -212 -15q0 -116 32 -165.5t88 -49.5q39 0 72.5 18.5t53 49t19.5 62.5h25q0 -40 -24 -76t-67 -57.5t-99 -21.5
q-128 0 -199 70.5zM314 255q17 1 36 5q1 5 5 22q5 25 5 53q0 83 -22 121.5t-53 38.5q-75 0 -75 -245q64 0 104 5zM135 715h35l110 -70l110 70h35l-145 -165z" />
    <glyph glyph-name="Gcircumflex" unicode="&#x11c;" horiz-adv-x="700" 
d="M185 28q-64 43 -102 125.5t-38 196.5q0 115 39.5 197.5t111 125t165.5 42.5q57 0 115 -33q22 -12 44 -32q17 26 35 41q18 13 20 14h25v-190h-40q-13 48 -39 87q-24 38 -59.5 63t-81.5 25q-69 0 -114.5 -80t-45.5 -260t40.5 -255t104.5 -75q37 0 67 40q11 15 23 40v230
l-60 15v15h285v-15l-60 -15v-335h-15q-73 0 -111 40q-17 18 -24 40q-14 -25 -33 -45q-45 -45 -112 -45q-76 0 -140 43zM225 750l145 165l145 -165h-35l-110 70l-110 -70h-35z" />
    <glyph glyph-name="gcircumflex" unicode="&#x11d;" horiz-adv-x="605" 
d="M130 -199q-56 16 -80.5 41t-24.5 53q0 34 20.5 54.5t54.5 20.5q8 0 29 -3l11 -2v-140q12 -4 38 -10q46 -10 87 -10q122 0 178.5 34.5t56.5 85.5q0 65 -120 65h-190q-75 0 -115 31t-40 79t47 85q19 14 48 25q-37 23 -53.5 54.5t-16.5 75.5q0 74 56 119.5t164 45.5
q47 0 86.5 -9.5t63.5 -25.5q8 17 21 30q30 30 74 30q34 0 57 -23.5t23 -61.5q0 -29 -15.5 -47t-39.5 -18q-11 0 -25 2l-10 3v120q-26 0 -49 -25q-9 -9 -16 -25q50 -44 50 -115q0 -74 -56 -119.5t-164 -45.5q-72 0 -130 25l-20 -10q-10 -6 -15 -11.5t-5 -13.5q0 -17 17.5 -26
t62.5 -9h190q75 0 117.5 -43.5t42.5 -121.5q0 -80 -66.5 -130t-198.5 -50q-89 0 -145 16zM331.5 227q18.5 32 18.5 113t-18.5 113t-51.5 32t-51.5 -32t-18.5 -113t18.5 -113t51.5 -32t51.5 32zM158 550l145 165l145 -165h-35l-110 70l-110 -70h-35z" />
    <glyph glyph-name="Gbreve" unicode="&#x11e;" horiz-adv-x="700" 
d="M185 28q-64 43 -102 125.5t-38 196.5q0 115 39.5 197.5t111 125t165.5 42.5q57 0 115 -33q22 -12 44 -32q17 26 35 41q18 13 20 14h25v-190h-40q-13 48 -39 87q-24 38 -59.5 63t-81.5 25q-69 0 -114.5 -80t-45.5 -260t40.5 -255t104.5 -75q37 0 67 40q11 15 23 40v230
l-60 15v15h285v-15l-60 -15v-335h-15q-73 0 -111 40q-17 18 -24 40q-14 -25 -33 -45q-45 -45 -112 -45q-76 0 -140 43zM256.5 774q-36.5 24 -36.5 61q0 26 17 43t43 17q2 0 23 -3l12 -2v-110q1 0 14.5 -5t40.5 -5t40.5 5t14.5 5v110l12 2q21 3 23 3q26 0 43 -17t17 -43
q0 -37 -36.5 -61t-113.5 -24t-113.5 24z" />
    <glyph glyph-name="gbreve" unicode="&#x11f;" horiz-adv-x="605" 
d="M130 -199q-56 16 -80.5 41t-24.5 53q0 34 20.5 54.5t54.5 20.5q8 0 29 -3l11 -2v-140q12 -4 38 -10q46 -10 87 -10q122 0 178.5 34.5t56.5 85.5q0 65 -120 65h-190q-75 0 -115 31t-40 79t47 85q19 14 48 25q-37 23 -53.5 54.5t-16.5 75.5q0 74 56 119.5t164 45.5
q47 0 86.5 -9.5t63.5 -25.5q8 17 21 30q30 30 74 30q34 0 57 -23.5t23 -61.5q0 -29 -15.5 -47t-39.5 -18q-11 0 -25 2l-10 3v120q-26 0 -49 -25q-9 -9 -16 -25q50 -44 50 -115q0 -74 -56 -119.5t-164 -45.5q-72 0 -130 25l-20 -10q-10 -6 -15 -11.5t-5 -13.5q0 -17 17.5 -26
t62.5 -9h190q75 0 117.5 -43.5t42.5 -121.5q0 -80 -66.5 -130t-198.5 -50q-89 0 -145 16zM331.5 227q18.5 32 18.5 113t-18.5 113t-51.5 32t-51.5 -32t-18.5 -113t18.5 -113t51.5 -32t51.5 32zM189.5 574q-36.5 24 -36.5 61q0 26 17 43t43 17q2 0 23 -3l12 -2v-110
q1 0 14.5 -5t40.5 -5t40.5 5t14.5 5v110l12 2q21 3 23 3q26 0 43 -17t17 -43q0 -37 -36.5 -61t-113.5 -24t-113.5 24z" />
    <glyph glyph-name="Gdotaccent" unicode="&#x120;" horiz-adv-x="700" 
d="M185 28q-64 43 -102 125.5t-38 196.5q0 115 39.5 197.5t111 125t165.5 42.5q57 0 115 -33q22 -12 44 -32q17 26 35 41q18 13 20 14h25v-190h-40q-13 48 -39 87q-24 38 -59.5 63t-81.5 25q-69 0 -114.5 -80t-45.5 -260t40.5 -255t104.5 -75q37 0 67 40q11 15 23 40v230
l-60 15v15h285v-15l-60 -15v-335h-15q-73 0 -111 40q-17 18 -24 40q-14 -25 -33 -45q-45 -45 -112 -45q-76 0 -140 43zM320 780q-20 20 -20 50t20 50t50 20t50 -20t20 -50t-20 -50t-50 -20t-50 20z" />
    <glyph glyph-name="gdotaccent" unicode="&#x121;" horiz-adv-x="605" 
d="M130 -199q-56 16 -80.5 41t-24.5 53q0 34 20.5 54.5t54.5 20.5q8 0 29 -3l11 -2v-140q12 -4 38 -10q46 -10 87 -10q122 0 178.5 34.5t56.5 85.5q0 65 -120 65h-190q-75 0 -115 31t-40 79t47 85q19 14 48 25q-37 23 -53.5 54.5t-16.5 75.5q0 74 56 119.5t164 45.5
q47 0 86.5 -9.5t63.5 -25.5q8 17 21 30q30 30 74 30q34 0 57 -23.5t23 -61.5q0 -29 -15.5 -47t-39.5 -18q-11 0 -25 2l-10 3v120q-26 0 -49 -25q-9 -9 -16 -25q50 -44 50 -115q0 -74 -56 -119.5t-164 -45.5q-72 0 -130 25l-20 -10q-10 -6 -15 -11.5t-5 -13.5q0 -17 17.5 -26
t62.5 -9h190q75 0 117.5 -43.5t42.5 -121.5q0 -80 -66.5 -130t-198.5 -50q-89 0 -145 16zM331.5 227q18.5 32 18.5 113t-18.5 113t-51.5 32t-51.5 -32t-18.5 -113t18.5 -113t51.5 -32t51.5 32zM253 580q-20 20 -20 50t20 50t50 20t50 -20t20 -50t-20 -50t-50 -20t-50 20z
" />
    <glyph glyph-name="Gcommaaccent" unicode="&#x122;" horiz-adv-x="700" 
d="M185 28q-64 43 -102 125.5t-38 196.5q0 115 39.5 197.5t111 125t165.5 42.5q57 0 115 -33q22 -12 44 -32q17 26 35 41q18 13 20 14h25v-190h-40q-13 48 -39 87q-24 38 -59.5 63t-81.5 25q-69 0 -114.5 -80t-45.5 -260t40.5 -255t104.5 -75q37 0 67 40q11 15 23 40v230
l-60 15v15h285v-15l-60 -15v-335h-15q-73 0 -111 40q-17 18 -24 40q-14 -25 -33 -45q-45 -45 -112 -45q-76 0 -140 43zM272 -290q19 7 37 22q38 32 48 83q-3 -3 -6 -4.5t-5 -3.5q-9 -7 -29 -7q-30 0 -50 20t-20 50t20 50t50 20q35 0 55 -22t20 -63q0 -45 -15.5 -77.5
t-39.5 -53.5q-25 -22 -55 -34z" />
    <glyph glyph-name="gcommaaccent" unicode="&#x123;" horiz-adv-x="605" 
d="M351 790q-19 -7 -37 -22q-38 -32 -48 -83q3 3 6 4.5t5 3.5q9 7 29 7q30 0 50 -20t20 -50t-20 -50t-50 -20q-35 0 -55 22t-20 63q0 45 15.5 77.5t39.5 53.5q25 22 55 34zM130 -199q-56 16 -80.5 41t-24.5 53q0 34 20.5 54.5t54.5 20.5q8 0 29 -3l11 -2v-140q12 -4 38 -10
q46 -10 87 -10q122 0 178.5 34.5t56.5 85.5q0 65 -120 65h-190q-75 0 -115 31t-40 79t47 85q19 14 48 25q-37 23 -53.5 54.5t-16.5 75.5q0 74 56 119.5t164 45.5q47 0 86.5 -9.5t63.5 -25.5q8 17 21 30q30 30 74 30q34 0 57 -23.5t23 -61.5q0 -29 -15.5 -47t-39.5 -18
q-11 0 -25 2l-10 3v120q-26 0 -49 -25q-9 -9 -16 -25q50 -44 50 -115q0 -74 -56 -119.5t-164 -45.5q-72 0 -130 25l-20 -10q-10 -6 -15 -11.5t-5 -13.5q0 -17 17.5 -26t62.5 -9h190q75 0 117.5 -43.5t42.5 -121.5q0 -80 -66.5 -130t-198.5 -50q-89 0 -145 16zM331.5 227
q18.5 32 18.5 113t-18.5 113t-51.5 32t-51.5 -32t-18.5 -113t18.5 -113t51.5 -32t51.5 32z" />
    <glyph glyph-name="Hcircumflex" unicode="&#x124;" horiz-adv-x="765" 
d="M50 0v15l60 15v640l-60 15v15h285v-15l-60 -15v-310h215v310l-60 15v15h285v-15l-60 -15v-640l60 -15v-15h-285v15l60 15v305h-215v-305l60 -15v-15h-285zM238 750l145 165l145 -165h-35l-110 70l-110 -70h-35z" />
    <glyph glyph-name="hcircumflex" unicode="&#x125;" horiz-adv-x="665" 
d="M645 15v-15h-130q-90 0 -90 90v260q0 63 -22.5 96.5t-52.5 33.5q-38 0 -68 -40q-13 -17 -22 -40v-370l60 -15v-15h-280v15l60 15v640l-60 15v15h130q79 0 89 -70l74 85l145 -165h-35l-110 70l-73 -46v-124q15 20 31 32q43 33 99 33t100.5 -23.5t69.5 -61.5t25 -80v-320z
" />
    <glyph glyph-name="hbar" unicode="&#x127;" horiz-adv-x="670" 
d="M45 15l60 15v515h-65v25h65v100l-60 15v15h130q90 0 90 -90v-40h125v-25h-125v-125q15 20 31 32q43 33 99 33t100.5 -23.5t69.5 -61.5t25 -80v-290l60 -15v-15h-130q-90 0 -90 90v230q0 63 -22.5 96.5t-52.5 33.5q-38 0 -68 -40q-13 -17 -22 -40v-340l60 -15v-15h-280v15
z" />
    <glyph glyph-name="Itilde" unicode="&#x128;" horiz-adv-x="385" 
d="M50 0v15l60 15v640l-60 15v15h285v-15l-60 -15v-640l60 -15v-15h-285zM202 787.5q-16 7.5 -35 21.5q-14 11 -24.5 16t-22.5 5q-19 0 -32 -13t-13 -32h-20q0 58 23.5 86.5t66.5 28.5q22 0 38 -7.5t35 -21.5q14 -10 24.5 -15.5t22.5 -5.5q19 0 32 13t13 32h20
q0 -58 -23.5 -86.5t-66.5 -28.5q-22 0 -38 7.5z" />
    <glyph glyph-name="itilde" unicode="&#x129;" horiz-adv-x="340" 
d="M40 15l60 15v440l-60 15v15h130q90 0 90 -90v-380l60 -15v-15h-280v15zM179 587.5q-16 7.5 -35 21.5q-14 11 -24.5 16t-22.5 5q-19 0 -32 -13t-13 -32h-20q0 58 23.5 86.5t66.5 28.5q22 0 38 -7.5t35 -21.5q14 -10 24.5 -15.5t22.5 -5.5q19 0 32 13t13 32h20
q0 -58 -23.5 -86.5t-66.5 -28.5q-22 0 -38 7.5z" />
    <glyph glyph-name="Imacron" unicode="&#x12a;" horiz-adv-x="385" 
d="M50 0v15l60 15v640l-60 15v15h285v-15l-60 -15v-640l60 -15v-15h-285zM63 855v45h260v-45h-260z" />
    <glyph glyph-name="imacron" unicode="&#x12b;" horiz-adv-x="340" 
d="M40 15l60 15v440l-60 15v15h130q90 0 90 -90v-380l60 -15v-15h-280v15zM40 655v45h260v-45h-260z" />
    <glyph glyph-name="Ibreve" unicode="&#x12c;" horiz-adv-x="385" 
d="M50 0v15l60 15v640l-60 15v15h285v-15l-60 -15v-640l60 -15v-15h-285zM79.5 774q-36.5 24 -36.5 61q0 26 17 43t43 17q2 0 23 -3l12 -2v-110q1 0 14.5 -5t40.5 -5t40.5 5t14.5 5v110l12 2q21 3 23 3q26 0 43 -17t17 -43q0 -37 -36.5 -61t-113.5 -24t-113.5 24z" />
    <glyph glyph-name="ibreve" unicode="&#x12d;" horiz-adv-x="340" 
d="M40 15l60 15v440l-60 15v15h130q90 0 90 -90v-380l60 -15v-15h-280v15zM56.5 574q-36.5 24 -36.5 61q0 26 17 43t43 17q2 0 23 -3l12 -2v-110q1 0 14.5 -5t40.5 -5t40.5 5t14.5 5v110l12 2q21 3 23 3q26 0 43 -17t17 -43q0 -37 -36.5 -61t-113.5 -24t-113.5 24z" />
    <glyph glyph-name="Iogonek" unicode="&#x12e;" horiz-adv-x="385" 
d="M122 -168.5q-27 21.5 -27 53.5q0 37 27.5 61.5t47 32.5t59.5 21h-179v15l60 15v640l-60 15v15h285v-15l-60 -15v-640l60 -15v-15h-60q-28 -14 -48 -31q-47 -41 -47 -94q0 -40 40 -40q16 0 32 10q8 5 13 10v-30q-2 -1 -18 -8q-18 -7 -47 -7q-51 0 -78 21.5z" />
    <glyph glyph-name="iogonek" unicode="&#x12f;" horiz-adv-x="340" 
d="M120.5 565.5q-25.5 25.5 -25.5 59.5t25.5 59.5t59.5 25.5t59.5 -25.5t25.5 -59.5t-25.5 -59.5t-59.5 -25.5t-59.5 25.5zM107 -168.5q-27 21.5 -27 53.5q0 37 27.5 61.5t47 32.5t59.5 21h-174v15l60 15v440l-60 15v15h130q90 0 90 -90v-380l60 -15v-15h-60
q-28 -14 -48 -31q-47 -41 -47 -94q0 -40 40 -40q16 0 32 10q8 5 13 10v-30q-2 -1 -18 -8q-18 -7 -47 -7q-51 0 -78 21.5z" />
    <glyph glyph-name="Idotaccent" unicode="&#x130;" horiz-adv-x="385" 
d="M50 0v15l60 15v640l-60 15v15h285v-15l-60 -15v-640l60 -15v-15h-285zM143 780q-20 20 -20 50t20 50t50 20t50 -20t20 -50t-20 -50t-50 -20t-50 20z" />
    <glyph glyph-name="dotlessi" unicode="&#x131;" horiz-adv-x="340" 
d="M40 15l60 15v440l-60 15v15h130q90 0 90 -90v-380l60 -15v-15h-280v15z" />
    <glyph glyph-name="ij" unicode="&#x133;" horiz-adv-x="640" 
d="M120.5 565.5q-25.5 25.5 -25.5 59.5t25.5 59.5t59.5 25.5t59.5 -25.5t25.5 -59.5t-25.5 -59.5t-59.5 -25.5t-59.5 25.5zM425.5 565.5q-25.5 25.5 -25.5 59.5t25.5 59.5t59.5 25.5t59.5 -25.5t25.5 -59.5t-25.5 -59.5t-59.5 -25.5t-59.5 25.5zM235 -190q-35 25 -35 70
q0 34 20.5 54.5t54.5 20.5q8 0 16 -1.5t11 -1.5l13 -2v-140l6 -3q10 -2 14 -2q31 0 50.5 37.5t19.5 127.5v505h-145v-445l60 -15v-15h-280v15l60 15v440l-60 15v15h435q90 0 90 -90v-440q0 -53 -26 -95t-76 -66t-118 -24q-75 0 -110 25z" />
    <glyph glyph-name="Jcircumflex" unicode="&#x134;" horiz-adv-x="550" 
d="M46.5 17q-46.5 32 -46.5 78q0 34 20.5 54.5t54.5 20.5q8 0 16 -1.5t11 -1.5l13 -2v-150q7 -4 14 -5q17 -5 36 -5q120 0 120 195v470l-60 15v15h285v-15l-60 -15v-470q0 -104 -65 -159.5t-200 -55.5q-92 0 -138.5 32zM220 750l145 165l145 -165h-35l-110 70l-110 -70h-35z
" />
    <glyph glyph-name="jcircumflex" unicode="&#x135;" horiz-adv-x="340" 
d="M10 565l145 165l145 -165h-35l-110 70l-110 -70h-35zM-75 -190q-35 25 -35 70q0 34 20.5 54.5t54.5 20.5q8 0 16 -1.5t11 -1.5l13 -2v-140l6 -3q10 -2 14 -2q31 0 50.5 37.5t19.5 127.5v500l-60 15v15h130q90 0 90 -90v-440q0 -53 -26 -95t-76 -66t-118 -24
q-75 0 -110 25z" />
    <glyph glyph-name="Kcommaaccent" unicode="&#x136;" horiz-adv-x="690" 
d="M50 15l60 15v640l-60 15v15h285v-15l-60 -15v-314l245 299l-75 30v15h190v-15l-80 -30l-175 -215l270 -410l50 -15v-15h-140q-45 0 -76.5 22.5t-58.5 62.5l-150 230v-285l60 -15v-15h-285v15zM327 -290q19 7 37 22q38 32 48 83q-3 -3 -6 -4.5t-5 -3.5q-9 -7 -29 -7
q-30 0 -50 20t-20 50t20 50t50 20q35 0 55 -22t20 -63q0 -45 -15.5 -77.5t-39.5 -53.5q-25 -22 -55 -34z" />
    <glyph glyph-name="kcommaaccent" unicode="&#x137;" horiz-adv-x="600" 
d="M40 15l60 15v640l-60 15v15h130q90 0 90 -90v-350l185 195l-75 30v15h190v-15l-80 -30l-115 -120l195 -305l50 -15v-15h-130q-48 0 -78 21t-57 64l-85 135v-190l60 -15v-15h-280v15zM252 -290q19 7 37 22q38 32 48 83q-3 -3 -6 -4.5t-5 -3.5q-9 -7 -29 -7q-30 0 -50 20
t-20 50t20 50t50 20q35 0 55 -22t20 -63q0 -45 -15.5 -77.5t-39.5 -53.5q-25 -22 -55 -34z" />
    <glyph glyph-name="kgreenlandic" unicode="&#x138;" horiz-adv-x="600" 
d="M40 15l60 15v440l-60 15v15h130q90 0 90 -90v-150l185 195l-75 30v15h190v-15l-80 -30l-115 -120l195 -305l50 -15v-15h-130q-48 0 -78 21t-57 64l-85 135v-190l60 -15v-15h-280v15z" />
    <glyph glyph-name="Lacute" unicode="&#x139;" horiz-adv-x="610" 
d="M50 15l60 15v640l-60 15v15h285v-15l-60 -15v-645h215q0 63 32 117q14 23 33 38h30v-180h-535v15zM277 750l40 150h130l-135 -150h-35z" />
    <glyph glyph-name="lacute" unicode="&#x13a;" horiz-adv-x="340" 
d="M320 15v-15h-280v15l60 15v640l-60 15v15h130h12h130l-55 -61q3 -13 3 -29v-580z" />
    <glyph glyph-name="Lcommaaccent" unicode="&#x13b;" horiz-adv-x="610" 
d="M50 15l60 15v640l-60 15v15h285v-15l-60 -15v-645h215q0 63 32 117q14 23 33 38h30v-180h-535v15zM257 -290q19 7 37 22q38 32 48 83q-3 -3 -6 -4.5t-5 -3.5q-9 -7 -29 -7q-30 0 -50 20t-20 50t20 50t50 20q35 0 55 -22t20 -63q0 -45 -15.5 -77.5t-39.5 -53.5
q-25 -22 -55 -34z" />
    <glyph glyph-name="lcommaaccent" unicode="&#x13c;" horiz-adv-x="340" 
d="M40 15l60 15v640l-60 15v15h130q90 0 90 -90v-580l60 -15v-15h-280v15zM122 -290q19 7 37 22q38 32 48 83q-3 -3 -6 -4.5t-5 -3.5q-9 -7 -29 -7q-30 0 -50 20t-20 50t20 50t50 20q35 0 55 -22t20 -63q0 -45 -15.5 -77.5t-39.5 -53.5q-25 -22 -55 -34z" />
    <glyph glyph-name="Lcaron" unicode="&#x13d;" horiz-adv-x="610" 
d="M50 15l60 15v640l-60 15v15h285v-15l-60 -15v-645h215q0 63 32 117q14 23 33 38h30v-180h-535v15zM160 915h35l110 -70l110 70h35l-145 -165z" />
    <glyph glyph-name="lcaron" unicode="&#x13e;" horiz-adv-x="340" 
d="M40 15l60 15v640l-60 15v15h130q90 0 90 -90v-580l60 -15v-15h-280v15zM307 515q21 7 42 23q43 32 53 87l-13 -8q-13 -7 -32 -7q-30 0 -52.5 22.5t-22.5 52.5t22.5 52.5t52.5 22.5q35 0 57.5 -24.5t22.5 -65.5q0 -92 -60 -144q-26 -24 -60 -36z" />
    <glyph glyph-name="Ldot" unicode="&#x13f;" horiz-adv-x="610" 
d="M50 15l60 15v640l-60 15v15h285v-15l-60 -15v-645h215q0 63 32 117q14 23 33 38h30v-180h-535v15zM415.5 293.5q-22.5 23.5 -22.5 56.5t22.5 56.5t52.5 23.5t52.5 -23.5t22.5 -56.5t-22.5 -56.5t-52.5 -23.5t-52.5 23.5z" />
    <glyph glyph-name="ldot" unicode="&#x140;" horiz-adv-x="485" 
d="M40 15l60 15v640l-60 15v15h130q90 0 90 -90v-580l60 -15v-15h-280v15zM347.5 293.5q-22.5 23.5 -22.5 56.5t22.5 56.5t52.5 23.5t52.5 -23.5t22.5 -56.5t-22.5 -56.5t-52.5 -23.5t-52.5 23.5z" />
    <glyph glyph-name="Lslash" unicode="&#x141;" horiz-adv-x="620" 
d="M60 15l60 15v286l-85 -51v35l85 51v319l-60 15v15h285v-15l-60 -15v-219l80 49v-35l-80 -49v-391h215q0 63 32 117q14 23 33 38h30v-180h-535v15z" />
    <glyph glyph-name="lslash" unicode="&#x142;" horiz-adv-x="365" 
d="M45 15l60 15v287l-85 -52v35l85 52v318l-60 15v15h130q90 0 90 -90v-159l80 49v-35l-80 -49v-386l60 -15v-15h-280v15z" />
    <glyph glyph-name="Nacute" unicode="&#x143;" horiz-adv-x="740" 
d="M140 530v-485l80 -30v-15h-190v15l80 30v620l-70 20v15h105q53 0 83 -19t57 -51l320 -375v400l-80 30v15h190v-15l-80 -30v-670h-30zM342 750l40 150h130l-135 -150h-35z" />
    <glyph glyph-name="nacute" unicode="&#x144;" horiz-adv-x="665" 
d="M40 15l60 15v440l-60 15v15h90q59 0 93 -38q13 -15 22 -37q14 26 33 45q45 45 112 45q56 0 100.5 -23.5t69.5 -61.5t25 -80v-320l60 -15v-15h-130q-90 0 -90 90v260q0 63 -22.5 96.5t-52.5 33.5q-38 0 -68 -40q-13 -17 -22 -40v-370l60 -15v-15h-280v15zM325 550l40 150
h130l-135 -150h-35z" />
    <glyph glyph-name="Ncommaaccent" unicode="&#x145;" horiz-adv-x="740" 
d="M140 530v-485l80 -30v-15h-190v15l80 30v620l-70 20v15h105q53 0 83 -19t57 -51l320 -375v400l-80 30v15h190v-15l-80 -30v-670h-30zM322 -290q19 7 37 22q38 32 48 83q-3 -3 -6 -4.5t-5 -3.5q-9 -7 -29 -7q-30 0 -50 20t-20 50t20 50t50 20q35 0 55 -22t20 -63
q0 -45 -15.5 -77.5t-39.5 -53.5q-25 -22 -55 -34z" />
    <glyph glyph-name="ncommaaccent" unicode="&#x146;" horiz-adv-x="665" 
d="M40 15l60 15v440l-60 15v15h90q59 0 93 -38q13 -15 22 -37q14 26 33 45q45 45 112 45q56 0 100.5 -23.5t69.5 -61.5t25 -80v-320l60 -15v-15h-130q-90 0 -90 90v260q0 63 -22.5 96.5t-52.5 33.5q-38 0 -68 -40q-13 -17 -22 -40v-370l60 -15v-15h-280v15zM305 -290
q19 7 37 22q38 32 48 83q-3 -3 -6 -4.5t-5 -3.5q-9 -7 -29 -7q-30 0 -50 20t-20 50t20 50t50 20q35 0 55 -22t20 -63q0 -45 -15.5 -77.5t-39.5 -53.5q-25 -22 -55 -34z" />
    <glyph glyph-name="Ncaron" unicode="&#x147;" horiz-adv-x="740" 
d="M140 530v-485l80 -30v-15h-190v15l80 30v620l-70 20v15h105q53 0 83 -19t57 -51l320 -375v400l-80 30v15h190v-15l-80 -30v-670h-30zM225 915h35l110 -70l110 70h35l-145 -165z" />
    <glyph glyph-name="ncaron" unicode="&#x148;" horiz-adv-x="665" 
d="M40 15l60 15v440l-60 15v15h90q59 0 93 -38q13 -15 22 -37q14 26 33 45q45 45 112 45q56 0 100.5 -23.5t69.5 -61.5t25 -80v-320l60 -15v-15h-130q-90 0 -90 90v260q0 63 -22.5 96.5t-52.5 33.5q-38 0 -68 -40q-13 -17 -22 -40v-370l60 -15v-15h-280v15zM208 715h35
l110 -70l110 70h35l-145 -165z" />
    <glyph glyph-name="Omacron" unicode="&#x14c;" horiz-adv-x="740" 
d="M198.5 27.5q-73.5 42.5 -113.5 124.5t-40 198t40 198t113.5 124.5t171.5 42.5t171.5 -42.5t113.5 -124.5t40 -198t-40 -198t-113.5 -124.5t-171.5 -42.5t-171.5 42.5zM442.5 38q33.5 33 55.5 110t22 202t-22 202t-55.5 110t-72.5 33t-72.5 -33t-55.5 -110t-22 -202
t22 -202t55.5 -110t72.5 -33t72.5 33zM240 855v45h260v-45h-260z" />
    <glyph glyph-name="omacron" unicode="&#x14d;" horiz-adv-x="610" 
d="M110.5 55.5q-70.5 70.5 -70.5 194.5t70.5 194.5t194.5 70.5t194.5 -70.5t70.5 -194.5t-70.5 -194.5t-194.5 -70.5t-194.5 70.5zM372.5 61q27.5 56 27.5 189t-27.5 189t-67.5 56t-67.5 -56t-27.5 -189t27.5 -189t67.5 -56t67.5 56zM175 655v45h260v-45h-260z" />
    <glyph glyph-name="Obreve" unicode="&#x14e;" horiz-adv-x="740" 
d="M198.5 27.5q-73.5 42.5 -113.5 124.5t-40 198t40 198t113.5 124.5t171.5 42.5t171.5 -42.5t113.5 -124.5t40 -198t-40 -198t-113.5 -124.5t-171.5 -42.5t-171.5 42.5zM442.5 38q33.5 33 55.5 110t22 202t-22 202t-55.5 110t-72.5 33t-72.5 -33t-55.5 -110t-22 -202
t22 -202t55.5 -110t72.5 -33t72.5 33zM256.5 774q-36.5 24 -36.5 61q0 26 17 43t43 17q2 0 23 -3l12 -2v-110q1 0 14.5 -5t40.5 -5t40.5 5t14.5 5v110l12 2q21 3 23 3q26 0 43 -17t17 -43q0 -37 -36.5 -61t-113.5 -24t-113.5 24z" />
    <glyph glyph-name="obreve" unicode="&#x14f;" horiz-adv-x="610" 
d="M110.5 55.5q-70.5 70.5 -70.5 194.5t70.5 194.5t194.5 70.5t194.5 -70.5t70.5 -194.5t-70.5 -194.5t-194.5 -70.5t-194.5 70.5zM372.5 61q27.5 56 27.5 189t-27.5 189t-67.5 56t-67.5 -56t-27.5 -189t27.5 -189t67.5 -56t67.5 56zM191.5 574q-36.5 24 -36.5 61
q0 26 17 43t43 17q2 0 23 -3l12 -2v-110q1 0 14.5 -5t40.5 -5t40.5 5t14.5 5v110l12 2q21 3 23 3q26 0 43 -17t17 -43q0 -37 -36.5 -61t-113.5 -24t-113.5 24z" />
    <glyph glyph-name="Ohungarumlaut" unicode="&#x150;" horiz-adv-x="740" 
d="M198.5 27.5q-73.5 42.5 -113.5 124.5t-40 198t40 198t113.5 124.5t171.5 42.5t171.5 -42.5t113.5 -124.5t40 -198t-40 -198t-113.5 -124.5t-171.5 -42.5t-171.5 42.5zM442.5 38q33.5 33 55.5 110t22 202t-22 202t-55.5 110t-72.5 33t-72.5 -33t-55.5 -110t-22 -202
t22 -202t55.5 -110t72.5 -33t72.5 33zM284 750l45 150h100l-110 -150h-35zM414 750l45 150h100l-110 -150h-35z" />
    <glyph glyph-name="ohungarumlaut" unicode="&#x151;" horiz-adv-x="610" 
d="M110.5 55.5q-70.5 70.5 -70.5 194.5t70.5 194.5t194.5 70.5t194.5 -70.5t70.5 -194.5t-70.5 -194.5t-194.5 -70.5t-194.5 70.5zM372.5 61q27.5 56 27.5 189t-27.5 189t-67.5 56t-67.5 -56t-27.5 -189t27.5 -189t67.5 -56t67.5 56zM219 550l45 150h100l-110 -150h-35z
M349 550l45 150h100l-110 -150h-35z" />
    <glyph glyph-name="OE" unicode="&#x152;" horiz-adv-x="985" 
d="M140.5 92q-95.5 92 -95.5 258t95.5 258t274.5 92h510v-180h-30q-19 15 -33 38q-32 54 -32 117h-205v-315h105q7 38 26 71q8 15 19 29h30v-225h-30q-11 14 -19 29q-19 33 -26 71h-105v-310h225q0 63 32 117q14 23 33 38h30v-180h-530q-179 0 -274.5 92zM460 25v650h-45
q-93 0 -144 -75.5t-51 -249.5t51 -249.5t144 -75.5h45z" />
    <glyph glyph-name="oe" unicode="&#x153;" horiz-adv-x="920" 
d="M160.5 17q-57.5 32 -89 91.5t-31.5 141.5t31.5 141.5t89 91.5t134.5 32q92 0 147 -45q24 -18 38 -45q14 26 37 45q53 45 138 45q68 0 120 -27t81 -72.5t29 -100.5q0 -27 -5 -45l-5 -15q-44 -9 -93 -15q-105 -15 -212 -15q0 -116 32 -165.5t88 -49.5q39 0 72.5 18.5t53 49
t19.5 62.5h25q0 -40 -24 -76t-67 -57.5t-99 -21.5q-87 0 -148 45q-25 19 -42 45q-14 -27 -38 -45q-55 -45 -147 -45q-77 0 -134.5 32zM372.5 61q27.5 56 27.5 189t-27.5 189t-67.5 56t-67.5 -56t-27.5 -189t27.5 -189t67.5 -56t67.5 56zM674 255q17 1 36 5q1 5 5 22
q5 25 5 53q0 83 -22 121.5t-53 38.5q-75 0 -75 -245q64 0 104 5z" />
    <glyph glyph-name="Racute" unicode="&#x154;" horiz-adv-x="700" 
d="M50 15l60 15v640l-60 15v15h265q170 0 245 -51.5t75 -143.5q0 -62 -33 -100.5t-85 -57.5q-55 -21 -117 -22v-5q37 -2 65 -11q70 -22 95 -79l90 -200l50 -15v-15h-140q-82 0 -120 85l-100 225h-65v-280l70 -15v-15h-295v15zM315 335q70 0 110 44t40 126t-40 126t-110 44
h-40v-340h40zM322 750l40 150h130l-135 -150h-35z" />
    <glyph glyph-name="racute" unicode="&#x155;" horiz-adv-x="505" 
d="M40 15l60 15v440l-60 15v15h90q59 0 93 -38q13 -15 22 -37q15 22 37 40q50 40 112 40q53 0 79.5 -24.5t26.5 -70.5q0 -34 -20.5 -54.5t-54.5 -20.5q-14 0 -28 2l-12 3v140q-51 0 -93 -40q-20 -20 -32 -40v-370l60 -15v-15h-280v15zM225 550l40 150h130l-135 -150h-35z
" />
    <glyph glyph-name="Rcommaaccent" unicode="&#x156;" horiz-adv-x="700" 
d="M50 15l60 15v640l-60 15v15h265q170 0 245 -51.5t75 -143.5q0 -62 -33 -100.5t-85 -57.5q-55 -21 -117 -22v-5q37 -2 65 -11q70 -22 95 -79l90 -200l50 -15v-15h-140q-82 0 -120 85l-100 225h-65v-280l70 -15v-15h-295v15zM315 335q70 0 110 44t40 126t-40 126t-110 44
h-40v-340h40zM302 -290q19 7 37 22q38 32 48 83q-3 -3 -6 -4.5t-5 -3.5q-9 -7 -29 -7q-30 0 -50 20t-20 50t20 50t50 20q35 0 55 -22t20 -63q0 -45 -15.5 -77.5t-39.5 -53.5q-25 -22 -55 -34z" />
    <glyph glyph-name="rcommaaccent" unicode="&#x157;" horiz-adv-x="505" 
d="M40 15l60 15v440l-60 15v15h90q59 0 93 -38q13 -15 22 -37q15 22 37 40q50 40 112 40q53 0 79.5 -24.5t26.5 -70.5q0 -34 -20.5 -54.5t-54.5 -20.5q-14 0 -28 2l-12 3v140q-51 0 -93 -40q-20 -20 -32 -40v-370l60 -15v-15h-280v15zM130 -290q19 7 37 22q38 32 48 83
q-3 -3 -6 -4.5t-5 -3.5q-9 -7 -29 -7q-30 0 -50 20t-20 50t20 50t50 20q35 0 55 -22t20 -63q0 -45 -15.5 -77.5t-39.5 -53.5q-25 -22 -55 -34z" />
    <glyph glyph-name="Rcaron" unicode="&#x158;" horiz-adv-x="700" 
d="M50 15l60 15v640l-60 15v15h265q170 0 245 -51.5t75 -143.5q0 -62 -33 -100.5t-85 -57.5q-55 -21 -117 -22v-5q37 -2 65 -11q70 -22 95 -79l90 -200l50 -15v-15h-140q-82 0 -120 85l-100 225h-65v-280l70 -15v-15h-295v15zM315 335q70 0 110 44t40 126t-40 126t-110 44
h-40v-340h40zM205 915h35l110 -70l110 70h35l-145 -165z" />
    <glyph glyph-name="rcaron" unicode="&#x159;" horiz-adv-x="505" 
d="M40 15l60 15v440l-60 15v15h90q59 0 93 -38q13 -15 22 -37q15 22 37 40q50 40 112 40q53 0 79.5 -24.5t26.5 -70.5q0 -34 -20.5 -54.5t-54.5 -20.5q-14 0 -28 2l-12 3v140q-51 0 -93 -40q-20 -20 -32 -40v-370l60 -15v-15h-280v15zM108 715h35l110 -70l110 70h35
l-145 -165z" />
    <glyph glyph-name="Sacute" unicode="&#x15a;" horiz-adv-x="595" 
d="M162 17q-28 14 -47 33q-14 -23 -35 -41q-18 -13 -20 -14h-25v190h40q15 -49 42 -88q61 -87 158 -87q57 0 91 34t34 91q0 33 -19.5 59t-48.5 46t-81 50q-66 37 -107 67t-70 75.5t-29 107.5q0 49 27.5 88.5t82.5 63t135 23.5q58 0 116 -33q22 -12 44 -32q17 26 35 41
q18 13 20 14h25v-190h-40q-13 48 -39 87q-24 38 -59.5 63t-81.5 25q-39 0 -67 -31t-28 -79q0 -37 21.5 -66.5t53 -51.5t85.5 -53q63 -36 102 -64t66 -69.5t27 -95.5t-31 -98.5t-93 -70.5t-151 -26q-71 0 -133 32zM270 750l40 150h130l-135 -150h-35z" />
    <glyph glyph-name="sacute" unicode="&#x15b;" horiz-adv-x="540" 
d="M164 12q-24 13 -39 28q-16 -22 -35 -34q-9 -6 -20 -11h-25v170h40q13 -42 38 -78q53 -77 132 -77q42 0 63.5 20.5t21.5 59.5q0 33 -29.5 55.5t-92.5 55.5q-54 27 -87.5 48.5t-57 54t-23.5 76.5q0 60 51.5 97.5t158.5 37.5q53 0 98 -28q22 -13 38 -27q13 18 35 34
q17 10 20 11h25v-170h-40q-15 43 -37 77q-50 78 -119 78q-27 0 -46 -20t-19 -50q0 -38 32 -63.5t97 -58.5q53 -27 84.5 -47.5t54 -50.5t22.5 -70q0 -145 -230 -145q-62 0 -111 27zM242 550l40 150h130l-135 -150h-35z" />
    <glyph glyph-name="Scircumflex" unicode="&#x15c;" horiz-adv-x="595" 
d="M162 17q-28 14 -47 33q-14 -23 -35 -41q-18 -13 -20 -14h-25v190h40q15 -49 42 -88q61 -87 158 -87q57 0 91 34t34 91q0 33 -19.5 59t-48.5 46t-81 50q-66 37 -107 67t-70 75.5t-29 107.5q0 49 27.5 88.5t82.5 63t135 23.5q58 0 116 -33q22 -12 44 -32q17 26 35 41
q18 13 20 14h25v-190h-40q-13 48 -39 87q-24 38 -59.5 63t-81.5 25q-39 0 -67 -31t-28 -79q0 -37 21.5 -66.5t53 -51.5t85.5 -53q63 -36 102 -64t66 -69.5t27 -95.5t-31 -98.5t-93 -70.5t-151 -26q-71 0 -133 32zM153 750l145 165l145 -165h-35l-110 70l-110 -70h-35z" />
    <glyph glyph-name="scircumflex" unicode="&#x15d;" horiz-adv-x="540" 
d="M164 12q-24 13 -39 28q-16 -22 -35 -34q-9 -6 -20 -11h-25v170h40q13 -42 38 -78q53 -77 132 -77q42 0 63.5 20.5t21.5 59.5q0 33 -29.5 55.5t-92.5 55.5q-54 27 -87.5 48.5t-57 54t-23.5 76.5q0 60 51.5 97.5t158.5 37.5q53 0 98 -28q22 -13 38 -27q13 18 35 34
q17 10 20 11h25v-170h-40q-15 43 -37 77q-50 78 -119 78q-27 0 -46 -20t-19 -50q0 -38 32 -63.5t97 -58.5q53 -27 84.5 -47.5t54 -50.5t22.5 -70q0 -145 -230 -145q-62 0 -111 27zM125 550l145 165l145 -165h-35l-110 70l-110 -70h-35z" />
    <glyph glyph-name="Scedilla" unicode="&#x15e;" horiz-adv-x="595" 
d="M541 84.5q-29 -43.5 -86.5 -70t-141.5 -29.5v-35q43 0 69 -22t26 -53q0 -32 -27 -53.5t-78 -21.5q-17 0 -39 2l-17 3v30q6 -4 10 -5q12 -5 26 -5q23 0 36.5 13.5t13.5 36.5t-14.5 36.5t-40.5 13.5v60q-59 4 -116 32q-28 14 -47 33q-14 -23 -35 -41q-18 -13 -20 -14h-25
v190h40q15 -49 42 -88q61 -87 158 -87q57 0 91 34t34 91q0 33 -19.5 59t-48.5 46t-81 50q-66 37 -107 67t-70 75.5t-29 107.5q0 49 27.5 88.5t82.5 63t135 23.5q58 0 116 -33q22 -12 44 -32q17 26 35 41q18 13 20 14h25v-190h-40q-13 48 -39 87q-24 38 -59.5 63t-81.5 25
q-39 0 -67 -31t-28 -79q0 -37 21.5 -66.5t53 -51.5t85.5 -53q63 -36 102 -64t66 -69.5t27 -95.5q0 -52 -29 -95.5z" />
    <glyph glyph-name="scedilla" unicode="&#x15f;" horiz-adv-x="540" 
d="M285 -15v-35q43 0 69 -22t26 -53q0 -32 -27 -53.5t-78 -21.5q-17 0 -39 2l-17 3v30q6 -4 10 -5q12 -5 26 -5q23 0 36.5 13.5t13.5 36.5t-14.5 36.5t-40.5 13.5v61q-45 4 -86 26q-24 13 -39 28q-16 -22 -35 -34q-9 -6 -20 -11h-25v170h40q13 -42 38 -78q53 -77 132 -77
q42 0 63.5 20.5t21.5 59.5q0 33 -29.5 55.5t-92.5 55.5q-54 27 -87.5 48.5t-57 54t-23.5 76.5q0 60 51.5 97.5t158.5 37.5q53 0 98 -28q22 -13 38 -27q13 18 35 34q17 10 20 11h25v-170h-40q-15 43 -37 77q-50 78 -119 78q-27 0 -46 -20t-19 -50q0 -38 32 -63.5t97 -58.5
q53 -27 84.5 -47.5t54 -50.5t22.5 -70q0 -142 -220 -145z" />
    <glyph glyph-name="Scaron" unicode="&#x160;" horiz-adv-x="595" 
d="M162 17q-28 14 -47 33q-14 -23 -35 -41q-18 -13 -20 -14h-25v190h40q15 -49 42 -88q61 -87 158 -87q57 0 91 34t34 91q0 33 -19.5 59t-48.5 46t-81 50q-66 37 -107 67t-70 75.5t-29 107.5q0 49 27.5 88.5t82.5 63t135 23.5q58 0 116 -33q22 -12 44 -32q17 26 35 41
q18 13 20 14h25v-190h-40q-13 48 -39 87q-24 38 -59.5 63t-81.5 25q-39 0 -67 -31t-28 -79q0 -37 21.5 -66.5t53 -51.5t85.5 -53q63 -36 102 -64t66 -69.5t27 -95.5t-31 -98.5t-93 -70.5t-151 -26q-71 0 -133 32zM153 915h35l110 -70l110 70h35l-145 -165z" />
    <glyph glyph-name="scaron" unicode="&#x161;" horiz-adv-x="540" 
d="M164 12q-24 13 -39 28q-16 -22 -35 -34q-9 -6 -20 -11h-25v170h40q13 -42 38 -78q53 -77 132 -77q42 0 63.5 20.5t21.5 59.5q0 33 -29.5 55.5t-92.5 55.5q-54 27 -87.5 48.5t-57 54t-23.5 76.5q0 60 51.5 97.5t158.5 37.5q53 0 98 -28q22 -13 38 -27q13 18 35 34
q17 10 20 11h25v-170h-40q-15 43 -37 77q-50 78 -119 78q-27 0 -46 -20t-19 -50q0 -38 32 -63.5t97 -58.5q53 -27 84.5 -47.5t54 -50.5t22.5 -70q0 -145 -230 -145q-62 0 -111 27zM125 715h35l110 -70l110 70h35l-145 -165z" />
    <glyph glyph-name="Tcaron" unicode="&#x164;" horiz-adv-x="635" 
d="M175 15l60 15v645h-115q0 -61 -33 -117q-14 -23 -32 -38h-30v180h585v-180h-30q-19 15 -33 38q-32 54 -32 117h-115v-645l60 -15v-15h-285v15zM173 915h35l110 -70l110 70h35l-145 -165z" />
    <glyph glyph-name="tcaron" unicode="&#x165;" horiz-adv-x="450" 
d="M185.5 9q-48.5 24 -74.5 66t-26 95v305h-70v25h70v50q0 90 90 90h70v-140h140v-25h-140v-305q0 -92 19 -126t56 -34q36 0 63 35t27 95h25q0 -74 -37 -114.5t-98 -40.5q-66 0 -114.5 24zM417 515q21 7 42 23q43 32 53 87l-13 -8q-13 -7 -32 -7q-30 0 -52.5 22.5
t-22.5 52.5t22.5 52.5t52.5 22.5q35 0 57.5 -24.5t22.5 -65.5q0 -92 -60 -144q-26 -24 -60 -36z" />
    <glyph glyph-name="Utilde" unicode="&#x168;" horiz-adv-x="710" 
d="M171 54.5q-76 69.5 -76 195.5v420l-60 15v15h285v-15l-60 -15v-420q0 -129 40 -184.5t115 -55.5q46 0 87.5 29.5t67 84t25.5 126.5v405l-80 30v15h190v-15l-80 -30v-405q0 -81 -30 -141t-82 -92t-118 -32q-148 0 -224 69.5zM424 787.5q-16 7.5 -35 21.5q-14 11 -24.5 16
t-22.5 5q-19 0 -32 -13t-13 -32h-20q0 58 23.5 86.5t66.5 28.5q22 0 38 -7.5t35 -21.5q14 -10 24.5 -15.5t22.5 -5.5q19 0 32 13t13 32h20q0 -58 -23.5 -86.5t-66.5 -28.5q-22 0 -38 7.5z" />
    <glyph glyph-name="utilde" unicode="&#x169;" horiz-adv-x="650" 
d="M179.5 8.5q-44.5 23.5 -69.5 61.5t-25 80v320l-60 15v15h130q90 0 90 -90v-260q0 -63 22.5 -96.5t52.5 -33.5q37 0 67 40q11 15 23 40v370l-60 15v15h280v-15l-60 -15v-475h-10q-73 0 -111 40q-17 18 -24 40q-14 -25 -33 -45q-45 -45 -112 -45q-56 0 -100.5 23.5z
M334 587.5q-16 7.5 -35 21.5q-14 11 -24.5 16t-22.5 5q-19 0 -32 -13t-13 -32h-20q0 58 23.5 86.5t66.5 28.5q22 0 38 -7.5t35 -21.5q14 -10 24.5 -15.5t22.5 -5.5q19 0 32 13t13 32h20q0 -58 -23.5 -86.5t-66.5 -28.5q-22 0 -38 7.5z" />
    <glyph glyph-name="Umacron" unicode="&#x16a;" horiz-adv-x="710" 
d="M171 54.5q-76 69.5 -76 195.5v420l-60 15v15h285v-15l-60 -15v-420q0 -129 40 -184.5t115 -55.5q46 0 87.5 29.5t67 84t25.5 126.5v405l-80 30v15h190v-15l-80 -30v-405q0 -81 -30 -141t-82 -92t-118 -32q-148 0 -224 69.5zM285 855v45h260v-45h-260z" />
    <glyph glyph-name="umacron" unicode="&#x16b;" horiz-adv-x="650" 
d="M179.5 8.5q-44.5 23.5 -69.5 61.5t-25 80v320l-60 15v15h130q90 0 90 -90v-260q0 -63 22.5 -96.5t52.5 -33.5q37 0 67 40q11 15 23 40v370l-60 15v15h280v-15l-60 -15v-475h-10q-73 0 -111 40q-17 18 -24 40q-14 -25 -33 -45q-45 -45 -112 -45q-56 0 -100.5 23.5z
M195 655v45h260v-45h-260z" />
    <glyph glyph-name="Ubreve" unicode="&#x16c;" horiz-adv-x="710" 
d="M171 54.5q-76 69.5 -76 195.5v420l-60 15v15h285v-15l-60 -15v-420q0 -129 40 -184.5t115 -55.5q46 0 87.5 29.5t67 84t25.5 126.5v405l-80 30v15h190v-15l-80 -30v-405q0 -81 -30 -141t-82 -92t-118 -32q-148 0 -224 69.5zM301.5 774q-36.5 24 -36.5 61q0 26 17 43
t43 17q2 0 23 -3l12 -2v-110q1 0 14.5 -5t40.5 -5t40.5 5t14.5 5v110l12 2q21 3 23 3q26 0 43 -17t17 -43q0 -37 -36.5 -61t-113.5 -24t-113.5 24z" />
    <glyph glyph-name="ubreve" unicode="&#x16d;" horiz-adv-x="650" 
d="M179.5 8.5q-44.5 23.5 -69.5 61.5t-25 80v320l-60 15v15h130q90 0 90 -90v-260q0 -63 22.5 -96.5t52.5 -33.5q37 0 67 40q11 15 23 40v370l-60 15v15h280v-15l-60 -15v-475h-10q-73 0 -111 40q-17 18 -24 40q-14 -25 -33 -45q-45 -45 -112 -45q-56 0 -100.5 23.5z
M211.5 574q-36.5 24 -36.5 61q0 26 17 43t43 17q2 0 23 -3l12 -2v-110q1 0 14.5 -5t40.5 -5t40.5 5t14.5 5v110l12 2q21 3 23 3q26 0 43 -17t17 -43q0 -37 -36.5 -61t-113.5 -24t-113.5 24z" />
    <glyph glyph-name="Uring" unicode="&#x16e;" horiz-adv-x="710" 
d="M171 54.5q-76 69.5 -76 195.5v420l-60 15v15h285v-15l-60 -15v-420q0 -129 40 -184.5t115 -55.5q46 0 87.5 29.5t67 84t25.5 126.5v405l-80 30v15h190v-15l-80 -30v-405q0 -81 -30 -141t-82 -92t-118 -32q-148 0 -224 69.5zM340 779q-30 29 -30 71t30 71t75 29t75 -29
t30 -71t-30 -71t-75 -29t-75 29zM454.5 803q15.5 18 15.5 47t-15.5 47t-39.5 18t-39.5 -18t-15.5 -47t15.5 -47t39.5 -18t39.5 18z" />
    <glyph glyph-name="uring" unicode="&#x16f;" horiz-adv-x="650" 
d="M179.5 8.5q-44.5 23.5 -69.5 61.5t-25 80v320l-60 15v15h130q90 0 90 -90v-260q0 -63 22.5 -96.5t52.5 -33.5q37 0 67 40q11 15 23 40v370l-60 15v15h280v-15l-60 -15v-475h-10q-73 0 -111 40q-17 18 -24 40q-14 -25 -33 -45q-45 -45 -112 -45q-56 0 -100.5 23.5z
M250 579q-30 29 -30 71t30 71t75 29t75 -29t30 -71t-30 -71t-75 -29t-75 29zM364.5 603q15.5 18 15.5 47t-15.5 47t-39.5 18t-39.5 -18t-15.5 -47t15.5 -47t39.5 -18t39.5 18z" />
    <glyph glyph-name="Uhungarumlaut" unicode="&#x170;" horiz-adv-x="710" 
d="M171 54.5q-76 69.5 -76 195.5v420l-60 15v15h285v-15l-60 -15v-420q0 -129 40 -184.5t115 -55.5q46 0 87.5 29.5t67 84t25.5 126.5v405l-80 30v15h190v-15l-80 -30v-405q0 -81 -30 -141t-82 -92t-118 -32q-148 0 -224 69.5zM329 750l45 150h100l-110 -150h-35zM459 750
l45 150h100l-110 -150h-35z" />
    <glyph glyph-name="uhungarumlaut" unicode="&#x171;" horiz-adv-x="650" 
d="M179.5 8.5q-44.5 23.5 -69.5 61.5t-25 80v320l-60 15v15h130q90 0 90 -90v-260q0 -63 22.5 -96.5t52.5 -33.5q37 0 67 40q11 15 23 40v370l-60 15v15h280v-15l-60 -15v-475h-10q-73 0 -111 40q-17 18 -24 40q-14 -25 -33 -45q-45 -45 -112 -45q-56 0 -100.5 23.5z
M239 550l45 150h100l-110 -150h-35zM369 550l45 150h100l-110 -150h-35z" />
    <glyph glyph-name="Uogonek" unicode="&#x172;" horiz-adv-x="710" 
d="M705 700v-15l-80 -30v-405q0 -89 -36 -152.5t-98 -92.5q-19 -10 -39 -26q-47 -41 -47 -94q0 -40 40 -40q16 0 32 10q8 5 13 10v-30q-2 -1 -18 -8q-18 -7 -47 -7q-51 0 -78 21.5t-27 53.5q0 53 67 89l2 1q-145 1 -219.5 71t-74.5 194v420l-60 15v15h285v-15l-60 -15v-420
q0 -129 40 -184.5t115 -55.5q46 0 87.5 29.5t67 84t25.5 126.5v405l-80 30v15h190z" />
    <glyph glyph-name="uogonek" unicode="&#x173;" horiz-adv-x="650" 
d="M630 500v-15l-60 -15v-475q-28 -14 -48 -31q-47 -41 -47 -94q0 -40 40 -40q16 0 32 10q8 5 13 10v-30q-2 -1 -18 -8q-18 -7 -47 -7q-51 0 -78 21.5t-27 53.5q0 53 67 89q26 14 68 26h35q-73 0 -111 40q-17 18 -24 40q-14 -25 -33 -45q-45 -45 -112 -45q-56 0 -100.5 23.5
t-69.5 61.5t-25 80v320l-60 15v15h130q90 0 90 -90v-260q0 -63 22.5 -96.5t52.5 -33.5q37 0 67 40q11 15 23 40v370l-60 15v15h280z" />
    <glyph glyph-name="Wcircumflex" unicode="&#x174;" horiz-adv-x="985" 
d="M35 675l-55 10v15h120q53 0 87 -24t48 -61l151 -385l88 258l-74 187l-55 10v15h120q53 0 86 -23.5t49 -61.5l151 -385l144 425l-75 30v15h185v-15l-80 -30l-225 -665h-30l-180 457l-155 -457h-30zM348 750l145 165l145 -165h-35l-110 70l-110 -70h-35z" />
    <glyph glyph-name="wcircumflex" unicode="&#x175;" horiz-adv-x="835" 
d="M30 470l-50 15v15h115q53 0 84 -22t51 -63l110 -230l57 146l-67 139l-50 15v15h115q53 0 84 -22t51 -63l110 -230l105 270l-75 30v15h185v-15l-80 -30l-185 -465h-30l-148 308l-122 -308h-30zM273 550l145 165l145 -165h-35l-110 70l-110 -70h-35z" />
    <glyph glyph-name="Ycircumflex" unicode="&#x176;" horiz-adv-x="665" 
d="M195 15l60 15v230l-205 410l-50 15v15h125q52 0 83.5 -22t51.5 -63l148 -295l152 335l-75 30v15h190v-15l-80 -30l-175 -385v-240l60 -15v-15h-285v15zM188 750l145 165l145 -165h-35l-110 70l-110 -70h-35z" />
    <glyph glyph-name="ycircumflex" unicode="&#x177;" 
d="M80 -191q-25 24 -25 66q0 38 20.5 59t54.5 21q8 0 16 -1.5t11 -1.5l13 -2v-135q29 5 51 32t49 93l20 50l-260 480l-50 15v15h125q52 0 82.5 -21.5t52.5 -63.5l125 -231l105 271l-75 30v15h185v-15l-80 -30l-200 -515q-32 -82 -68 -118.5t-82 -36.5q-45 0 -70 24zM135 550
l145 165l145 -165h-35l-110 70l-110 -70h-35z" />
    <glyph glyph-name="Ydieresis" unicode="&#x178;" horiz-adv-x="665" 
d="M195 15l60 15v230l-205 410l-50 15v15h125q52 0 83.5 -22t51.5 -63l148 -295l152 335l-75 30v15h190v-15l-80 -30l-175 -385v-240l60 -15v-15h-285v15zM190 780q-20 20 -20 50t20 50t50 20t50 -20t20 -50t-20 -50t-50 -20t-50 20zM375 780q-20 20 -20 50t20 50t50 20
t50 -20t20 -50t-20 -50t-50 -20t-50 20z" />
    <glyph glyph-name="Zacute" unicode="&#x179;" horiz-adv-x="635" 
d="M40 25l371 650h-261q0 -61 -33 -117q-14 -23 -32 -38h-30v180h540v-25l-370 -650h270q0 63 32 117q14 23 33 38h30v-180h-550v25zM290 750l40 150h130l-135 -150h-35z" />
    <glyph glyph-name="zacute" unicode="&#x17a;" horiz-adv-x="545" 
d="M40 25l285 450h-180q0 -55 -33 -111q-13 -21 -32 -39h-30v175h455v-25l-285 -450h190q0 57 32 111q14 23 33 39h30v-175h-465v25zM245 550l40 150h130l-135 -150h-35z" />
    <glyph glyph-name="Zdotaccent" unicode="&#x17b;" horiz-adv-x="635" 
d="M40 25l371 650h-261q0 -61 -33 -117q-14 -23 -32 -38h-30v180h540v-25l-370 -650h270q0 63 32 117q14 23 33 38h30v-180h-550v25zM268 780q-20 20 -20 50t20 50t50 20t50 -20t20 -50t-20 -50t-50 -20t-50 20z" />
    <glyph glyph-name="zdotaccent" unicode="&#x17c;" horiz-adv-x="545" 
d="M40 25l285 450h-180q0 -55 -33 -111q-13 -21 -32 -39h-30v175h455v-25l-285 -450h190q0 57 32 111q14 23 33 39h30v-175h-465v25zM223 580q-20 20 -20 50t20 50t50 20t50 -20t20 -50t-20 -50t-50 -20t-50 20z" />
    <glyph glyph-name="Zcaron" unicode="&#x17d;" horiz-adv-x="635" 
d="M40 25l371 650h-261q0 -61 -33 -117q-14 -23 -32 -38h-30v180h540v-25l-370 -650h270q0 63 32 117q14 23 33 38h30v-180h-550v25zM173 915h35l110 -70l110 70h35l-145 -165z" />
    <glyph glyph-name="zcaron" unicode="&#x17e;" horiz-adv-x="545" 
d="M40 25l285 450h-180q0 -55 -33 -111q-13 -21 -32 -39h-30v175h455v-25l-285 -450h190q0 57 32 111q14 23 33 39h30v-175h-465v25zM128 715h35l110 -70l110 70h35l-145 -165z" />
    <glyph glyph-name="florin" unicode="&#x192;" horiz-adv-x="450" 
d="M-96.5 -178q-33.5 37 -33.5 108h25q0 -61 22 -90.5t58 -29.5q66 0 90 160l75 485h-70l5 25h70l10 50q17 83 78 134t162 51q71 0 108 -27t37 -68q0 -42 -23 -66t-62 -24q-14 0 -28 2l-12 3l25 155l-9 2q-4 1 -9 2t-12 1q-29 0 -53 -37t-42 -128l-10 -50h160l-5 -25h-160
l-75 -485q-13 -82 -72.5 -133.5t-157.5 -51.5q-58 0 -91.5 37z" />
    <glyph glyph-name="Ohorn" unicode="&#x1a0;" horiz-adv-x="740" 
d="M651.5 554q43.5 -84 43.5 -204q0 -116 -40 -198t-113.5 -124.5t-171.5 -42.5t-171.5 42.5t-113.5 124.5t-40 198t40 198t113.5 124.5t171.5 42.5q61 0 115 -17q35 2 45 4l29 4v127l12 3q7 2 28 2q20 0 32 -20t12 -54q0 -36 -26 -57.5t-88 -27.5q79 -41 122.5 -125z
M442.5 38q33.5 33 55.5 110t22 202t-22 202t-55.5 110t-72.5 33t-72.5 -33t-55.5 -110t-22 -202t22 -202t55.5 -110t72.5 -33t72.5 33z" />
    <glyph glyph-name="ohorn" unicode="&#x1a1;" horiz-adv-x="610" 
d="M540 388q30 -59 30 -138q0 -124 -70.5 -194.5t-194.5 -70.5t-194.5 70.5t-70.5 194.5t70.5 194.5t194.5 70.5q60 0 110 -18q27 2 47 5l29 4v127l12 3q7 2 28 2q20 0 32 -20t12 -54q0 -37 -27.5 -58.5t-93.5 -26.5q56 -32 86 -91zM372.5 61q27.5 56 27.5 189t-27.5 189
t-67.5 56t-67.5 -56t-27.5 -189t27.5 -189t67.5 -56t67.5 56z" />
    <glyph glyph-name="Uhorn" unicode="&#x1af;" horiz-adv-x="710" 
d="M741 701q-34 -22 -116 -24v-427q0 -81 -30 -141t-82 -92t-118 -32q-148 0 -224 69.5t-76 195.5v420l-60 15v15h285v-15l-60 -15v-420q0 -129 40 -184.5t115 -55.5q46 0 87.5 29.5t67 84t25.5 126.5v405l-80 30v15h110v-2q26 2 37 4l29 4v127l12 3q7 2 28 2q20 0 32 -20
t12 -54q0 -41 -34 -63z" />
    <glyph glyph-name="uhorn" unicode="&#x1b0;" horiz-adv-x="650" 
d="M681 497.5q-30 -21.5 -103 -25.5l-8 -2v-475h-10q-73 0 -111 40q-17 18 -24 40q-14 -25 -33 -45q-45 -45 -112 -45q-56 0 -100.5 23.5t-69.5 61.5t-25 80v320l-60 15v15h130q90 0 90 -90v-260q0 -63 22.5 -96.5t52.5 -33.5q37 0 67 40q11 15 23 40v370l-60 15v15h277v127
l12 3q7 2 28 2q20 0 32 -20t12 -54q0 -39 -30 -60.5z" />
    <glyph glyph-name="Oslashacute" unicode="&#x1fe;" horiz-adv-x="740" 
d="M163 56l-43 -56h-35l57 75q-46 49 -71.5 118t-25.5 157q0 116 40 198t113.5 124.5t171.5 42.5q124 0 207 -71l43 56h35l-58 -76q98 -103 98 -274q0 -116 -40 -198t-113.5 -124.5t-171.5 -42.5q-124 0 -207 71zM500 543q-20 79 -55 115.5t-75 36.5q-39 0 -72.5 -33
t-55.5 -110t-22 -202q0 -93 12 -158zM442.5 38q33.5 33 55.5 110t22 202q0 83 -12 157l-269 -351q19 -79 54.5 -115t76.5 -36q39 0 72.5 33zM342 750l40 150h130l-135 -150h-35z" />
    <glyph glyph-name="oslashacute" unicode="&#x1ff;" horiz-adv-x="610" 
d="M260 560l40 150h130l-135 -150h-35zM142 32l-27 -32h-35l41 49q-81 78 -81 201q0 124 70.5 194.5t194.5 70.5q96 0 163 -48l27 33h35l-41 -50q38 -35 59.5 -86t21.5 -114q0 -124 -70.5 -194.5t-194.5 -70.5q-98 0 -163 47zM391 374q-11 64 -34.5 92.5t-51.5 28.5
q-40 0 -67.5 -56t-27.5 -189q0 -53 4 -89zM372.5 61q27.5 56 27.5 189q0 55 -4 88l-177 -213q11 -65 34 -92.5t52 -27.5q40 0 67.5 56z" />
    <glyph glyph-name="Scommaaccent" unicode="&#x218;" horiz-adv-x="595" 
d="M162 17q-28 14 -47 33q-14 -23 -35 -41q-18 -13 -20 -14h-25v190h40q15 -49 42 -88q61 -87 158 -87q57 0 91 34t34 91q0 33 -19.5 59t-48.5 46t-81 50q-66 37 -107 67t-70 75.5t-29 107.5q0 49 27.5 88.5t82.5 63t135 23.5q58 0 116 -33q22 -12 44 -32q17 26 35 41
q18 13 20 14h25v-190h-40q-13 48 -39 87q-24 38 -59.5 63t-81.5 25q-39 0 -67 -31t-28 -79q0 -37 21.5 -66.5t53 -51.5t85.5 -53q63 -36 102 -64t66 -69.5t27 -95.5t-31 -98.5t-93 -70.5t-151 -26q-71 0 -133 32zM250 -290q19 7 37 22q38 32 48 83q-3 -3 -6 -4.5t-5 -3.5
q-9 -7 -29 -7q-30 0 -50 20t-20 50t20 50t50 20q35 0 55 -22t20 -63q0 -45 -15.5 -77.5t-39.5 -53.5q-25 -22 -55 -34z" />
    <glyph glyph-name="scommaaccent" unicode="&#x219;" horiz-adv-x="540" 
d="M164 12q-24 13 -39 28q-16 -22 -35 -34q-9 -6 -20 -11h-25v170h40q13 -42 38 -78q53 -77 132 -77q42 0 63.5 20.5t21.5 59.5q0 33 -29.5 55.5t-92.5 55.5q-54 27 -87.5 48.5t-57 54t-23.5 76.5q0 60 51.5 97.5t158.5 37.5q53 0 98 -28q22 -13 38 -27q13 18 35 34
q17 10 20 11h25v-170h-40q-15 43 -37 77q-50 78 -119 78q-27 0 -46 -20t-19 -50q0 -38 32 -63.5t97 -58.5q53 -27 84.5 -47.5t54 -50.5t22.5 -70q0 -145 -230 -145q-62 0 -111 27zM222 -290q19 7 37 22q38 32 48 83q-3 -3 -6 -4.5t-5 -3.5q-9 -7 -29 -7q-30 0 -50 20t-20 50
t20 50t50 20q35 0 55 -22t20 -63q0 -45 -15.5 -77.5t-39.5 -53.5q-25 -22 -55 -34z" />
    <glyph glyph-name="uni021A" unicode="&#x21a;" horiz-adv-x="635" 
d="M175 15l60 15v645h-115q0 -61 -33 -117q-14 -23 -32 -38h-30v180h585v-180h-30q-19 15 -33 38q-32 54 -32 117h-115v-645l60 -15v-15h-285v15zM270 -290q19 7 37 22q38 32 48 83q-3 -3 -6 -4.5t-5 -3.5q-9 -7 -29 -7q-30 0 -50 20t-20 50t20 50t50 20q35 0 55 -22t20 -63
q0 -45 -15.5 -77.5t-39.5 -53.5q-25 -22 -55 -34z" />
    <glyph glyph-name="uni021B" unicode="&#x21b;" horiz-adv-x="450" 
d="M185.5 9q-48.5 24 -74.5 66t-26 95v305h-70v25h70v50q0 90 90 90h70v-140h140v-25h-140v-305q0 -92 19 -126t56 -34q36 0 63 35t27 95h25q0 -74 -37 -114.5t-98 -40.5q-66 0 -114.5 24zM177 -290q19 7 37 22q38 32 48 83q-3 -3 -6 -4.5t-5 -3.5q-9 -7 -29 -7
q-30 0 -50 20t-20 50t20 50t50 20q35 0 55 -22t20 -63q0 -45 -15.5 -77.5t-39.5 -53.5q-25 -22 -55 -34z" />
    <glyph glyph-name="uni0237" unicode="&#x237;" horiz-adv-x="330" 
d="M-75 -190q-35 25 -35 70q0 34 20.5 54.5t54.5 20.5q8 0 16 -1.5t11 -1.5l13 -2v-140l6 -3q10 -2 14 -2q31 0 50.5 37.5t19.5 127.5v500l-60 15v15h130q90 0 90 -90v-440q0 -53 -26 -95t-76 -66t-118 -24q-75 0 -110 25z" />
    <glyph glyph-name="uni02BC" unicode="&#x2bc;" horiz-adv-x="180" 
d="M25 595q21 7 42 23q43 32 53 87l-13 -8q-13 -7 -32 -7q-30 0 -52.5 22.5t-22.5 52.5t22.5 52.5t52.5 22.5q35 0 57.5 -24.5t22.5 -65.5q0 -92 -60 -144q-26 -24 -60 -36z" />
    <glyph glyph-name="circumflex" unicode="&#x2c6;" horiz-adv-x="330" 
d="M20 550l145 165l145 -165h-35l-110 70l-110 -70h-35z" />
    <glyph glyph-name="caron" unicode="&#x2c7;" horiz-adv-x="330" 
d="M135 710l-115 150h35l110 -80l110 80h35l-115 -150h-60z" />
    <glyph glyph-name="breve" unicode="&#x2d8;" horiz-adv-x="330" 
d="M51.5 574q-36.5 24 -36.5 61q0 26 17 43t43 17q2 0 23 -3l12 -2v-110q1 0 14.5 -5t40.5 -5t40.5 5t14.5 5v110l12 2q21 3 23 3q26 0 43 -17t17 -43q0 -37 -36.5 -61t-113.5 -24t-113.5 24z" />
    <glyph glyph-name="dotaccent" unicode="&#x2d9;" horiz-adv-x="180" 
d="M40 580q-20 20 -20 50t20 50t50 20t50 -20t20 -50t-20 -50t-50 -20t-50 20z" />
    <glyph glyph-name="ring" unicode="&#x2da;" horiz-adv-x="270" 
d="M60 529q-30 29 -30 71t30 71t75 29t75 -29t30 -71t-30 -71t-75 -29t-75 29zM174.5 553q15.5 18 15.5 47t-15.5 47t-39.5 18t-39.5 -18t-15.5 -47t15.5 -47t39.5 -18t39.5 18z" />
    <glyph glyph-name="ogonek" unicode="&#x2db;" horiz-adv-x="220" 
d="M47 -168.5q-27 21.5 -27 53.5q0 53 67 89q26 14 68 26h45q-28 -14 -48 -31q-47 -41 -47 -94q0 -40 40 -40q16 0 32 10q8 5 13 10v-30q-2 -1 -18 -8q-18 -7 -47 -7q-51 0 -78 21.5z" />
    <glyph glyph-name="tilde" unicode="&#x2dc;" horiz-adv-x="315" 
d="M167 587.5q-16 7.5 -35 21.5q-14 11 -24.5 16t-22.5 5q-19 0 -32 -13t-13 -32h-20q0 58 23.5 86.5t66.5 28.5q22 0 38 -7.5t35 -21.5q14 -10 25 -15.5t22 -5.5q19 0 32 13t13 32h20q0 -58 -23.5 -86.5t-66.5 -28.5q-22 0 -38 7.5z" />
    <glyph glyph-name="hungarumlaut" unicode="&#x2dd;" horiz-adv-x="315" 
d="M20 550l45 150h100l-110 -150h-35zM150 550l45 150h100l-110 -150h-35z" />
    <glyph glyph-name="gravecomb" unicode="&#x300;" horiz-adv-x="0" 
d="M-65 550l-135 150h130l40 -150h-35z" />
    <glyph glyph-name="acutecomb" unicode="&#x301;" horiz-adv-x="0" 
d="M-190 550l40 150h130l-135 -150h-35z" />
    <glyph glyph-name="uni0302" unicode="&#x302;" horiz-adv-x="0" 
d="M-310 550l145 165l145 -165h-35l-110 70l-110 -70h-35z" />
    <glyph glyph-name="tildecomb" unicode="&#x303;" horiz-adv-x="0" 
d="M-148 587.5q-16 7.5 -35 21.5q-14 11 -24.5 16t-22.5 5q-19 0 -32 -13t-13 -32h-20q0 58 23.5 86.5t66.5 28.5q22 0 38 -7.5t35 -21.5q14 -10 24.5 -15.5t22.5 -5.5q19 0 32 13t13 32h20q0 -58 -23.5 -86.5t-66.5 -28.5q-22 0 -38 7.5z" />
    <glyph glyph-name="uni0304" unicode="&#x304;" horiz-adv-x="0" 
d="M-280 655v45h260v-45h-260z" />
    <glyph glyph-name="uni0306" unicode="&#x306;" horiz-adv-x="0" 
d="M-278.5 574q-36.5 24 -36.5 61q0 26 17 43t43 17q2 0 23 -3l12 -2v-110q1 0 14.5 -5t40.5 -5t40.5 5t14.5 5v110l12 2q21 3 23 3q26 0 43 -17t17 -43q0 -37 -36.5 -61t-113.5 -24t-113.5 24z" />
    <glyph glyph-name="uni0307" unicode="&#x307;" horiz-adv-x="0" 
d="M-140 580q-20 20 -20 50t20 50t50 20t50 -20t20 -50t-20 -50t-50 -20t-50 20z" />
    <glyph glyph-name="uni0308" unicode="&#x308;" horiz-adv-x="0" 
d="M-325 580q-20 20 -20 50t20 50t50 20t50 -20t20 -50t-20 -50t-50 -20t-50 20zM-140 580q-20 20 -20 50t20 50t50 20t50 -20t20 -50t-20 -50t-50 -20t-50 20z" />
    <glyph glyph-name="hookabovecomb" unicode="&#x309;" horiz-adv-x="0" 
d="M-318 622q21 8 32.5 24t11.5 46q0 33 -12 47.5t-37 14.5q-5 0 -20 -3l-8 -2v-56l-4 -1h-3q-51 0 -51 26q0 55 93 55q122 0 122 -81q0 -29 -24.5 -48.5t-68.5 -26.5l-2 -28h-27z" />
    <glyph glyph-name="uni030A" unicode="&#x30a;" horiz-adv-x="0" 
d="M-210 579q-30 29 -30 71t30 71t75 29t75 -29t30 -71t-30 -71t-75 -29t-75 29zM-95.5 603q15.5 18 15.5 47t-15.5 47t-39.5 18t-39.5 -18t-15.5 -47t15.5 -47t39.5 -18t39.5 18z" />
    <glyph glyph-name="uni030B" unicode="&#x30b;" horiz-adv-x="0" 
d="M-295 550l45 150h100l-110 -150h-35zM-165 550l45 150h100l-110 -150h-35z" />
    <glyph glyph-name="uni030C" unicode="&#x30c;" horiz-adv-x="0" 
d="M-310 715h35l110 -70l110 70h35l-145 -165z" />
    <glyph glyph-name="uni031B" unicode="&#x31b;" horiz-adv-x="0" 
d="M-285 502l29 4v127l12 3q7 2 28 2q20 0 32 -20t12 -54q0 -44 -38 -65.5t-132 -21.5v20q22 0 57 5z" />
    <glyph glyph-name="dotbelowcomb" unicode="&#x323;" horiz-adv-x="0" 
d="M-153.5 -140.5q-13.5 13.5 -13.5 32.5t13.5 33t32.5 14t33 -14t14 -33t-14 -32.5t-33 -13.5t-32.5 13.5z" />
    <glyph glyph-name="uni0326" unicode="&#x326;" horiz-adv-x="0" 
d="M-140 -290q19 7 37 22q38 32 48 83q-3 -3 -6 -4.5t-5 -3.5q-9 -7 -29 -7q-30 0 -50 20t-20 50t20 50t50 20q35 0 55 -22t20 -63q0 -45 -15.5 -77.5t-39.5 -53.5q-25 -22 -55 -34z" />
    <glyph glyph-name="uni0327" unicode="&#x327;" horiz-adv-x="0" 
d="M-164 -198l-17 3v30q6 -4 10 -5q12 -5 26 -5q23 0 36.5 13.5t13.5 36.5t-14.5 36.5t-40.5 13.5v75h35v-50q43 0 69 -22t26 -53q0 -32 -27 -53.5t-78 -21.5q-17 0 -39 2z" />
    <glyph glyph-name="uni0328" unicode="&#x328;" horiz-adv-x="0" 
d="M-173 -168.5q-27 21.5 -27 53.5q0 53 67 89q26 14 68 26h45q-28 -14 -48 -31q-47 -41 -47 -94q0 -40 40 -40q16 0 32 10q8 5 13 10v-30q-2 -1 -18 -8q-18 -7 -47 -7q-51 0 -78 21.5z" />
    <glyph glyph-name="uni0335" unicode="&#x335;" horiz-adv-x="0" 
d="M-400 315v25h350v-25h-350z" />
    <glyph glyph-name="uni0400" unicode="&#x400;" horiz-adv-x="645" 
d="M50 15l60 15v640l-60 15v15h535v-180h-30q-19 15 -33 38q-32 54 -32 117h-215v-315h115q7 38 26 71q8 15 19 29h30v-225h-30q-11 14 -19 29q-19 33 -26 71h-115v-310h235q0 63 32 117q14 23 33 38h30v-180h-555v15zM342 750l-135 150h130l40 -150h-35z" />
    <glyph glyph-name="uni0401" unicode="&#x401;" horiz-adv-x="645" 
d="M200 790q-20 20 -20 50t20 50t50 20t50 -20t20 -50t-20 -50t-50 -20t-50 20zM385 790q-20 20 -20 50t20 50t50 20t50 -20t20 -50t-20 -50t-50 -20t-50 20zM50 15l60 15v640l-60 15v15h535v-180h-30q-19 15 -33 38q-32 54 -32 117h-215v-315h115q7 38 26 71q8 15 19 29h30
v-225h-30q-11 14 -19 29q-19 33 -26 71h-115v-310h235q0 63 32 117q14 23 33 38h30v-180h-555v15z" />
    <glyph glyph-name="uni0402" unicode="&#x402;" horiz-adv-x="770" 
d="M505 -10q25 0 42.5 25t17.5 75v170q0 81 -28 115.5t-87 34.5q-30 0 -64 -15l-26 -15v-350l60 -15v-15h-285v15l60 15v645h-75q0 -61 -33 -117q-14 -23 -32 -38h-30v180h515v-180h-30q-19 15 -33 38q-32 54 -32 117h-85v-270q13 7 35 15q49 15 95 15q122 0 181 -46.5
t59 -128.5v-170q0 -57 -51 -88.5t-174 -31.5v20z" />
    <glyph glyph-name="uni0403" unicode="&#x403;" horiz-adv-x="610" 
d="M50 15l60 15v640l-60 15v15h535v-180h-30q-19 15 -33 38q-32 54 -32 117h-215v-645l60 -15v-15h-285v15zM307 750l40 150h130l-135 -150h-35z" />
    <glyph glyph-name="uni0404" unicode="&#x404;" horiz-adv-x="650" 
d="M135 80q-90 95 -90 270q0 115 39.5 197.5t111 125t165.5 42.5q57 0 115 -33q22 -12 44 -32q17 26 35 41q18 13 20 14h25v-190h-40q-13 48 -39 87q-24 38 -59.5 63t-81.5 25q-69 0 -114.5 -78t-45.5 -252h130q7 38 26 71q8 15 19 29h30v-225h-30q-11 14 -19 29
q-19 33 -26 71h-130q4 -178 52 -251.5t133 -73.5q47 0 89.5 26.5t69 70.5t26.5 93h25q0 -57 -30.5 -106.5t-83 -79t-116.5 -29.5q-160 0 -250 95z" />
    <glyph glyph-name="uni0405" unicode="&#x405;" horiz-adv-x="595" 
d="M162 17q-28 14 -47 33q-14 -23 -35 -41q-18 -13 -20 -14h-25v190h40q15 -49 42 -88q61 -87 158 -87q57 0 91 34t34 91q0 33 -19.5 59t-48.5 46t-81 50q-66 37 -107 67t-70 75.5t-29 107.5q0 49 27.5 88.5t82.5 63t135 23.5q58 0 116 -33q22 -12 44 -32q17 26 35 41
q18 13 20 14h25v-190h-40q-13 48 -39 87q-24 38 -59.5 63t-81.5 25q-39 0 -67 -31t-28 -79q0 -37 21.5 -66.5t53 -51.5t85.5 -53q63 -36 102 -64t66 -69.5t27 -95.5t-31 -98.5t-93 -70.5t-151 -26q-71 0 -133 32z" />
    <glyph glyph-name="uni0406" unicode="&#x406;" horiz-adv-x="385" 
d="M50 0v15l60 15v640l-60 15v15h285v-15l-60 -15v-640l60 -15v-15h-285z" />
    <glyph glyph-name="uni0407" unicode="&#x407;" horiz-adv-x="385" 
d="M50 0v15l60 15v640l-60 15v15h285v-15l-60 -15v-640l60 -15v-15h-285zM50 780q-20 20 -20 50t20 50t50 20t50 -20t20 -50t-20 -50t-50 -20t-50 20zM235 780q-20 20 -20 50t20 50t50 20t50 -20t20 -50t-20 -50t-50 -20t-50 20z" />
    <glyph glyph-name="uni0408" unicode="&#x408;" horiz-adv-x="550" 
d="M46.5 17q-46.5 32 -46.5 78q0 34 20.5 54.5t54.5 20.5q8 0 16 -1.5t11 -1.5l13 -2v-150q7 -4 14 -5q17 -5 36 -5q120 0 120 195v470l-60 15v15h285v-15l-60 -15v-470q0 -104 -65 -159.5t-200 -55.5q-92 0 -138.5 32z" />
    <glyph glyph-name="uni0409" unicode="&#x409;" horiz-adv-x="1000" 
d="M18 10.5q-28 25.5 -28 64.5q0 38 23 61.5t57 23.5q8 0 16 -1.5t11 -1.5l13 -2v-140q33 10 56.5 60.5t28.5 174.5l20 415l-70 20v15h515v-15l-60 -15v-250h65q166 0 238 -53.5t72 -156.5t-72 -156.5t-238 -53.5h-290v15l60 15v645h-190l-20 -425q-8 -143 -44 -204t-91 -61
q-44 0 -72 25.5zM665 25q63 0 101.5 47.5t38.5 137.5t-38.5 137.5t-101.5 47.5h-65v-370h65z" />
    <glyph glyph-name="uni040A" unicode="&#x40a;" horiz-adv-x="1055" 
d="M50 15l60 15v640l-60 15v15h285v-15l-60 -15v-270h215v270l-60 15v15h285v-15l-60 -15v-270h65q165 0 237.5 -52t72.5 -148t-72.5 -148t-237.5 -52h-290v15l60 15v345h-215v-345l60 -15v-15h-285v15zM720 25q62 0 101 45.5t39 129.5t-39 129.5t-101 45.5h-65v-350h65z
" />
    <glyph glyph-name="uni040B" unicode="&#x40b;" horiz-adv-x="805" 
d="M135 15l60 15v645h-75q0 -61 -33 -117q-14 -23 -32 -38h-30v180h515v-180h-30q-19 15 -33 38q-32 54 -32 117h-85v-270q13 7 35 15q49 15 95 15q122 0 181 -46.5t59 -128.5v-230l60 -15v-15h-285v15l60 15v230q0 81 -28 115.5t-87 34.5q-30 0 -64 -15l-26 -15v-350
l60 -15v-15h-285v15z" />
    <glyph glyph-name="uni040C" unicode="&#x40c;" horiz-adv-x="710" 
d="M50 15l60 15v640l-60 15v15h285v-15l-60 -15v-285h50q75 0 100 95l35 130q12 46 39.5 73t65.5 27q44 0 72 -25.5t28 -64.5q0 -38 -23 -61.5t-57 -23.5q-14 0 -28 2l-12 3v140q-17 -4 -32 -22.5t-23 -47.5l-35 -130q-15 -55 -40 -80q-11 -12 -25 -20h25q122 0 150 -85
l90 -265l50 -15v-15h-120q-53 0 -82 22t-43 63l-95 275h-90v-330l60 -15v-15h-285v15zM357 750l40 150h130l-135 -150h-35z" />
    <glyph glyph-name="uni040D" unicode="&#x40d;" horiz-adv-x="785" 
d="M50 0v15l60 15v640l-60 15v15h285v-15l-60 -15v-505l235 430v75l-60 15v15h285v-15l-60 -15v-640l60 -15v-15h-285v15l60 15v505l-235 -430v-75l60 -15v-15h-285zM382 750l-135 150h130l40 -150h-35z" />
    <glyph glyph-name="uni040E" unicode="&#x40e;" horiz-adv-x="660" 
d="M153 10.5q-28 25.5 -28 64.5q0 38 23 61.5t57 23.5q8 0 16 -1.5t11 -1.5l13 -2v-140q52 8 100 125l-305 530l-50 15v15h130q49 0 80 -22.5t55 -62.5l169 -293l146 333l-75 30v15h185v-15l-80 -30l-225 -515q-35 -82 -71 -118.5t-79 -36.5q-44 0 -72 25.5zM246.5 794
q-36.5 24 -36.5 61q0 26 17 43t43 17q2 0 23 -3l12 -2v-110q1 0 14.5 -5t40.5 -5t40.5 5t14.5 5v110l12 2q21 3 23 3q26 0 43 -17t17 -43q0 -37 -36.5 -61t-113.5 -24t-113.5 24z" />
    <glyph glyph-name="uni040F" unicode="&#x40f;" horiz-adv-x="765" 
d="M347 -120q-17 55 -17 120h-280v15l60 15v640l-60 15v15h285v-15l-60 -15v-645h215v645l-60 15v15h285v-15l-60 -15v-640l60 -15v-15h-280q0 -62 -18 -120q-7 -23 -17 -45h-35q-10 19 -18 45z" />
    <glyph glyph-name="uni0410" unicode="&#x410;" horiz-adv-x="680" 
d="M-20 15l80 30l275 665h30l285 -680l50 -15v-15h-120q-52 0 -85 23.5t-49 61.5l-51 120h-239l-66 -160l75 -30v-15h-185v15zM166 230h219l-110 263z" />
    <glyph glyph-name="uni0411" unicode="&#x411;" horiz-adv-x="670" 
d="M50 15l60 15v640l-60 15v15h530v-180h-30q-19 15 -33 38q-32 54 -32 117h-210v-265h55q165 0 237.5 -53t72.5 -152t-72.5 -152t-237.5 -53h-280v15zM330 25q63 0 101.5 46.5t38.5 133.5t-38.5 133.5t-101.5 46.5h-55v-360h55z" />
    <glyph glyph-name="uni0412" unicode="&#x412;" horiz-adv-x="680" 
d="M50 15l60 15v640l-60 15v15h270q152 0 223.5 -48.5t71.5 -126.5q0 -54 -31 -87t-79 -49q-51 -18 -110 -19v-5q73 -3 127 -22q55 -18 91.5 -56t36.5 -97q0 -89 -73 -139.5t-237 -50.5h-290v15zM320 380q33 0 61.5 18.5t46 52t17.5 74.5q0 44 -17.5 78t-46 53t-61.5 19h-45
v-295h45zM340 25q62 0 101 44t39 121t-39 121t-101 44h-65v-330h65z" />
    <glyph glyph-name="uni0413" unicode="&#x413;" horiz-adv-x="610" 
d="M50 15l60 15v640l-60 15v15h535v-180h-30q-19 15 -33 38q-32 54 -32 117h-215v-645l60 -15v-15h-285v15z" />
    <glyph glyph-name="uni0414" unicode="&#x414;" horiz-adv-x="700" 
d="M-10 25h80q24 18 49 52q51 73 56 173l20 415l-70 20v15h525v-15l-60 -15v-645h95v-195h-30q-24 17 -43 44q-42 58 -42 126h-465q0 -67 -43 -126q-19 -27 -42 -44h-30v195zM425 25v650h-200l-20 -425q-5 -101 -53 -173q-22 -33 -47 -52h320z" />
    <glyph glyph-name="uni0415" unicode="&#x415;" horiz-adv-x="645" 
d="M50 15l60 15v640l-60 15v15h535v-180h-30q-19 15 -33 38q-32 54 -32 117h-215v-315h115q7 38 26 71q8 15 19 29h30v-225h-30q-11 14 -19 29q-19 33 -26 71h-115v-310h235q0 63 32 117q14 23 33 38h30v-180h-555v15z" />
    <glyph glyph-name="uni0416" unicode="&#x416;" horiz-adv-x="1025" 
d="M5 15l50 15l90 265q28 85 150 85h24q-3 0 -15 10.5t-26 33t-23 56.5l-35 130q-8 29 -23 47.5t-32 22.5v-140l-13 -3q-16 -2 -27 -2q-34 0 -57 23.5t-23 61.5q0 39 28 64.5t72 25.5q38 0 65.5 -27t39.5 -73l35 -130q25 -95 100 -95h45v285l-60 15v15h285v-15l-60 -15v-285
h45q75 0 100 95l35 130q12 46 39.5 73t65.5 27q44 0 72 -25.5t28 -64.5q0 -38 -23 -61.5t-57 -23.5q-14 0 -28 2l-12 3v140q-17 -4 -32 -22.5t-23 -47.5l-35 -130q-15 -55 -40 -80q-11 -12 -25 -20h25q122 0 150 -85l90 -265l50 -15v-15h-120q-53 0 -82 22t-43 63l-95 275
h-85v-330l60 -15v-15h-285v15l60 15v330h-85l-95 -275q-14 -41 -43 -63t-82 -22h-120v15z" />
    <glyph glyph-name="uni0417" unicode="&#x417;" horiz-adv-x="615" 
d="M145.5 14.5q-57.5 29.5 -89 78.5t-31.5 107h25q0 -50 27.5 -93.5t74.5 -70t103 -26.5q76 0 118 44t42 126q0 84 -39 129.5t-101 45.5h-75v25h65q55 0 87.5 39.5t32.5 115.5t-32 115.5t-83 39.5q-44 0 -78.5 -25t-57.5 -63q-25 -39 -39 -87h-40v190h25q2 -1 20 -14
q18 -15 35 -41q22 20 44 32q56 33 111 33q84 0 144 -25.5t90.5 -66.5t30.5 -88q0 -102 -110 -144q-48 -18 -110 -21v-5q68 -3 125 -23q125 -49 125 -162q0 -55 -32.5 -99t-102 -70t-175.5 -26q-72 0 -129.5 29.5z" />
    <glyph glyph-name="uni0418" unicode="&#x418;" horiz-adv-x="785" 
d="M50 0v15l60 15v640l-60 15v15h285v-15l-60 -15v-505l235 430v75l-60 15v15h285v-15l-60 -15v-640l60 -15v-15h-285v15l60 15v505l-235 -430v-75l60 -15v-15h-285z" />
    <glyph glyph-name="uni0419" unicode="&#x419;" horiz-adv-x="785" 
d="M276.5 794q-36.5 24 -36.5 61q0 26 17 43t43 17q2 0 23 -3l12 -2v-110q1 0 14.5 -5t40.5 -5t40.5 5t14.5 5v110l12 2q21 3 23 3q26 0 43 -17t17 -43q0 -37 -36.5 -61t-113.5 -24t-113.5 24zM50 0v15l60 15v640l-60 15v15h285v-15l-60 -15v-505l235 430v75l-60 15v15h285
v-15l-60 -15v-640l60 -15v-15h-285v15l60 15v505l-235 -430v-75l60 -15v-15h-285z" />
    <glyph glyph-name="uni041A" unicode="&#x41a;" horiz-adv-x="710" 
d="M50 15l60 15v640l-60 15v15h285v-15l-60 -15v-285h50q75 0 100 95l35 130q12 46 39.5 73t65.5 27q44 0 72 -25.5t28 -64.5q0 -38 -23 -61.5t-57 -23.5q-14 0 -28 2l-12 3v140q-17 -4 -32 -22.5t-23 -47.5l-35 -130q-15 -55 -40 -80q-11 -12 -25 -20h25q122 0 150 -85
l90 -265l50 -15v-15h-120q-53 0 -82 22t-43 63l-95 275h-90v-330l60 -15v-15h-285v15z" />
    <glyph glyph-name="uni041B" unicode="&#x41b;" horiz-adv-x="710" 
d="M18 10.5q-28 25.5 -28 64.5q0 38 23 61.5t57 23.5q8 0 16 -1.5t11 -1.5l13 -2v-140q33 10 56.5 60.5t28.5 174.5l20 415l-70 20v15h515v-15l-60 -15v-640l60 -15v-15h-285v15l60 15v645h-190l-20 -425q-8 -143 -44 -204t-91 -61q-44 0 -72 25.5z" />
    <glyph glyph-name="uni041C" unicode="&#x41c;" horiz-adv-x="985" 
d="M140 575v-530l80 -30v-15h-190v15l80 30v625l-70 15v15h135q52 0 82.5 -21.5t52.5 -63.5l218 -417l167 417q17 44 46 64.5t89 20.5h105v-15l-60 -15v-640l60 -15v-15h-285v15l60 15v545l-235 -585h-30z" />
    <glyph glyph-name="uni041D" unicode="&#x41d;" horiz-adv-x="765" 
d="M50 0v15l60 15v640l-60 15v15h285v-15l-60 -15v-310h215v310l-60 15v15h285v-15l-60 -15v-640l60 -15v-15h-285v15l60 15v305h-215v-305l60 -15v-15h-285z" />
    <glyph glyph-name="uni041E" unicode="&#x41e;" horiz-adv-x="740" 
d="M198.5 27.5q-73.5 42.5 -113.5 124.5t-40 198t40 198t113.5 124.5t171.5 42.5t171.5 -42.5t113.5 -124.5t40 -198t-40 -198t-113.5 -124.5t-171.5 -42.5t-171.5 42.5zM442.5 38q33.5 33 55.5 110t22 202t-22 202t-55.5 110t-72.5 33t-72.5 -33t-55.5 -110t-22 -202
t22 -202t55.5 -110t72.5 -33t72.5 33z" />
    <glyph glyph-name="uni041F" unicode="&#x41f;" horiz-adv-x="765" 
d="M50 0v15l60 15v640l-60 15v15h665v-15l-60 -15v-640l60 -15v-15h-285v15l60 15v645h-215v-645l60 -15v-15h-285z" />
    <glyph glyph-name="uni0420" unicode="&#x420;" horiz-adv-x="675" 
d="M50 15l60 15v640l-60 15v15h280q166 0 238 -54.5t72 -160.5t-72 -160.5t-238 -54.5h-55v-240l60 -15v-15h-285v15zM330 295q63 0 101.5 48t38.5 142q0 93 -38.5 141.5t-101.5 48.5h-55v-380h55z" />
    <glyph glyph-name="uni0421" unicode="&#x421;" horiz-adv-x="650" 
d="M135 80q-90 95 -90 270q0 115 39.5 197.5t111 125t165.5 42.5q57 0 115 -33q22 -12 44 -32q17 26 35 41q18 13 20 14h25v-190h-40q-13 48 -39 87q-24 38 -59.5 63t-81.5 25q-69 0 -114.5 -80t-45.5 -260q0 -183 49.5 -261.5t135.5 -78.5q47 0 89.5 26.5t69 70.5t26.5 93
h25q0 -57 -30.5 -106.5t-83 -79t-116.5 -29.5q-160 0 -250 95z" />
    <glyph glyph-name="uni0422" unicode="&#x422;" horiz-adv-x="635" 
d="M175 15l60 15v645h-115q0 -61 -33 -117q-14 -23 -32 -38h-30v180h585v-180h-30q-19 15 -33 38q-32 54 -32 117h-115v-645l60 -15v-15h-285v15z" />
    <glyph glyph-name="uni0423" unicode="&#x423;" horiz-adv-x="660" 
d="M153 10.5q-28 25.5 -28 64.5q0 38 23 61.5t57 23.5q8 0 16 -1.5t11 -1.5l13 -2v-140q52 8 100 125l-305 530l-50 15v15h130q49 0 80 -22.5t55 -62.5l169 -293l146 333l-75 30v15h185v-15l-80 -30l-225 -515q-35 -82 -71 -118.5t-79 -36.5q-44 0 -72 25.5z" />
    <glyph glyph-name="uni0424" unicode="&#x424;" horiz-adv-x="895" 
d="M305 15l60 15v55q-109 5 -187 42.5t-118 98t-40 134.5t40 134.5t118 98t187 42.5v50l-60 15v15h285v-15l-60 -15v-50q109 -5 187 -42.5t118 -98t40 -134.5t-40 -134.5t-118 -98t-187 -42.5v-55l60 -15v-15h-285v15zM365 615q-73 -9 -121.5 -73.5t-48.5 -181.5
t48.5 -181.5t121.5 -73.5v510zM651.5 178.5q48.5 64.5 48.5 181.5t-48.5 181.5t-121.5 73.5v-510q73 9 121.5 73.5z" />
    <glyph glyph-name="uni0425" unicode="&#x425;" horiz-adv-x="665" 
d="M15 15l80 30l170 251l-220 374l-50 15v15h145q50 0 79.5 -21t55.5 -64l96 -164l139 204l-75 30v15h190v-15l-80 -30l-157 -231l232 -394l50 -15v-15h-145q-49 0 -79 21t-56 64l-108 183l-152 -223l75 -30v-15h-190v15z" />
    <glyph glyph-name="uni0426" unicode="&#x426;" horiz-adv-x="765" 
d="M677 -126q-42 58 -42 126h-585v15l60 15v640l-60 15v15h285v-15l-60 -15v-645h215v645l-60 15v15h285v-15l-60 -15v-645h95v-195h-30q-24 17 -43 44z" />
    <glyph glyph-name="uni0427" unicode="&#x427;" horiz-adv-x="725" 
d="M390 15l60 15v265q-18 -10 -35 -15q-43 -15 -95 -15q-123 0 -181.5 46t-58.5 129v230l-60 15v15h285v-15l-60 -15v-230q0 -81 28 -115.5t87 -34.5q34 0 64 15q15 7 26 15v350l-60 15v15h285v-15l-60 -15v-640l60 -15v-15h-285v15z" />
    <glyph glyph-name="uni0428" unicode="&#x428;" horiz-adv-x="1085" 
d="M50 0v15l60 15v640l-60 15v15h285v-15l-60 -15v-645h185v645l-60 15v15h285v-15l-60 -15v-645h185v645l-60 15v15h285v-15l-60 -15v-640l60 -15v-15h-985z" />
    <glyph glyph-name="uni0429" unicode="&#x429;" horiz-adv-x="1085" 
d="M997 -126q-42 58 -42 126h-905v15l60 15v640l-60 15v15h285v-15l-60 -15v-645h185v645l-60 15v15h285v-15l-60 -15v-645h185v645l-60 15v15h285v-15l-60 -15v-645h95v-195h-30q-24 17 -43 44z" />
    <glyph glyph-name="uni042A" unicode="&#x42a;" horiz-adv-x="755" 
d="M140 15l60 15v645h-80q0 -61 -33 -117q-14 -23 -32 -38h-30v180h400v-15l-60 -15v-250h55q166 0 238 -53.5t72 -156.5t-72 -156.5t-238 -53.5h-280v15zM420 25q63 0 101.5 47.5t38.5 137.5t-38.5 137.5t-101.5 47.5h-55v-370h55z" />
    <glyph glyph-name="uni042B" unicode="&#x42b;" horiz-adv-x="1015" 
d="M50 15l60 15v640l-60 15v15h285v-15l-60 -15v-250h65q166 0 238 -53.5t72 -156.5t-72 -156.5t-238 -53.5h-290v15zM680 0v15l60 15v640l-60 15v15h285v-15l-60 -15v-640l60 -15v-15h-285zM340 25q63 0 101.5 47.5t38.5 137.5t-38.5 137.5t-101.5 47.5h-65v-370h65z" />
    <glyph glyph-name="uni042C" unicode="&#x42c;" horiz-adv-x="675" 
d="M50 15l60 15v640l-60 15v15h285v-15l-60 -15v-250h65q166 0 238 -53.5t72 -156.5t-72 -156.5t-238 -53.5h-290v15zM340 25q63 0 101.5 47.5t38.5 137.5t-38.5 137.5t-101.5 47.5h-65v-370h65z" />
    <glyph glyph-name="uni042D" unicode="&#x42d;" horiz-adv-x="650" 
d="M148.5 14.5q-52.5 29.5 -83 79t-30.5 106.5h25q0 -49 26.5 -93t69 -70.5t89.5 -26.5q85 0 133 73.5t52 251.5h-130q-7 -38 -26 -71q-8 -15 -19 -29h-30v225h30q11 -14 19 -29q19 -33 26 -71h130q0 118 -22.5 192t-58.5 106t-79 32q-85 0 -141 -88q-25 -39 -39 -87h-40
v190h25q2 -1 20 -14q18 -15 35 -41q22 20 44 32q58 33 115 33q94 0 165.5 -42.5t111 -125t39.5 -197.5q0 -175 -90 -270t-250 -95q-64 0 -116.5 29.5z" />
    <glyph glyph-name="uni042E" unicode="&#x42e;" horiz-adv-x="1015" 
d="M510.5 26q-68.5 41 -108.5 120t-42 189h-85v-305l60 -15v-15h-285v15l60 15v640l-60 15v15h285v-15l-60 -15v-310h85q2 113 41 193t107 121t157 41q88 0 157.5 -43t108.5 -125t39 -197t-39 -197t-108.5 -125t-157.5 -43q-86 0 -154.5 41zM757 83.5q38 78.5 38 266.5
t-38 266.5t-92 78.5t-92 -78.5t-38 -266.5t38 -266.5t92 -78.5t92 78.5z" />
    <glyph glyph-name="uni042F" unicode="&#x42f;" horiz-adv-x="705" 
d="M5 15l50 15l90 200q26 58 92 79q27 9 63 11v5q-63 1 -115 22q-50 18 -82.5 57t-32.5 101q0 93 74.5 144t245.5 51h265v-15l-60 -15v-640l60 -15v-15h-295v15l70 15v280h-70l-100 -225q-38 -85 -120 -85h-135v15zM430 335v340h-40q-70 0 -110 -44t-40 -126t40 -126
t110 -44h40z" />
    <glyph glyph-name="uni0430" unicode="&#x430;" horiz-adv-x="605" 
d="M98 23q-48 38 -48 97q0 39 17 77q7 18 18 33q41 10 89 18q108 18 191 22v30q0 111 -27 153t-83 42q-21 0 -36 -5l-14 -5v-150l-13 -3q-16 -2 -27 -2q-34 0 -54.5 20.5t-20.5 54.5q0 46 46.5 78t138.5 32q78 0 134.5 -27.5t86 -76t29.5 -111.5v-270l60 -15v-15h-90
q-60 0 -93 37q-14 15 -22 38q-14 -25 -33 -45q-45 -45 -112 -45q-89 0 -137 38zM342 60q11 15 23 40v145q-46 0 -88 -5q-31 -4 -42 -5q-5 -11 -10 -30q-10 -38 -10 -75q0 -56 17 -83t43 -27q37 0 67 40z" />
    <glyph glyph-name="uni0431" unicode="&#x431;" horiz-adv-x="600" 
d="M115 50q-65 65 -65 190v60q0 178 57.5 259.5t167.5 100.5l230 40l15 50h15v-90q0 -44 -21 -68t-64 -32l-230 -40q-34 -6 -65 -32.5t-50.5 -74t-19.5 -113.5q10 36 40.5 72t77 59.5t102.5 23.5q124 0 189.5 -62.5t65.5 -172.5t-65.5 -172.5t-189.5 -62.5q-125 0 -190 65z
M365.5 54q24.5 49 24.5 166t-24.5 166t-60.5 49t-60.5 -49t-24.5 -166t24.5 -166t60.5 -49t60.5 49z" />
    <glyph glyph-name="uni0432" unicode="&#x432;" horiz-adv-x="605" 
d="M40 15l60 15v440l-60 15v15h255q87 0 143.5 -18t81.5 -46.5t25 -60.5q0 -40 -25.5 -65t-64.5 -36q-42 -13 -90 -14v-5q59 -1 105 -15q46 -15 75.5 -39.5t29.5 -65.5q0 -59 -61.5 -97t-198.5 -38h-275v15zM295 270q35 0 60 29t25 76q0 44 -25 72t-60 28h-35v-205h35z
M315 25q43 0 69 29t26 81t-26 81t-69 29h-55v-220h55z" />
    <glyph glyph-name="uni0433" unicode="&#x433;" horiz-adv-x="530" 
d="M40 15l60 15v440l-60 15v15h465v-175h-30q-19 17 -33 39q-32 54 -32 111h-150v-445l60 -15v-15h-280v15z" />
    <glyph glyph-name="uni0434" unicode="&#x434;" horiz-adv-x="615" 
d="M-10 25h80q16 11 35 35q35 44 40 110l20 295l-70 20v15h475v-15l-60 -15v-445h90v-190h-30q-26 17 -43 41q-42 54 -42 124h-380q0 -69 -43 -124q-17 -24 -42 -41h-30v190zM350 25v450h-155l-20 -305q-5 -63 -38 -110q-15 -21 -32 -35h245z" />
    <glyph glyph-name="uni0435" unicode="&#x435;" 
d="M111 55.5q-71 70.5 -71 194.5q0 81 31 141t86.5 92t127.5 32t126.5 -27t84 -72.5t29.5 -100.5q0 -25 -5 -43l-5 -17q-43 -9 -93 -15q-105 -15 -212 -15q0 -116 32 -165.5t88 -49.5q39 0 72.5 18.5t53 49t19.5 62.5h25q0 -40 -24 -76t-67 -57.5t-99 -21.5
q-128 0 -199 70.5zM314 255q17 1 36 5q1 5 5 22q5 25 5 53q0 83 -22 121.5t-53 38.5q-75 0 -75 -245q64 0 104 5z" />
    <glyph glyph-name="uni0436" unicode="&#x436;" horiz-adv-x="880" 
d="M5 15l50 15l50 155q14 38 47.5 61.5t92.5 23.5h30q-14 6 -22 14q-25 23 -33 56l-25 90q-10 42 -40 50v-135l-13 -3q-16 -2 -27 -2q-34 0 -54.5 21t-20.5 59q0 42 25 66t70 24q66 0 90 -80l25 -90q9 -29 28 -47t47 -18h35v195l-60 15v15h280v-15l-60 -15v-195h30
q29 0 50 18.5t30 46.5l25 90q24 80 90 80q45 0 70 -24t25 -66q0 -38 -20.5 -59t-54.5 -21q-14 0 -28 2l-12 3v135q-30 -8 -40 -50l-25 -90q-10 -35 -33 -56q-8 -8 -22 -14h30q59 0 92.5 -23.5t47.5 -61.5l50 -155l50 -15v-15h-105q-53 0 -85.5 24t-44.5 61l-55 165h-65v-220
l60 -15v-15h-280v15l60 15v220h-65l-55 -165q-12 -37 -44.5 -61t-85.5 -24h-105v15z" />
    <glyph glyph-name="uni0437" unicode="&#x437;" horiz-adv-x="530" 
d="M127.5 6.5q-47.5 21.5 -72.5 57t-25 76.5h25q0 -33 21 -63t58.5 -48.5t85.5 -18.5q115 0 115 120q0 58 -26 89t-69 31h-65v25h45q43 0 69 29t26 81t-26 81t-69 29q-25 0 -43 -5l-17 -5v-150l-13 -3q-16 -2 -27 -2q-34 0 -54.5 20.5t-20.5 54.5q0 46 48.5 78t146.5 32
q83 0 137 -18t78.5 -47.5t24.5 -64.5q0 -42 -25.5 -66t-67.5 -39q-41 -14 -92 -15v-5q53 -1 102 -16q45 -14 74 -41.5t29 -72.5q0 -66 -61 -105.5t-199 -39.5q-65 0 -112.5 21.5z" />
    <glyph glyph-name="uni0438" unicode="&#x438;" horiz-adv-x="680" 
d="M40 0v15l60 15v440l-60 15v15h280v-15l-60 -15v-330l160 275v55l-60 15v15h280v-15l-60 -15v-440l60 -15v-15h-280v15l60 15v330l-160 -275v-55l60 -15v-15h-280z" />
    <glyph glyph-name="uni0439" unicode="&#x439;" horiz-adv-x="680" 
d="M226.5 594q-36.5 24 -36.5 61q0 26 17 43t43 17q2 0 23 -3l12 -2v-110q1 0 14.5 -5t40.5 -5t40.5 5t14.5 5v110l12 2q21 3 23 3q26 0 43 -17t17 -43q0 -37 -36.5 -61t-113.5 -24t-113.5 24zM40 0v15l60 15v440l-60 15v15h280v-15l-60 -15v-330l160 275v55l-60 15v15h280
v-15l-60 -15v-440l60 -15v-15h-280v15l60 15v330l-160 -275v-55l60 -15v-15h-280z" />
    <glyph glyph-name="uni043A" unicode="&#x43a;" horiz-adv-x="625" 
d="M40 15l60 15v440l-60 15v15h280v-15l-60 -15v-195h35q29 0 50 18.5t30 46.5l25 90q24 80 90 80q45 0 70 -24t25 -66q0 -38 -20.5 -59t-54.5 -21q-14 0 -28 2l-12 3v135q-30 -8 -40 -50l-25 -90q-10 -35 -33 -56q-8 -8 -22 -14h30q59 0 92.5 -23.5t47.5 -61.5l50 -155
l50 -15v-15h-105q-53 0 -85.5 24t-44.5 61l-55 165h-70v-220l60 -15v-15h-280v15z" />
    <glyph glyph-name="uni043B" unicode="&#x43b;" horiz-adv-x="625" 
d="M15 9q-25 24 -25 66q0 33 22.5 56.5t52.5 23.5q8 0 16 -1.5t11 -1.5l13 -2v-135q24 11 42 44t23 111l20 295l-70 20v15h465v-15l-60 -15v-440l60 -15v-15h-280v15l60 15v445h-145l-20 -305q-6 -95 -38 -140t-77 -45t-70 24z" />
    <glyph glyph-name="uni043C" unicode="&#x43c;" horiz-adv-x="810" 
d="M130 380v-335l80 -30v-15h-190v15l80 30v425l-70 15v15h135q49 0 79 -21t51 -59l136 -241l109 241q19 40 48 60t82 20h100v-15l-60 -15v-440l60 -15v-15h-280v15l60 15v350l-176 -390h-24z" />
    <glyph glyph-name="uni043D" unicode="&#x43d;" horiz-adv-x="670" 
d="M40 0v15l60 15v440l-60 15v15h280v-15l-60 -15v-205h150v205l-60 15v15h280v-15l-60 -15v-440l60 -15v-15h-280v15l60 15v210h-150v-210l60 -15v-15h-280z" />
    <glyph glyph-name="uni043E" unicode="&#x43e;" horiz-adv-x="610" 
d="M110.5 55.5q-70.5 70.5 -70.5 194.5t70.5 194.5t194.5 70.5t194.5 -70.5t70.5 -194.5t-70.5 -194.5t-194.5 -70.5t-194.5 70.5zM372.5 61q27.5 56 27.5 189t-27.5 189t-67.5 56t-67.5 -56t-27.5 -189t27.5 -189t67.5 -56t67.5 56z" />
    <glyph glyph-name="uni043F" unicode="&#x43f;" horiz-adv-x="670" 
d="M40 0v15l60 15v440l-60 15v15h590v-15l-60 -15v-440l60 -15v-15h-280v15l60 15v445h-150v-445l60 -15v-15h-280z" />
    <glyph glyph-name="uni0440" unicode="&#x440;" horiz-adv-x="625" 
d="M30 -185l60 15v640l-60 15v15h90q59 0 93 -38q13 -15 22 -37q13 26 33 45q45 45 112 45q59 0 105 -30.5t73 -90t27 -144.5q0 -128 -59.5 -196.5t-160.5 -68.5q-48 0 -84 20q-15 7 -31 20v-195l60 -15v-15h-280v15zM391.5 65q23.5 50 23.5 185q0 129 -21.5 179.5
t-53.5 50.5q-38 0 -68 -40q-13 -17 -22 -40v-345q14 -14 22 -20q27 -20 53 -20q43 0 66.5 50z" />
    <glyph glyph-name="uni0441" unicode="&#x441;" horiz-adv-x="530" 
d="M111 55.5q-71 70.5 -71 194.5t71 194.5t199 70.5q92 0 138.5 -32t46.5 -78q0 -34 -20.5 -54.5t-54.5 -20.5q-14 0 -28 2l-12 3v150l-14 5q-15 5 -36 5q-57 0 -88.5 -54t-31.5 -191q0 -133 31.5 -186.5t88.5 -53.5q39 0 72.5 18.5t53 49t19.5 62.5h25q0 -40 -24 -76
t-67 -57.5t-99 -21.5q-128 0 -199 70.5z" />
    <glyph glyph-name="uni0442" unicode="&#x442;" horiz-adv-x="550" 
d="M135 15l60 15v445h-75q0 -55 -33 -111q-13 -21 -32 -39h-30v175h500v-175h-30q-19 17 -33 39q-32 54 -32 111h-75v-445l60 -15v-15h-280v15z" />
    <glyph glyph-name="uni0443" unicode="&#x443;" 
d="M80 -191q-25 24 -25 66q0 38 20.5 59t54.5 21q8 0 16 -1.5t11 -1.5l13 -2v-135q29 5 51 32t49 93l20 50l-260 480l-50 15v15h125q52 0 82.5 -21.5t52.5 -63.5l125 -231l105 271l-75 30v15h185v-15l-80 -30l-200 -515q-32 -82 -68 -118.5t-82 -36.5q-45 0 -70 24z" />
    <glyph glyph-name="uni0444" unicode="&#x444;" horiz-adv-x="810" 
d="M265 -185l60 15v165q-90 2 -157 36t-102.5 91.5t-35.5 127.5t35.5 127.5t102.5 91.5t157 36v165l-60 15v15h130q90 0 90 -90v-105q90 -2 157 -36t102.5 -91.5t35.5 -127.5t-35.5 -127.5t-102.5 -91.5t-157 -36v-165l60 -15v-15h-280v15zM325 485q-55 -4 -90 -60t-35 -175
t35 -175t90 -60v470zM575 75q35 56 35 175t-35 175t-90 60v-470q55 4 90 60z" />
    <glyph glyph-name="uni0445" unicode="&#x445;" horiz-adv-x="555" 
d="M10 15l80 30l124 159l-169 266l-50 15v15h135q48 0 78 -21.5t57 -63.5l51 -81l94 121l-75 30v15h190v-15l-80 -30l-114 -145l179 -280l50 -15v-15h-135q-48 0 -78 21t-57 64l-60 94l-105 -134l75 -30v-15h-190v15z" />
    <glyph glyph-name="uni0446" unicode="&#x446;" horiz-adv-x="675" 
d="M587 -124q-42 54 -42 124h-505v15l60 15v440l-60 15v15h280v-15l-60 -15v-445h150v445l-60 15v15h280v-15l-60 -15v-445h90v-190h-30q-26 17 -43 41z" />
    <glyph glyph-name="uni0447" unicode="&#x447;" horiz-adv-x="635" 
d="M315 15l60 15v175q-20 -12 -48.5 -18.5t-56.5 -6.5q-98 0 -146.5 39t-48.5 106v145l-60 15v15h280v-15l-60 -15v-145q0 -65 19.5 -92.5t55.5 -27.5q40 0 65 25v240l-60 15v15h280v-15l-60 -15v-440l60 -15v-15h-280v15z" />
    <glyph glyph-name="uni0448" unicode="&#x448;" horiz-adv-x="940" 
d="M40 0v15l60 15v440l-60 15v15h275v-15l-55 -15v-445h130v445l-55 15v15h270v-15l-55 -15v-445h130v445l-55 15v15h275v-15l-60 -15v-440l60 -15v-15h-860z" />
    <glyph glyph-name="uni0449" unicode="&#x449;" horiz-adv-x="945" 
d="M857 -124q-42 54 -42 124h-775v15l60 15v440l-60 15v15h275v-15l-55 -15v-445h130v445l-55 15v15h270v-15l-55 -15v-445h130v445l-55 15v15h275v-15l-60 -15v-445h90v-190h-30q-26 17 -43 41z" />
    <glyph glyph-name="uni044A" unicode="&#x44a;" horiz-adv-x="670" 
d="M130 15l60 15v445h-70q0 -55 -33 -111q-13 -21 -32 -39h-30v175h385v-15l-60 -15v-170h40q260 0 260 -150t-260 -150h-260v15zM390 25q44 0 69.5 31.5t25.5 93.5t-25.5 93.5t-69.5 31.5h-40v-250h40z" />
    <glyph glyph-name="uni044B" unicode="&#x44b;" horiz-adv-x="910" 
d="M40 15l60 15v440l-60 15v15h280v-15l-60 -15v-170h50q260 0 260 -150t-260 -150h-270v15zM590 0v15l60 15v440l-60 15v15h280v-15l-60 -15v-440l60 -15v-15h-280zM310 25q44 0 69.5 31.5t25.5 93.5t-25.5 93.5t-69.5 31.5h-50v-250h50z" />
    <glyph glyph-name="uni044C" unicode="&#x44c;" horiz-adv-x="590" 
d="M40 15l60 15v440l-60 15v15h280v-15l-60 -15v-170h50q260 0 260 -150t-260 -150h-270v15zM310 25q44 0 69.5 31.5t25.5 93.5t-25.5 93.5t-69.5 31.5h-50v-250h50z" />
    <glyph glyph-name="uni044D" unicode="&#x44d;" horiz-adv-x="530" 
d="M121 6.5q-43 21.5 -67 57.5t-24 76h25q0 -32 19.5 -62.5t53 -49t72.5 -18.5q54 0 85 48.5t35 171.5h-75q-6 -22 -24 -53q-5 -8 -9 -13t-7 -9h-25v175h25l16 -23q19 -31 24 -52h75q0 133 -31.5 186.5t-88.5 53.5q-21 0 -36 -5l-14 -5v-150l-13 -3q-16 -2 -27 -2
q-34 0 -54.5 20.5t-20.5 54.5q0 46 46.5 78t138.5 32q127 0 198.5 -70.5t71.5 -194.5t-71.5 -194.5t-198.5 -70.5q-56 0 -99 21.5z" />
    <glyph glyph-name="uni044E" unicode="&#x44e;" horiz-adv-x="885" 
d="M408 53q-69 68 -73 187h-75v-210l60 -15v-15h-280v15l60 15v440l-60 15v15h280v-15l-60 -15v-205h75q2 77 34.5 133.5t89 86.5t131.5 30q77 0 134.5 -32t89 -91.5t31.5 -141.5t-31.5 -141.5t-89 -91.5t-134.5 -32q-113 0 -182 68zM650.5 59.5q24.5 54.5 24.5 190.5
t-24.5 190.5t-60.5 54.5t-60.5 -54.5t-24.5 -190.5t24.5 -190.5t60.5 -54.5t60.5 54.5z" />
    <glyph glyph-name="uni044F" unicode="&#x44f;" horiz-adv-x="630" 
d="M5 15l50 15l40 120q16 48 85 70q28 8 65 10v5q-46 1 -90 16q-90 32 -90 109q0 62 61.5 101t198.5 39h265v-15l-60 -15v-440l60 -15v-15h-280v15l60 15v190h-80l-45 -140q-11 -33 -42.5 -56.5t-77.5 -23.5h-120v15zM370 245v230h-45q-43 0 -69 -29.5t-26 -85.5t26 -85.5
t69 -29.5h45z" />
    <glyph glyph-name="uni0450" unicode="&#x450;" 
d="M111 55.5q-71 70.5 -71 194.5q0 81 31 141t86.5 92t127.5 32t126.5 -27t84 -72.5t29.5 -100.5q0 -25 -5 -43l-5 -17q-43 -9 -93 -15q-105 -15 -212 -15q0 -116 32 -165.5t88 -49.5q39 0 72.5 18.5t53 49t19.5 62.5h25q0 -40 -24 -76t-67 -57.5t-99 -21.5
q-128 0 -199 70.5zM314 255q17 1 36 5q1 5 5 22q5 25 5 53q0 83 -22 121.5t-53 38.5q-75 0 -75 -245q64 0 104 5zM269 550l-135 150h130l40 -150h-35z" />
    <glyph glyph-name="uni0451" unicode="&#x451;" 
d="M140 600q-20 20 -20 50t20 50t50 20t50 -20t20 -50t-20 -50t-50 -20t-50 20zM325 600q-20 20 -20 50t20 50t50 20t50 -20t20 -50t-20 -50t-50 -20t-50 20zM111 55.5q-71 70.5 -71 194.5q0 81 31 141t86.5 92t127.5 32t126.5 -27t84 -72.5t29.5 -100.5q0 -25 -5 -43
l-5 -17q-43 -9 -93 -15q-105 -15 -212 -15q0 -116 32 -165.5t88 -49.5q39 0 72.5 18.5t53 49t19.5 62.5h25q0 -40 -24 -76t-67 -57.5t-99 -21.5q-128 0 -199 70.5zM314 255q17 1 36 5q1 5 5 22q5 25 5 53q0 83 -22 121.5t-53 38.5q-75 0 -75 -245q64 0 104 5z" />
    <glyph glyph-name="uni0452" unicode="&#x452;" horiz-adv-x="655" 
d="M365 -10q25 0 42.5 25t17.5 75v230q0 63 -22.5 96.5t-52.5 33.5q-38 0 -68 -40q-13 -17 -22 -40v-340l60 -15v-15h-280v15l60 15v515h-65v25h65v100l-60 15v15h130q90 0 90 -90v-40h125v-25h-125v-125q15 20 31 32q43 33 99 33t100.5 -23.5t69.5 -61.5t25 -80v-230
q0 -57 -50 -88.5t-170 -31.5v20z" />
    <glyph glyph-name="uni0453" unicode="&#x453;" horiz-adv-x="530" 
d="M40 15l60 15v440l-60 15v15h465v-175h-30q-19 17 -33 39q-32 54 -32 111h-150v-445l60 -15v-15h-280v15zM297 550l40 150h130l-135 -150h-35z" />
    <glyph glyph-name="uni0454" unicode="&#x454;" horiz-adv-x="530" 
d="M111 55.5q-71 70.5 -71 194.5t71 194.5t199 70.5q92 0 138.5 -32t46.5 -78q0 -34 -20.5 -54.5t-54.5 -20.5q-14 0 -28 2l-12 3v150l-14 5q-15 5 -36 5q-57 0 -88.5 -53.5t-31.5 -186.5h75q5 21 24 52l16 23h25v-175h-25q-3 4 -7 9t-9 13q-18 31 -24 53h-75
q4 -123 35 -171.5t85 -48.5q39 0 72.5 18.5t53 49t19.5 62.5h25q0 -40 -24 -76t-67 -57.5t-99 -21.5q-128 0 -199 70.5z" />
    <glyph glyph-name="uni0455" unicode="&#x455;" horiz-adv-x="540" 
d="M164 12q-24 13 -39 28q-16 -22 -35 -34q-9 -6 -20 -11h-25v170h40q13 -42 38 -78q53 -77 132 -77q42 0 63.5 20.5t21.5 59.5q0 33 -29.5 55.5t-92.5 55.5q-54 27 -87.5 48.5t-57 54t-23.5 76.5q0 60 51.5 97.5t158.5 37.5q53 0 98 -28q22 -13 38 -27q13 18 35 34
q17 10 20 11h25v-170h-40q-15 43 -37 77q-50 78 -119 78q-27 0 -46 -20t-19 -50q0 -38 32 -63.5t97 -58.5q53 -27 84.5 -47.5t54 -50.5t22.5 -70q0 -145 -230 -145q-62 0 -111 27z" />
    <glyph glyph-name="uni0456" unicode="&#x456;" horiz-adv-x="340" 
d="M120.5 565.5q-25.5 25.5 -25.5 59.5t25.5 59.5t59.5 25.5t59.5 -25.5t25.5 -59.5t-25.5 -59.5t-59.5 -25.5t-59.5 25.5zM40 15l60 15v440l-60 15v15h130q90 0 90 -90v-380l60 -15v-15h-280v15z" />
    <glyph glyph-name="uni0457" unicode="&#x457;" horiz-adv-x="340" 
d="M40 15l60 15v440l-60 15v15h130q90 0 90 -90v-380l60 -15v-15h-280v15zM27 580q-20 20 -20 50t20 50t50 20t50 -20t20 -50t-20 -50t-50 -20t-50 20zM212 580q-20 20 -20 50t20 50t50 20t50 -20t20 -50t-20 -50t-50 -20t-50 20z" />
    <glyph glyph-name="uni0458" unicode="&#x458;" horiz-adv-x="330" 
d="M115.5 565.5q-25.5 25.5 -25.5 59.5t25.5 59.5t59.5 25.5t59.5 -25.5t25.5 -59.5t-25.5 -59.5t-59.5 -25.5t-59.5 25.5zM-75 -190q-35 25 -35 70q0 34 20.5 54.5t54.5 20.5q8 0 16 -1.5t11 -1.5l13 -2v-140l6 -3q10 -2 14 -2q31 0 50.5 37.5t19.5 127.5v500l-60 15v15
h130q90 0 90 -90v-440q0 -53 -26 -95t-76 -66t-118 -24q-75 0 -110 25z" />
    <glyph glyph-name="uni0459" unicode="&#x459;" horiz-adv-x="855" 
d="M15 9q-25 24 -25 66q0 33 22.5 56.5t52.5 23.5q8 0 16 -1.5t11 -1.5l13 -2v-135q24 11 42 44t23 111l20 295l-70 20v15h465v-15l-60 -15v-170h50q260 0 260 -150t-260 -150h-270v15l60 15v445h-145l-20 -305q-6 -95 -38 -140t-77 -45t-70 24zM575 25q44 0 69.5 31.5
t25.5 93.5t-25.5 93.5t-69.5 31.5h-50v-250h50z" />
    <glyph glyph-name="uni045A" unicode="&#x45a;" horiz-adv-x="900" 
d="M40 15l60 15v440l-60 15v15h280v-15l-60 -15v-185h150v185l-60 15v15h280v-15l-60 -15v-180h50q138 0 199 -39.5t61 -105.5t-61 -105.5t-199 -39.5h-270v15l60 15v230h-150v-230l60 -15v-15h-280v15zM620 25q43 0 69 31t26 89t-26 89t-69 31h-50v-240h50z" />
    <glyph glyph-name="uni045B" unicode="&#x45b;" horiz-adv-x="665" 
d="M40 15l60 15v515h-65v25h65v100l-60 15v15h130q90 0 90 -90v-40h125v-25h-125v-125q15 20 31 32q43 33 99 33t100.5 -23.5t69.5 -61.5t25 -80v-290l60 -15v-15h-130q-90 0 -90 90v230q0 63 -22.5 96.5t-52.5 33.5q-38 0 -68 -40q-13 -17 -22 -40v-340l60 -15v-15h-280v15
z" />
    <glyph glyph-name="uni045C" unicode="&#x45c;" horiz-adv-x="625" 
d="M40 15l60 15v440l-60 15v15h280v-15l-60 -15v-195h35q29 0 50 18.5t30 46.5l25 90q24 80 90 80q45 0 70 -24t25 -66q0 -38 -20.5 -59t-54.5 -21q-14 0 -28 2l-12 3v135q-30 -8 -40 -50l-25 -90q-10 -35 -33 -56q-8 -8 -22 -14h30q59 0 92.5 -23.5t47.5 -61.5l50 -155
l50 -15v-15h-105q-53 0 -85.5 24t-44.5 61l-55 165h-70v-220l60 -15v-15h-280v15zM325 550l40 150h130l-135 -150h-35z" />
    <glyph glyph-name="uni045D" unicode="&#x45d;" horiz-adv-x="680" 
d="M40 0v15l60 15v440l-60 15v15h280v-15l-60 -15v-330l160 275v55l-60 15v15h280v-15l-60 -15v-440l60 -15v-15h-280v15l60 15v330l-160 -275v-55l60 -15v-15h-280zM329 550l-135 150h130l40 -150h-35z" />
    <glyph glyph-name="uni045E" unicode="&#x45e;" 
d="M80 -191q-25 24 -25 66q0 38 20.5 59t54.5 21q8 0 16 -1.5t11 -1.5l13 -2v-135q29 5 51 32t49 93l20 50l-260 480l-50 15v15h125q52 0 82.5 -21.5t52.5 -63.5l125 -231l105 271l-75 30v15h185v-15l-80 -30l-200 -515q-32 -82 -68 -118.5t-82 -36.5q-45 0 -70 24z
M166.5 594q-36.5 24 -36.5 61q0 26 17 43t43 17q2 0 23 -3l12 -2v-110q1 0 14.5 -5t40.5 -5t40.5 5t14.5 5v110l12 2q21 3 23 3q26 0 43 -17t17 -43q0 -37 -36.5 -61t-113.5 -24t-113.5 24z" />
    <glyph glyph-name="uni045F" unicode="&#x45f;" horiz-adv-x="670" 
d="M302 -118q-17 51 -17 118h-245v15l60 15v440l-60 15v15h280v-15l-60 -15v-445h150v445l-60 15v15h280v-15l-60 -15v-440l60 -15v-15h-245q0 -64 -18 -118q-7 -24 -17 -42h-30q-11 16 -18 42z" />
    <glyph glyph-name="uni0462" unicode="&#x462;" horiz-adv-x="799" 
d="M702 349q72 -51 72 -149t-72 -149t-238 -51h-290v15l60 15v573h-114q0 -33 -18 -65t-47 -50h-30v140h209v72l-60 15v15h285v-15l-60 -15v-72h211v-140h-30q-30 17 -47.5 49.5t-17.5 65.5h-116v-203h65q166 0 238 -51zM571 67.5q33 42.5 33 132.5t-33 132.5t-107 42.5h-65
v-350h65q74 0 107 42.5z" />
    <glyph glyph-name="uni0463" unicode="&#x463;" horiz-adv-x="685" 
d="M665 150q0 -150 -260 -150h-270v15l60 15v470h-75q0 -27 -19.5 -57t-45.5 -53h-30v135h170v145l-60 15v15h130q90 0 90 -90v-85h170v-135h-30q-26 21 -45.5 51.5t-19.5 58.5h-75v-200h50q260 0 260 -150zM474.5 56.5q25.5 31.5 25.5 93.5t-25.5 93.5t-69.5 31.5h-50v-250
h50q44 0 69.5 31.5z" />
    <glyph glyph-name="uni046A" unicode="&#x46a;" horiz-adv-x="1025" 
d="M5 15l50 15l90 265q28 85 150 85h130l-222 290l-50 15v15h725v-15l-80 -30l-198 -275h130q122 0 150 -85l90 -265l50 -15v-15h-120q-53 0 -82 22t-43 63l-95 275h-85v-330l60 -15v-15h-285v15l60 15v330h-85l-95 -275q-14 -41 -43 -63t-82 -22h-120v15zM569 380l212 295
h-426q26 -19 53 -60l160 -235h1z" />
    <glyph glyph-name="uni046B" unicode="&#x46b;" horiz-adv-x="880" 
d="M5 15l50 15l50 155q14 38 47.5 61.5t92.5 23.5h105l-170 200l-50 15v15h610v-15l-80 -30l-131 -185h106q59 0 92.5 -23.5t47.5 -61.5l50 -155l50 -15v-15h-105q-53 0 -85.5 24t-44.5 61l-55 165h-65v-220l60 -15v-15h-280v15l60 15v220h-65l-55 -165q-12 -37 -44.5 -61
t-85.5 -24h-105v15zM491 270l144 205h-306q17 -12 32 -33t19 -27l105 -145h6z" />
    <glyph glyph-name="uni0472" unicode="&#x472;" horiz-adv-x="740" 
d="M541.5 672.5q73.5 -42.5 113.5 -124.5t40 -198t-40 -198t-113.5 -124.5t-171.5 -42.5t-171.5 42.5t-113.5 124.5t-40 198t40 198t113.5 124.5t171.5 42.5t171.5 -42.5zM298.5 663q-33.5 -32 -55.5 -106.5t-23 -194.5h300q-1 120 -23 194.5t-55.5 106.5t-71.5 32
t-71.5 -32zM441.5 36.5q33.5 31.5 55.5 106t23 194.5h-300q1 -120 23 -194.5t55.5 -106t71.5 -31.5t71.5 31.5z" />
    <glyph glyph-name="uni0473" unicode="&#x473;" horiz-adv-x="610" 
d="M499.5 444.5q70.5 -70.5 70.5 -194.5t-70.5 -194.5t-194.5 -70.5t-194.5 70.5t-70.5 194.5t70.5 194.5t194.5 70.5t194.5 -70.5zM238.5 442q-27.5 -53 -28.5 -180h190q-1 127 -28.5 180t-66.5 53t-66.5 -53zM371.5 58q27.5 53 28.5 179h-190q1 -126 28.5 -179t66.5 -53
t66.5 53z" />
    <glyph glyph-name="uni0474" unicode="&#x474;" horiz-adv-x="801" 
d="M30 670l-50 15v15h120q52 0 85 -23.5t50 -61.5l177 -403l135 371q22 60 55.5 91.5t93.5 31.5q54 0 84.5 -23t30.5 -74q0 -40 -29 -65t-68 -25q-21 0 -41 9l1 149q-32 -1 -56 -25t-44 -78l-214 -584h-30z" />
    <glyph glyph-name="uni0475" unicode="&#x475;" horiz-adv-x="652" 
d="M30 470l-50 15v15h125q52 0 82.5 -21.5t52.5 -63.5l118 -229l64 178q25 70 58.5 105.5t88.5 35.5q93 0 93 -74q0 -30 -22 -47.5t-49 -17.5q-17 0 -32 6l1 108q-36 0 -60 -27t-47 -89l-143 -374h-30z" />
    <glyph glyph-name="uni0490" unicode="&#x490;" horiz-adv-x="590" 
d="M50 15l60 15v640l-60 15v15h440q0 63 32 117q14 23 33 38h30v-180h-310v-645l60 -15v-15h-285v15z" />
    <glyph glyph-name="uni0491" unicode="&#x491;" horiz-adv-x="510" 
d="M40 15l60 15v440l-60 15v15h370q0 57 32 111q14 23 33 39h30v-175h-245v-445l60 -15v-15h-280v15z" />
    <glyph glyph-name="uni0492" unicode="&#x492;" horiz-adv-x="610" 
d="M585 700v-180h-30q-19 15 -33 38q-32 54 -32 117h-215v-313h115v-25h-115v-307l60 -15v-15h-285v15l60 15v307h-70v25h70v308l-60 15v15h535z" />
    <glyph glyph-name="uni0493" unicode="&#x493;" horiz-adv-x="530" 
d="M505 500v-175h-30q-19 17 -33 39q-32 54 -32 111h-150v-213h110v-25h-110v-207l60 -15v-15h-280v15l60 15v207h-80v25h80v208l-60 15v15h465z" />
    <glyph glyph-name="uni0494" unicode="&#x494;" horiz-adv-x="660" 
d="M640 190v-50q0 -88 -62 -129t-183 -41v20q43 0 61.5 28t18.5 102v80q0 78 -25.5 112t-80.5 34q-38 0 -94 -15v-301l60 -15v-15h-285v15l60 15v640l-60 15v15h535v-180h-30q-19 15 -33 38q-32 54 -32 117h-215v-318q62 18 125 18q240 0 240 -185z" />
    <glyph glyph-name="uni0495" unicode="&#x495;" horiz-adv-x="585" 
d="M514.5 241q50.5 -40 50.5 -121v-70q0 -100 -62 -160t-178 -60v20q44 0 62 48.5t18 151.5v60q0 129 -96 129q-22 0 -49 -6v-203l60 -15v-15h-280v15l60 15v440l-60 15v15h465v-175h-30q-19 17 -33 39q-32 54 -32 111h-150v-214q65 20 123 20q81 0 131.5 -40z" />
    <glyph glyph-name="uni0496" unicode="&#x496;" horiz-adv-x="1025" 
d="M1020 25v-195h-30q-24 17 -43 44q-42 58 -42 126h-5q-53 0 -82 22t-43 63l-95 275h-85v-330l60 -15v-15h-285v15l60 15v330h-85l-95 -275q-14 -41 -43 -63t-82 -22h-120v15l50 15l90 265q28 85 150 85h24q-3 0 -15 10.5t-26 33t-23 56.5l-35 130q-8 29 -23 47.5t-32 22.5
v-140l-13 -3q-16 -2 -27 -2q-34 0 -57 23.5t-23 61.5q0 39 28 64.5t72 25.5q38 0 65.5 -27t39.5 -73l35 -130q25 -95 100 -95h45v285l-60 15v15h285v-15l-60 -15v-285h45q75 0 100 95l35 130q12 46 39.5 73t65.5 27q44 0 72 -25.5t28 -64.5q0 -38 -23 -61.5t-57 -23.5
q-14 0 -28 2l-12 3v140q-17 -4 -32 -22.5t-23 -47.5l-35 -130q-15 -55 -40 -80q-11 -12 -25 -20h25q122 0 150 -85l90 -264z" />
    <glyph glyph-name="uni0497" unicode="&#x497;" horiz-adv-x="880" 
d="M875 25v-190h-30q-20 13 -43 41q-42 52 -42 124q-49 3 -79 26.5t-41 58.5l-55 165h-65v-220l60 -15v-15h-280v15l60 15v220h-65l-55 -165q-12 -37 -44.5 -61t-85.5 -24h-105v15l50 15l50 155q14 38 47.5 61.5t92.5 23.5h30q-14 6 -22 14q-25 23 -33 56l-25 90
q-10 42 -40 50v-135l-13 -3q-16 -2 -27 -2q-34 0 -54.5 21t-20.5 59q0 42 25 66t70 24q66 0 90 -80l25 -90q9 -29 28 -47t47 -18h35v195l-60 15v15h280v-15l-60 -15v-195h30q29 0 50 18.5t30 46.5l25 90q24 80 90 80q45 0 70 -24t25 -66q0 -38 -20.5 -59t-54.5 -21
q-14 0 -28 2l-12 3v135q-30 -8 -40 -50l-25 -90q-10 -35 -33 -56q-8 -8 -22 -14h30q59 0 92.5 -23.5t47.5 -61.5l50 -155z" />
    <glyph glyph-name="uni0498" unicode="&#x498;" horiz-adv-x="615" 
d="M526 54q-59 -52 -178 -65l-23 -159h-30q-46 81 -50 156q-65 6 -115 36.5t-77.5 77.5t-27.5 100h25q0 -50 27.5 -93.5t74.5 -70t103 -26.5q76 0 118 44t42 126q0 84 -39 129.5t-101 45.5h-75v25h65q55 0 87.5 39.5t32.5 115.5t-32 115.5t-83 39.5q-44 0 -78.5 -25
t-57.5 -63q-25 -39 -39 -87h-40v190h25q2 -1 20 -14q18 -15 35 -41q22 20 44 32q56 33 111 33q84 0 144 -25.5t90.5 -66.5t30.5 -88q0 -102 -110 -144q-48 -18 -110 -21v-5q68 -3 125 -23q125 -49 125 -162q0 -74 -59 -126z" />
    <glyph glyph-name="uni0499" unicode="&#x499;" horiz-adv-x="530" 
d="M454.5 35q-45.5 -38 -147.5 -47l-28 -153h-30q-22 35 -33 71t-12 81q-81 9 -127.5 52.5t-46.5 100.5h25q0 -33 21 -63t58.5 -48.5t85.5 -18.5q115 0 115 120q0 58 -26 89t-69 31h-65v25h45q43 0 69 29t26 81t-26 81t-69 29q-25 0 -43 -5l-17 -5v-150l-13 -3
q-16 -2 -27 -2q-34 0 -54.5 20.5t-20.5 54.5q0 46 48.5 78t146.5 32q83 0 137 -18t78.5 -47.5t24.5 -64.5q0 -42 -25.5 -66t-67.5 -39q-41 -14 -92 -15v-5q53 -1 102 -16q45 -14 74 -41.5t29 -72.5q0 -57 -45.5 -95z" />
    <glyph glyph-name="uni049A" unicode="&#x49a;" horiz-adv-x="710" 
d="M705 25v-195h-30q-24 17 -43 44q-42 58 -42 126h-5q-53 0 -82 22t-43 63l-95 275h-90v-330l60 -15v-15h-285v15l60 15v640l-60 15v15h285v-15l-60 -15v-285h50q75 0 100 95l35 130q12 46 39.5 73t65.5 27q44 0 72 -25.5t28 -64.5q0 -38 -23 -61.5t-57 -23.5q-14 0 -28 2
l-12 3v140q-17 -4 -32 -22.5t-23 -47.5l-35 -130q-15 -55 -40 -80q-11 -12 -25 -20h25q122 0 150 -85l90 -264z" />
    <glyph glyph-name="uni049B" unicode="&#x49b;" horiz-adv-x="625" 
d="M620 25v-190h-30q-20 13 -43 41q-42 52 -42 124q-49 3 -79 26.5t-41 58.5l-55 165h-70v-220l60 -15v-15h-280v15l60 15v440l-60 15v15h280v-15l-60 -15v-195h35q29 0 50 18.5t30 46.5l25 90q24 80 90 80q45 0 70 -24t25 -66q0 -38 -20.5 -59t-54.5 -21q-14 0 -28 2l-12 3
v135q-30 -8 -40 -50l-25 -90q-10 -35 -33 -56q-8 -8 -22 -14h30q59 0 92.5 -23.5t47.5 -61.5l50 -155z" />
    <glyph glyph-name="uni049C" unicode="&#x49c;" horiz-adv-x="710" 
d="M705 15v-15h-120q-53 0 -82 22t-43 63l-95 275h-11v-122h-25v122h-54v-330l60 -15v-15h-285v15l60 15v640l-60 15v15h285v-15l-60 -15v-285h50h4v123h25v-119q51 16 71 91l35 130q12 46 39.5 73t65.5 27q44 0 72 -25.5t28 -64.5q0 -38 -23 -61.5t-57 -23.5q-14 0 -28 2
l-12 3v140q-17 -4 -32 -22.5t-23 -47.5l-35 -130q-15 -55 -40 -80q-11 -12 -25 -20h25q122 0 150 -85l90 -265z" />
    <glyph glyph-name="uni049D" unicode="&#x49d;" horiz-adv-x="645" 
d="M640 15v-15h-105q-53 0 -85.5 24t-44.5 61l-55 165h-15v-104h-25v104h-50v-220l60 -15v-15h-280v15l60 15v440l-60 15v15h280v-15l-60 -15v-195h50v101h25v-98q22 6 37.5 22.5t22.5 39.5l25 90q24 80 90 80q45 0 70 -24t25 -66q0 -38 -20.5 -59t-54.5 -21q-14 0 -28 2
l-12 3v135q-30 -8 -40 -50l-25 -90q-10 -35 -33 -56q-8 -8 -22 -14h30q59 0 92.5 -23.5t47.5 -61.5l50 -155z" />
    <glyph glyph-name="uni04A0" unicode="&#x4a0;" horiz-adv-x="835" 
d="M175 15l60 15v645h-115q0 -45 -18 -88t-47 -67h-30v180h435v-15l-60 -15v-285h50q75 0 100 95l35 130q12 46 39.5 73t65.5 27q44 0 72 -25.5t28 -64.5q0 -38 -23 -61.5t-57 -23.5q-14 0 -28 2l-12 3v140q-17 -4 -32 -22.5t-23 -47.5l-35 -130q-15 -55 -40 -80
q-11 -12 -25 -20h25q122 0 150 -85l90 -265l50 -15v-15h-120q-53 0 -82 22t-43 63l-95 275h-90v-330l60 -15v-15h-285v15z" />
    <glyph glyph-name="uni04A1" unicode="&#x4a1;" horiz-adv-x="720" 
d="M135 15l60 15v445h-75q0 -55 -33 -111q-13 -21 -32 -39h-30v175h390v-15l-60 -15v-195h35q29 0 50 18.5t30 46.5l25 90q24 80 90 80q45 0 70 -24t25 -66q0 -38 -20.5 -59t-54.5 -21q-14 0 -28 2l-12 3v135q-30 -8 -40 -50l-25 -90q-10 -35 -33 -56q-8 -8 -22 -14h30
q59 0 92.5 -23.5t47.5 -61.5l50 -155l50 -15v-15h-105q-53 0 -85.5 24t-44.5 61l-55 165h-70v-220l60 -15v-15h-280v15z" />
    <glyph glyph-name="uni04A2" unicode="&#x4a2;" horiz-adv-x="765" 
d="M751 25v-195h-30q-24 17 -43 44q-42 58 -42 126h-206v15l60 15v305h-215v-305l60 -15v-15h-285v15l60 15v640l-60 15v15h285v-15l-60 -15v-310h215v310l-60 15v15h285v-15l-60 -15v-640z" />
    <glyph glyph-name="uni04A3" unicode="&#x4a3;" horiz-adv-x="670" 
d="M660 25v-190h-30q-20 13 -43 41q-42 52 -42 124h-195v15l60 15v210h-150v-210l60 -15v-15h-280v15l60 15v440l-60 15v15h280v-15l-60 -15v-205h150v205l-60 15v15h280v-15l-60 -15v-440z" />
    <glyph glyph-name="uni04A4" unicode="&#x4a4;" horiz-adv-x="990" 
d="M50 15l60 15v640l-60 15v15h285v-15l-60 -15v-310h215v310l-60 15v15h535v-180h-30q-30 23 -47.5 66.5t-17.5 88.5h-215v-645l60 -15v-15h-285v15l60 15v305h-215v-305l60 -15v-15h-285v15z" />
    <glyph glyph-name="uni04A5" unicode="&#x4a5;" horiz-adv-x="840" 
d="M40 15l60 15v440l-60 15v15h280v-15l-60 -15v-205h150v205l-60 15v15h465v-175h-30q-30 25 -47.5 66.5t-17.5 83.5h-150v-445l60 -15v-15h-280v15l60 15v210h-150v-210l60 -15v-15h-280v15z" />
    <glyph glyph-name="uni04AA" unicode="&#x4aa;" horiz-adv-x="650" 
d="M589 101q-26 -47 -72 -77.5t-103 -36.5l-23 -157h-30q-47 86 -50 161q-126 20 -196 113t-70 246q0 115 39.5 197.5t111 125t165.5 42.5q57 0 115 -33q22 -12 44 -32q17 26 35 41q18 13 20 14h25v-190h-40q-13 48 -39 87q-24 38 -59.5 63t-81.5 25q-69 0 -114.5 -80
t-45.5 -260q0 -183 49.5 -261.5t135.5 -78.5q47 0 89.5 26.5t69 70.5t26.5 93h25q0 -52 -26 -99z" />
    <glyph glyph-name="uni04AB" unicode="&#x4ab;" horiz-adv-x="530" 
d="M459 43q-41 -43 -108 -55l-28 -153h-30q-22 35 -33 72t-12 83q-100 16 -154 84t-54 176q0 124 71 194.5t199 70.5q92 0 138.5 -32t46.5 -78q0 -34 -20.5 -54.5t-54.5 -20.5q-14 0 -28 2l-12 3v150l-14 5q-15 5 -36 5q-57 0 -88.5 -54t-31.5 -191q0 -133 31.5 -186.5
t88.5 -53.5q39 0 72.5 18.5t53 49t19.5 62.5h25q0 -54 -41 -97z" />
    <glyph glyph-name="uni04AE" unicode="&#x4ae;" horiz-adv-x="665" 
d="M195 15l60 15v230l-205 410l-50 15v15h125q52 0 83.5 -22t51.5 -63l148 -295l152 335l-75 30v15h190v-15l-80 -30l-175 -385v-240l60 -15v-15h-285v15z" />
    <glyph glyph-name="uni04AF" unicode="&#x4af;" 
d="M580 500v-15l-80 -30l-132 -323v-302l60 -15v-15h-280v15l60 15v298l-178 342l-50 15v15h125q52 0 82.5 -21.5t52.5 -63.5l119 -231l111 271l-75 30v15h185z" />
    <glyph glyph-name="uni04B0" unicode="&#x4b0;" horiz-adv-x="665" 
d="M675 700v-15l-80 -30l-175 -385v-5h88v-25h-88v-210l60 -15v-15h-285v15l60 15v210h-97v25h95l-203 405l-50 15v15h125q52 0 83.5 -22t51.5 -63l148 -295l152 335l-75 30v15h190z" />
    <glyph glyph-name="uni04B1" unicode="&#x4b1;" 
d="M580 500v-15l-80 -30l-132 -323v-100h97v-25h-97v-177l60 -15v-15h-280v15l60 15v177h-93v25h93v96l-178 342l-50 15v15h125q52 0 82.5 -21.5t52.5 -63.5l119 -231l111 271l-75 30v15h185z" />
    <glyph glyph-name="uni04B6" unicode="&#x4b6;" horiz-adv-x="725" 
d="M615 30l60 -15v-15h-205q0 -68 -42 -126q-19 -27 -43 -44h-30v195l95 5v265q-18 -10 -35 -15q-43 -15 -95 -15q-123 0 -181.5 46t-58.5 129v230l-60 15v15h285v-15l-60 -15v-230q0 -81 28 -115.5t87 -34.5q34 0 64 15q15 7 26 15v350l-60 15v15h285v-15l-60 -15v-640z
" />
    <glyph glyph-name="uni04B7" unicode="&#x4b7;" horiz-adv-x="635" 
d="M535 30l60 -15v-15h-195q0 -72 -42 -124q-23 -28 -43 -41h-30v190l90 5v175q-20 -12 -48.5 -18.5t-56.5 -6.5q-98 0 -146.5 39t-48.5 106v145l-60 15v15h280v-15l-60 -15v-145q0 -65 19.5 -92.5t55.5 -27.5q40 0 65 25v240l-60 15v15h280v-15l-60 -15v-440z" />
    <glyph glyph-name="uni04B8" unicode="&#x4b8;" horiz-adv-x="725" 
d="M615 670v-640l60 -15v-15h-285v15l60 15v265q-18 -10 -35 -15q-22 -8 -50 -12v-124h-25v122q-6 -1 -20 -1q-123 0 -181.5 46t-58.5 129v230l-60 15v15h285v-15l-60 -15v-230q0 -74 23.5 -109t71.5 -40v123h25v-124q30 1 59 15q15 7 26 15v350l-60 15v15h285v-15z" />
    <glyph glyph-name="uni04B9" unicode="&#x4b9;" horiz-adv-x="655" 
d="M555 470v-440l60 -15v-15h-280v15l60 15v175q-22 -12 -54 -18v-97h-25v93q-23 -3 -46 -3q-98 0 -146.5 39t-48.5 106v145l-60 15v15h280v-15l-60 -15v-145q0 -65 19.5 -92.5t55.5 -27.5h6v115h25v-113q33 6 54 23v240l-60 15v15h280v-15z" />
    <glyph glyph-name="uni04BA" unicode="&#x4ba;" horiz-adv-x="725" 
d="M335 685l-60 -15v-265q18 10 35 15q43 15 95 15q123 0 181.5 -46t58.5 -129v-230l60 -15v-15h-285v15l60 15v230q0 81 -28 115.5t-87 34.5q-34 0 -64 -15q-15 -7 -26 -15v-350l60 -15v-15h-285v15l60 15v640l-60 15v15h285v-15z" />
    <glyph glyph-name="uni04BB" unicode="&#x4bb;" horiz-adv-x="665" 
d="M40 15l60 15v640l-60 15v15h130q90 0 90 -90v-160q15 20 31 32q43 33 99 33t100.5 -23.5t69.5 -61.5t25 -80v-320l60 -15v-15h-130q-90 0 -90 90v260q0 63 -22.5 96.5t-52.5 33.5q-38 0 -68 -40q-13 -17 -22 -40v-370l60 -15v-15h-280v15z" />
    <glyph glyph-name="uni04C0" unicode="&#x4c0;" horiz-adv-x="385" 
d="M50 0v15l60 15v640l-60 15v15h285v-15l-60 -15v-640l60 -15v-15h-285z" />
    <glyph glyph-name="uni04C1" unicode="&#x4c1;" horiz-adv-x="1025" 
d="M5 15l50 15l90 265q28 85 150 85h24q-3 0 -15 10.5t-26 33t-23 56.5l-35 130q-8 29 -23 47.5t-32 22.5v-140l-13 -3q-16 -2 -27 -2q-34 0 -57 23.5t-23 61.5q0 39 28 64.5t72 25.5q38 0 65.5 -27t39.5 -73l35 -130q25 -95 100 -95h45v285l-60 15v15h285v-15l-60 -15v-285
h45q75 0 100 95l35 130q12 46 39.5 73t65.5 27q44 0 72 -25.5t28 -64.5q0 -38 -23 -61.5t-57 -23.5q-14 0 -28 2l-12 3v140q-17 -4 -32 -22.5t-23 -47.5l-35 -130q-15 -55 -40 -80q-11 -12 -25 -20h25q122 0 150 -85l90 -265l50 -15v-15h-120q-53 0 -82 22t-43 63l-95 275
h-85v-330l60 -15v-15h-285v15l60 15v330h-85l-95 -275q-14 -41 -43 -63t-82 -22h-120v15zM399.5 794q-36.5 24 -36.5 61q0 26 17 43t43 17q2 0 23 -3l12 -2v-110q1 0 14.5 -5t40.5 -5t40.5 5t14.5 5v110l12 2q21 3 23 3q26 0 43 -17t17 -43q0 -37 -36.5 -61t-113.5 -24
t-113.5 24z" />
    <glyph glyph-name="uni04C2" unicode="&#x4c2;" horiz-adv-x="880" 
d="M5 15l50 15l50 155q14 38 47.5 61.5t92.5 23.5h30q-14 6 -22 14q-25 23 -33 56l-25 90q-10 42 -40 50v-135l-13 -3q-16 -2 -27 -2q-34 0 -54.5 21t-20.5 59q0 42 25 66t70 24q66 0 90 -80l25 -90q9 -29 28 -47t47 -18h35v195l-60 15v15h280v-15l-60 -15v-195h30
q29 0 50 18.5t30 46.5l25 90q24 80 90 80q45 0 70 -24t25 -66q0 -38 -20.5 -59t-54.5 -21q-14 0 -28 2l-12 3v135q-30 -8 -40 -50l-25 -90q-10 -35 -33 -56q-8 -8 -22 -14h30q59 0 92.5 -23.5t47.5 -61.5l50 -155l50 -15v-15h-105q-53 0 -85.5 24t-44.5 61l-55 165h-65v-220
l60 -15v-15h-280v15l60 15v220h-65l-55 -165q-12 -37 -44.5 -61t-85.5 -24h-105v15zM326.5 594q-36.5 24 -36.5 61q0 26 17 43t43 17q2 0 23 -3l12 -2v-110q1 0 14.5 -5t40.5 -5t40.5 5t14.5 5v110l12 2q21 3 23 3q26 0 43 -17t17 -43q0 -37 -36.5 -61t-113.5 -24t-113.5 24
z" />
    <glyph glyph-name="uni04CB" unicode="&#x4cb;" horiz-adv-x="725" 
d="M710 25v-195h-30q-24 17 -43 44q-42 58 -42 126h-205v15l60 15v265q-18 -10 -35 -15q-43 -15 -95 -15q-123 0 -181.5 46t-58.5 129v230l-60 15v15h285v-15l-60 -15v-230q0 -81 28 -115.5t87 -34.5q34 0 64 15q15 7 26 15v350l-60 15v15h285v-15l-60 -15v-640z" />
    <glyph glyph-name="uni04CC" unicode="&#x4cc;" horiz-adv-x="635" 
d="M625 25v-190h-30q-20 13 -43 41q-42 52 -42 124h-195v15l60 15v175q-20 -12 -48.5 -18.5t-56.5 -6.5q-98 0 -146.5 39t-48.5 106v145l-60 15v15h280v-15l-60 -15v-145q0 -65 19.5 -92.5t55.5 -27.5q40 0 65 25v240l-60 15v15h280v-15l-60 -15v-440z" />
    <glyph glyph-name="uni04CF" unicode="&#x4cf;" horiz-adv-x="340" 
d="M40 15l60 15v640l-60 15v15h130q90 0 90 -90v-580l60 -15v-15h-280v15z" />
    <glyph glyph-name="uni04D0" unicode="&#x4d0;" horiz-adv-x="680" 
d="M-20 15l80 30l275 665h30l285 -680l50 -15v-15h-120q-52 0 -85 23.5t-49 61.5l-51 120h-239l-66 -160l75 -30v-15h-185v15zM166 230h219l-110 263zM234.5 794q-36.5 24 -36.5 61q0 26 17 43t43 17q2 0 23 -3l12 -2v-110q1 0 14.5 -5t40.5 -5t40.5 5t14.5 5v110l12 2
q21 3 23 3q26 0 43 -17t17 -43q0 -37 -36.5 -61t-113.5 -24t-113.5 24z" />
    <glyph glyph-name="uni04D1" unicode="&#x4d1;" horiz-adv-x="605" 
d="M98 23q-48 38 -48 97q0 39 17 77q7 18 18 33q41 10 89 18q108 18 191 22v30q0 111 -27 153t-83 42q-21 0 -36 -5l-14 -5v-150l-13 -3q-16 -2 -27 -2q-34 0 -54.5 20.5t-20.5 54.5q0 46 46.5 78t138.5 32q78 0 134.5 -27.5t86 -76t29.5 -111.5v-270l60 -15v-15h-90
q-60 0 -93 37q-14 15 -22 38q-14 -25 -33 -45q-45 -45 -112 -45q-89 0 -137 38zM342 60q11 15 23 40v145q-46 0 -88 -5q-31 -4 -42 -5q-5 -11 -10 -30q-10 -38 -10 -75q0 -56 17 -83t43 -27q37 0 67 40zM189.5 594q-36.5 24 -36.5 61q0 26 17 43t43 17q2 0 23 -3l12 -2v-110
q1 0 14.5 -5t40.5 -5t40.5 5t14.5 5v110l12 2q21 3 23 3q26 0 43 -17t17 -43q0 -37 -36.5 -61t-113.5 -24t-113.5 24z" />
    <glyph glyph-name="uni04D2" unicode="&#x4d2;" horiz-adv-x="680" 
d="M-20 15l80 30l275 665h30l285 -680l50 -15v-15h-120q-52 0 -85 23.5t-49 61.5l-51 120h-239l-66 -160l75 -30v-15h-185v15zM166 230h219l-110 263zM205 780q-20 20 -20 50t20 50t50 20t50 -20t20 -50t-20 -50t-50 -20t-50 20zM390 780q-20 20 -20 50t20 50t50 20t50 -20
t20 -50t-20 -50t-50 -20t-50 20z" />
    <glyph glyph-name="uni04D3" unicode="&#x4d3;" horiz-adv-x="605" 
d="M98 23q-48 38 -48 97q0 39 17 77q7 18 18 33q41 10 89 18q108 18 191 22v30q0 111 -27 153t-83 42q-21 0 -36 -5l-14 -5v-150l-13 -3q-16 -2 -27 -2q-34 0 -54.5 20.5t-20.5 54.5q0 46 46.5 78t138.5 32q78 0 134.5 -27.5t86 -76t29.5 -111.5v-270l60 -15v-15h-90
q-60 0 -93 37q-14 15 -22 38q-14 -25 -33 -45q-45 -45 -112 -45q-89 0 -137 38zM342 60q11 15 23 40v145q-46 0 -88 -5q-31 -4 -42 -5q-5 -11 -10 -30q-10 -38 -10 -75q0 -56 17 -83t43 -27q37 0 67 40zM160 580q-20 20 -20 50t20 50t50 20t50 -20t20 -50t-20 -50t-50 -20
t-50 20zM345 580q-20 20 -20 50t20 50t50 20t50 -20t20 -50t-20 -50t-50 -20t-50 20z" />
    <glyph glyph-name="uni04D4" unicode="&#x4d4;" horiz-adv-x="991" 
d="M-30 15l80 30l366 655h514v-180h-30q-19 15 -33 38q-32 54 -32 117h-205v-315h105q7 38 26 71q8 15 19 29h30v-225h-30q-11 14 -19 29q-19 33 -26 71h-105v-310h225q0 63 32 117q14 23 33 38h30v-180h-545v15l60 15v235h-257l-122 -220l75 -30v-15h-191v15zM223 290h242
v385h-27z" />
    <glyph glyph-name="uni04D5" unicode="&#x4d5;" horiz-adv-x="880" 
d="M101 22.5q-51 37.5 -51 97.5q0 36 17 72q7 14 18 28q41 10 89 18q108 18 191 22v40q0 111 -27 153t-83 42q-21 0 -36 -5l-14 -5v-150l-13 -3q-16 -2 -27 -2q-34 0 -54.5 20.5t-20.5 54.5q0 46 46.5 78t138.5 32q81 0 136 -45q24 -20 39 -45q13 24 37 45q53 45 128 45
q68 0 120 -27t81 -72.5t29 -100.5q0 -21 -5 -36l-5 -14q-43 -9 -93 -15q-105 -15 -212 -15v-22q2 -111 33 -157t87 -46q39 0 72.5 18.5t53 49t19.5 62.5h25q0 -40 -24 -76t-67 -57.5t-99 -21.5q-86 0 -141 47q-26 21 -39 48q-22 -28 -49 -48q-65 -47 -146 -47
q-103 0 -154 37.5zM634 265q17 1 36 5q1 7 5 21q5 20 5 44q0 83 -22 121.5t-53 38.5q-32 0 -52.5 -49.5t-22.5 -180.5v-5q64 0 104 5zM346 57q11 19 19 48v130q-46 0 -88 -5q-31 -4 -42 -5q-5 -11 -10 -30q-10 -38 -10 -75q0 -56 17 -83t43 -27q42 0 71 47z" />
    <glyph glyph-name="uni04D6" unicode="&#x4d6;" horiz-adv-x="645" 
d="M50 15l60 15v640l-60 15v15h535v-180h-30q-19 15 -33 38q-32 54 -32 117h-215v-315h115q7 38 26 71q8 15 19 29h30v-225h-30q-11 14 -19 29q-19 33 -26 71h-115v-310h235q0 63 32 117q14 23 33 38h30v-180h-555v15zM239.5 794q-36.5 24 -36.5 61q0 26 17 43t43 17
q2 0 23 -3l12 -2v-110q1 0 14.5 -5t40.5 -5t40.5 5t14.5 5v110l12 2q21 3 23 3q26 0 43 -17t17 -43q0 -37 -36.5 -61t-113.5 -24t-113.5 24z" />
    <glyph glyph-name="uni04D7" unicode="&#x4d7;" 
d="M111 55.5q-71 70.5 -71 194.5q0 81 31 141t86.5 92t127.5 32t126.5 -27t84 -72.5t29.5 -100.5q0 -25 -5 -43l-5 -17q-43 -9 -93 -15q-105 -15 -212 -15q0 -116 32 -165.5t88 -49.5q39 0 72.5 18.5t53 49t19.5 62.5h25q0 -40 -24 -76t-67 -57.5t-99 -21.5
q-128 0 -199 70.5zM314 255q17 1 36 5q1 5 5 22q5 25 5 53q0 83 -22 121.5t-53 38.5q-75 0 -75 -245q64 0 104 5zM166.5 594q-36.5 24 -36.5 61q0 26 17 43t43 17q2 0 23 -3l12 -2v-110q1 0 14.5 -5t40.5 -5t40.5 5t14.5 5v110l12 2q21 3 23 3q26 0 43 -17t17 -43
q0 -37 -36.5 -61t-113.5 -24t-113.5 24z" />
    <glyph glyph-name="uni04D8" unicode="&#x4d8;" horiz-adv-x="661" 
d="M465 672.5q71 -42.5 111 -124t40 -195.5q0 -112 -41 -195t-114 -128t-170 -45q-80 0 -137.5 36.5t-88 101t-30.5 146.5q0 41 7 77q93 20 197.5 30.5t200.5 11.5q-1 157 -42 229.5t-107 72.5q-64 0 -114.5 -46t-75.5 -129h-40v190h25q32 -18 55 -55q32 29 75 47t84 18
q94 0 165 -42.5zM399 92q42 87 41 271q-63 0 -141 -6.5t-118 -15.5q-2 -18 -2 -55q0 -69 13 -134t38.5 -106t60.5 -41q66 0 108 87z" />
    <glyph glyph-name="uni04D9" unicode="&#x4d9;" horiz-adv-x="553" 
d="M145.5 12q-52.5 27 -81.5 72.5t-29 100.5q0 16 2.5 29.5t7.5 30.5q62 13 147.5 21.5t150.5 8.5q-3 109 -30.5 164.5t-86.5 55.5q-33 0 -63 -10v-150q-19 -5 -40 -5q-34 0 -54.5 20.5t-20.5 54.5q0 29 21 54t64.5 40.5t109.5 15.5q128 0 199 -70.5t71 -194.5
q0 -81 -31 -141t-86.5 -92t-127.5 -32q-70 0 -122.5 27zM343 250q-49 0 -77.5 -1.5t-62.5 -8.5q-10 -37 -10 -75q0 -83 22.5 -121.5t52.5 -38.5q75 0 75 245z" />
    <glyph glyph-name="uni04DC" unicode="&#x4dc;" horiz-adv-x="1025" 
d="M5 15l50 15l90 265q28 85 150 85h24q-3 0 -15 10.5t-26 33t-23 56.5l-35 130q-8 29 -23 47.5t-32 22.5v-140l-13 -3q-16 -2 -27 -2q-34 0 -57 23.5t-23 61.5q0 39 28 64.5t72 25.5q38 0 65.5 -27t39.5 -73l35 -130q25 -95 100 -95h45v285l-60 15v15h285v-15l-60 -15v-285
h45q75 0 100 95l35 130q12 46 39.5 73t65.5 27q44 0 72 -25.5t28 -64.5q0 -38 -23 -61.5t-57 -23.5q-14 0 -28 2l-12 3v140q-17 -4 -32 -22.5t-23 -47.5l-35 -130q-15 -55 -40 -80q-11 -12 -25 -20h25q122 0 150 -85l90 -265l50 -15v-15h-120q-53 0 -82 22t-43 63l-95 275
h-85v-330l60 -15v-15h-285v15l60 15v330h-85l-95 -275q-14 -41 -43 -63t-82 -22h-120v15zM370 780q-20 20 -20 50t20 50t50 20t50 -20t20 -50t-20 -50t-50 -20t-50 20zM555 780q-20 20 -20 50t20 50t50 20t50 -20t20 -50t-20 -50t-50 -20t-50 20z" />
    <glyph glyph-name="uni04DD" unicode="&#x4dd;" horiz-adv-x="880" 
d="M5 15l50 15l50 155q14 38 47.5 61.5t92.5 23.5h30q-14 6 -22 14q-25 23 -33 56l-25 90q-10 42 -40 50v-135l-13 -3q-16 -2 -27 -2q-34 0 -54.5 21t-20.5 59q0 42 25 66t70 24q66 0 90 -80l25 -90q9 -29 28 -47t47 -18h35v195l-60 15v15h280v-15l-60 -15v-195h30
q29 0 50 18.5t30 46.5l25 90q24 80 90 80q45 0 70 -24t25 -66q0 -38 -20.5 -59t-54.5 -21q-14 0 -28 2l-12 3v135q-30 -8 -40 -50l-25 -90q-10 -35 -33 -56q-8 -8 -22 -14h30q59 0 92.5 -23.5t47.5 -61.5l50 -155l50 -15v-15h-105q-53 0 -85.5 24t-44.5 61l-55 165h-65v-220
l60 -15v-15h-280v15l60 15v220h-65l-55 -165q-12 -37 -44.5 -61t-85.5 -24h-105v15zM297 580q-20 20 -20 50t20 50t50 20t50 -20t20 -50t-20 -50t-50 -20t-50 20zM482 580q-20 20 -20 50t20 50t50 20t50 -20t20 -50t-20 -50t-50 -20t-50 20z" />
    <glyph glyph-name="uni04DE" unicode="&#x4de;" horiz-adv-x="615" 
d="M145.5 14.5q-57.5 29.5 -89 78.5t-31.5 107h25q0 -50 27.5 -93.5t74.5 -70t103 -26.5q76 0 118 44t42 126q0 84 -39 129.5t-101 45.5h-75v25h65q55 0 87.5 39.5t32.5 115.5t-32 115.5t-83 39.5q-44 0 -78.5 -25t-57.5 -63q-25 -39 -39 -87h-40v190h25q2 -1 20 -14
q18 -15 35 -41q22 20 44 32q56 33 111 33q84 0 144 -25.5t90.5 -66.5t30.5 -88q0 -102 -110 -144q-48 -18 -110 -21v-5q68 -3 125 -23q125 -49 125 -162q0 -55 -32.5 -99t-102 -70t-175.5 -26q-72 0 -129.5 29.5zM135 780q-20 20 -20 50t20 50t50 20t50 -20t20 -50t-20 -50
t-50 -20t-50 20zM320 780q-20 20 -20 50t20 50t50 20t50 -20t20 -50t-20 -50t-50 -20t-50 20z" />
    <glyph glyph-name="uni04DF" unicode="&#x4df;" horiz-adv-x="530" 
d="M127.5 6.5q-47.5 21.5 -72.5 57t-25 76.5h25q0 -33 21 -63t58.5 -48.5t85.5 -18.5q115 0 115 120q0 58 -26 89t-69 31h-65v25h45q43 0 69 29t26 81t-26 81t-69 29q-25 0 -43 -5l-17 -5v-150l-13 -3q-16 -2 -27 -2q-34 0 -54.5 20.5t-20.5 54.5q0 46 48.5 78t146.5 32
q83 0 137 -18t78.5 -47.5t24.5 -64.5q0 -42 -25.5 -66t-67.5 -39q-41 -14 -92 -15v-5q53 -1 102 -16q45 -14 74 -41.5t29 -72.5q0 -66 -61 -105.5t-199 -39.5q-65 0 -112.5 21.5zM112 580q-20 20 -20 50t20 50t50 20t50 -20t20 -50t-20 -50t-50 -20t-50 20zM297 580
q-20 20 -20 50t20 50t50 20t50 -20t20 -50t-20 -50t-50 -20t-50 20z" />
    <glyph glyph-name="uni04E2" unicode="&#x4e2;" horiz-adv-x="785" 
d="M50 0v15l60 15v640l-60 15v15h285v-15l-60 -15v-505l235 430v75l-60 15v15h285v-15l-60 -15v-640l60 -15v-15h-285v15l60 15v505l-235 -430v-75l60 -15v-15h-285zM263 855v45h260v-45h-260z" />
    <glyph glyph-name="uni04E3" unicode="&#x4e3;" horiz-adv-x="680" 
d="M40 0v15l60 15v440l-60 15v15h280v-15l-60 -15v-330l160 275v55l-60 15v15h280v-15l-60 -15v-440l60 -15v-15h-280v15l60 15v330l-160 -275v-55l60 -15v-15h-280zM210 655v45h260v-45h-260z" />
    <glyph glyph-name="uni04E4" unicode="&#x4e4;" horiz-adv-x="785" 
d="M50 0v15l60 15v640l-60 15v15h285v-15l-60 -15v-505l235 430v75l-60 15v15h285v-15l-60 -15v-640l60 -15v-15h-285v15l60 15v505l-235 -430v-75l60 -15v-15h-285zM250 780q-20 20 -20 50t20 50t50 20t50 -20t20 -50t-20 -50t-50 -20t-50 20zM435 780q-20 20 -20 50t20 50
t50 20t50 -20t20 -50t-20 -50t-50 -20t-50 20z" />
    <glyph glyph-name="uni04E5" unicode="&#x4e5;" horiz-adv-x="680" 
d="M40 0v15l60 15v440l-60 15v15h280v-15l-60 -15v-330l160 275v55l-60 15v15h280v-15l-60 -15v-440l60 -15v-15h-280v15l60 15v330l-160 -275v-55l60 -15v-15h-280zM197 580q-20 20 -20 50t20 50t50 20t50 -20t20 -50t-20 -50t-50 -20t-50 20zM382 580q-20 20 -20 50t20 50
t50 20t50 -20t20 -50t-20 -50t-50 -20t-50 20z" />
    <glyph glyph-name="uni04E6" unicode="&#x4e6;" horiz-adv-x="740" 
d="M198.5 27.5q-73.5 42.5 -113.5 124.5t-40 198t40 198t113.5 124.5t171.5 42.5t171.5 -42.5t113.5 -124.5t40 -198t-40 -198t-113.5 -124.5t-171.5 -42.5t-171.5 42.5zM442.5 38q33.5 33 55.5 110t22 202t-22 202t-55.5 110t-72.5 33t-72.5 -33t-55.5 -110t-22 -202
t22 -202t55.5 -110t72.5 -33t72.5 33zM227 780q-20 20 -20 50t20 50t50 20t50 -20t20 -50t-20 -50t-50 -20t-50 20zM412 780q-20 20 -20 50t20 50t50 20t50 -20t20 -50t-20 -50t-50 -20t-50 20z" />
    <glyph glyph-name="uni04E7" unicode="&#x4e7;" horiz-adv-x="610" 
d="M110.5 55.5q-70.5 70.5 -70.5 194.5t70.5 194.5t194.5 70.5t194.5 -70.5t70.5 -194.5t-70.5 -194.5t-194.5 -70.5t-194.5 70.5zM372.5 61q27.5 56 27.5 189t-27.5 189t-67.5 56t-67.5 -56t-27.5 -189t27.5 -189t67.5 -56t67.5 56zM162 580q-20 20 -20 50t20 50t50 20
t50 -20t20 -50t-20 -50t-50 -20t-50 20zM347 580q-20 20 -20 50t20 50t50 20t50 -20t20 -50t-20 -50t-50 -20t-50 20z" />
    <glyph glyph-name="uni04E8" unicode="&#x4e8;" horiz-adv-x="740" 
d="M541.5 672.5q73.5 -42.5 113.5 -124.5t40 -198t-40 -198t-113.5 -124.5t-171.5 -42.5t-171.5 42.5t-113.5 124.5t-40 198t40 198t113.5 124.5t171.5 42.5t171.5 -42.5zM298.5 663q-33.5 -32 -55.5 -106.5t-23 -194.5h300q-1 120 -23 194.5t-55.5 106.5t-71.5 32
t-71.5 -32zM441.5 36.5q33.5 31.5 55.5 106t23 194.5h-300q1 -120 23 -194.5t55.5 -106t71.5 -31.5t71.5 31.5z" />
    <glyph glyph-name="uni04E9" unicode="&#x4e9;" horiz-adv-x="610" 
d="M499.5 444.5q70.5 -70.5 70.5 -194.5t-70.5 -194.5t-194.5 -70.5t-194.5 70.5t-70.5 194.5t70.5 194.5t194.5 70.5t194.5 -70.5zM238.5 442q-27.5 -53 -28.5 -180h190q-1 127 -28.5 180t-66.5 53t-66.5 -53zM371.5 58q27.5 53 28.5 179h-190q1 -126 28.5 -179t66.5 -53
t66.5 53z" />
    <glyph glyph-name="uni04EE" unicode="&#x4ee;" horiz-adv-x="660" 
d="M153 10.5q-28 25.5 -28 64.5q0 38 23 61.5t57 23.5q8 0 16 -1.5t11 -1.5l13 -2v-140q52 8 100 125l-305 530l-50 15v15h130q49 0 80 -22.5t55 -62.5l169 -293l146 333l-75 30v15h185v-15l-80 -30l-225 -515q-35 -82 -71 -118.5t-79 -36.5q-44 0 -72 25.5zM230 855v45h260
v-45h-260z" />
    <glyph glyph-name="uni04EF" unicode="&#x4ef;" 
d="M80 -191q-25 24 -25 66q0 38 20.5 59t54.5 21q8 0 16 -1.5t11 -1.5l13 -2v-135q29 5 51 32t49 93l20 50l-260 480l-50 15v15h125q52 0 82.5 -21.5t52.5 -63.5l125 -231l105 271l-75 30v15h185v-15l-80 -30l-200 -515q-32 -82 -68 -118.5t-82 -36.5q-45 0 -70 24zM150 655
v45h260v-45h-260z" />
    <glyph glyph-name="uni04F0" unicode="&#x4f0;" horiz-adv-x="660" 
d="M153 10.5q-28 25.5 -28 64.5q0 38 23 61.5t57 23.5q8 0 16 -1.5t11 -1.5l13 -2v-140q52 8 100 125l-305 530l-50 15v15h130q49 0 80 -22.5t55 -62.5l169 -293l146 333l-75 30v15h185v-15l-80 -30l-225 -515q-35 -82 -71 -118.5t-79 -36.5q-44 0 -72 25.5zM217 780
q-20 20 -20 50t20 50t50 20t50 -20t20 -50t-20 -50t-50 -20t-50 20zM402 780q-20 20 -20 50t20 50t50 20t50 -20t20 -50t-20 -50t-50 -20t-50 20z" />
    <glyph glyph-name="uni04F1" unicode="&#x4f1;" 
d="M80 -191q-25 24 -25 66q0 38 20.5 59t54.5 21q8 0 16 -1.5t11 -1.5l13 -2v-135q29 5 51 32t49 93l20 50l-260 480l-50 15v15h125q52 0 82.5 -21.5t52.5 -63.5l125 -231l105 271l-75 30v15h185v-15l-80 -30l-200 -515q-32 -82 -68 -118.5t-82 -36.5q-45 0 -70 24zM137 580
q-20 20 -20 50t20 50t50 20t50 -20t20 -50t-20 -50t-50 -20t-50 20zM322 580q-20 20 -20 50t20 50t50 20t50 -20t20 -50t-20 -50t-50 -20t-50 20z" />
    <glyph glyph-name="uni04F2" unicode="&#x4f2;" horiz-adv-x="660" 
d="M153 10.5q-28 25.5 -28 64.5q0 38 23 61.5t57 23.5q8 0 16 -1.5t11 -1.5l13 -2v-140q52 8 100 125l-305 530l-50 15v15h130q49 0 80 -22.5t55 -62.5l169 -293l146 333l-75 30v15h185v-15l-80 -30l-225 -515q-35 -82 -71 -118.5t-79 -36.5q-44 0 -72 25.5zM274 750l45 150
h100l-110 -150h-35zM404 750l45 150h100l-110 -150h-35z" />
    <glyph glyph-name="uni04F3" unicode="&#x4f3;" 
d="M80 -191q-25 24 -25 66q0 38 20.5 59t54.5 21q8 0 16 -1.5t11 -1.5l13 -2v-135q29 5 51 32t49 93l20 50l-260 480l-50 15v15h125q52 0 82.5 -21.5t52.5 -63.5l125 -231l105 271l-75 30v15h185v-15l-80 -30l-200 -515q-32 -82 -68 -118.5t-82 -36.5q-45 0 -70 24zM194 550
l45 150h100l-110 -150h-35zM324 550l45 150h100l-110 -150h-35z" />
    <glyph glyph-name="uni04F4" unicode="&#x4f4;" horiz-adv-x="725" 
d="M390 15l60 15v265q-18 -10 -35 -15q-43 -15 -95 -15q-123 0 -181.5 46t-58.5 129v230l-60 15v15h285v-15l-60 -15v-230q0 -81 28 -115.5t87 -34.5q34 0 64 15q15 7 26 15v350l-60 15v15h285v-15l-60 -15v-640l60 -15v-15h-285v15zM200 780q-20 20 -20 50t20 50t50 20
t50 -20t20 -50t-20 -50t-50 -20t-50 20zM385 780q-20 20 -20 50t20 50t50 20t50 -20t20 -50t-20 -50t-50 -20t-50 20z" />
    <glyph glyph-name="uni04F5" unicode="&#x4f5;" horiz-adv-x="635" 
d="M315 15l60 15v175q-20 -12 -48.5 -18.5t-56.5 -6.5q-98 0 -146.5 39t-48.5 106v145l-60 15v15h280v-15l-60 -15v-145q0 -65 19.5 -92.5t55.5 -27.5q40 0 65 25v240l-60 15v15h280v-15l-60 -15v-440l60 -15v-15h-280v15zM162 580q-20 20 -20 50t20 50t50 20t50 -20t20 -50
t-20 -50t-50 -20t-50 20zM347 580q-20 20 -20 50t20 50t50 20t50 -20t20 -50t-20 -50t-50 -20t-50 20z" />
    <glyph glyph-name="uni04F6" unicode="&#x4f6;" horiz-adv-x="610" 
d="M585 700v-180h-30q-19 15 -33 38q-32 54 -32 117h-215v-645l95 -5v-195h-30q-24 17 -43 44q-42 58 -42 126h-205v15l60 15v640l-60 15v15h535z" />
    <glyph glyph-name="uni04F7" unicode="&#x4f7;" horiz-adv-x="530" 
d="M505 500v-175h-30q-19 17 -33 39q-32 54 -32 111h-150v-445l90 -5v-190h-30q-20 13 -43 41q-42 52 -42 124h-195v15l60 15v440l-60 15v15h465z" />
    <glyph glyph-name="uni04F8" unicode="&#x4f8;" horiz-adv-x="1015" 
d="M50 15l60 15v640l-60 15v15h285v-15l-60 -15v-250h65q166 0 238 -53.5t72 -156.5t-72 -156.5t-238 -53.5h-290v15zM680 0v15l60 15v640l-60 15v15h285v-15l-60 -15v-640l60 -15v-15h-285zM340 25q63 0 101.5 47.5t38.5 137.5t-38.5 137.5t-101.5 47.5h-65v-370h65z
M365 780q-20 20 -20 50t20 50t50 20t50 -20t20 -50t-20 -50t-50 -20t-50 20zM550 780q-20 20 -20 50t20 50t50 20t50 -20t20 -50t-20 -50t-50 -20t-50 20z" />
    <glyph glyph-name="uni04F9" unicode="&#x4f9;" horiz-adv-x="910" 
d="M40 15l60 15v440l-60 15v15h280v-15l-60 -15v-170h50q260 0 260 -150t-260 -150h-270v15zM590 0v15l60 15v440l-60 15v15h280v-15l-60 -15v-440l60 -15v-15h-280zM310 25q44 0 69.5 31.5t25.5 93.5t-25.5 93.5t-69.5 31.5h-50v-250h50zM312 580q-20 20 -20 50t20 50
t50 20t50 -20t20 -50t-20 -50t-50 -20t-50 20zM497 580q-20 20 -20 50t20 50t50 20t50 -20t20 -50t-20 -50t-50 -20t-50 20z" />
    <glyph glyph-name="uni051A" unicode="&#x51a;" horiz-adv-x="740" 
d="M375 -148.5q-41 21.5 -63 59t-22 84.5q-115 24 -180 115.5t-65 239.5q0 116 40 198t113.5 124.5t171.5 42.5t171.5 -42.5t113.5 -124.5t40 -198q0 -148 -65 -239.5t-180 -115.5q0 -135 50 -135q14 0 22 5q1 0 8 5l10 -25q-4 -3 -16 -8q-18 -7 -54 -7q-54 0 -95 21.5z
M442.5 38q33.5 33 55.5 110t22 202t-22 202t-55.5 110t-72.5 33t-72.5 -33t-55.5 -110t-22 -202t22 -202t55.5 -110t72.5 -33t72.5 33z" />
    <glyph glyph-name="uni051B" unicode="&#x51b;" horiz-adv-x="615" 
d="M315 -185l60 15v195q-16 -13 -31 -20q-36 -20 -84 -20q-101 0 -160.5 68.5t-59.5 196.5q0 85 27 144.5t73 90t105 30.5q67 0 112 -45q19 -19 33 -45q7 22 24 40q38 40 111 40h10v-675l60 -15v-15h-280v15zM352 35q12 9 23 20v345q-12 25 -23 40q-30 40 -67 40
q-32 0 -53.5 -50.5t-21.5 -179.5q0 -135 23.5 -185t66.5 -50q25 0 52 20z" />
    <glyph glyph-name="uni051C" unicode="&#x51c;" horiz-adv-x="985" 
d="M35 675l-55 10v15h120q53 0 87 -24t48 -61l151 -385l88 258l-74 187l-55 10v15h120q53 0 86 -23.5t49 -61.5l151 -385l144 425l-75 30v15h185v-15l-80 -30l-225 -665h-30l-180 457l-155 -457h-30z" />
    <glyph glyph-name="uni051D" unicode="&#x51d;" horiz-adv-x="835" 
d="M30 470l-50 15v15h115q53 0 84 -22t51 -63l110 -230l57 146l-67 139l-50 15v15h115q53 0 84 -22t51 -63l110 -230l105 270l-75 30v15h185v-15l-80 -30l-185 -465h-30l-148 308l-122 -308h-30z" />
    <glyph glyph-name="uni0524" unicode="&#x524;" horiz-adv-x="765" 
d="M750 25v-195h-30q-24 17 -43 44q-42 58 -42 126h-205v15l60 15v645h-215v-645l60 -15v-15h-285v15l60 15v640l-60 15v15h665v-15l-60 -15v-640z" />
    <glyph glyph-name="uni0525" unicode="&#x525;" horiz-adv-x="670" 
d="M660 25v-190h-30q-20 13 -43 41q-42 52 -42 124h-195v15l60 15v445h-150v-445l60 -15v-15h-280v15l60 15v440l-60 15v15h590v-15l-60 -15v-440z" />
    <glyph glyph-name="Wgrave" unicode="&#x1e80;" horiz-adv-x="985" 
d="M35 675l-55 10v15h120q53 0 87 -24t48 -61l151 -385l88 258l-74 187l-55 10v15h120q53 0 86 -23.5t49 -61.5l151 -385l144 425l-75 30v15h185v-15l-80 -30l-225 -665h-30l-180 457l-155 -457h-30zM482 750l-135 150h130l40 -150h-35z" />
    <glyph glyph-name="wgrave" unicode="&#x1e81;" horiz-adv-x="835" 
d="M30 470l-50 15v15h115q53 0 84 -22t51 -63l110 -230l57 146l-67 139l-50 15v15h115q53 0 84 -22t51 -63l110 -230l105 270l-75 30v15h185v-15l-80 -30l-185 -465h-30l-148 308l-122 -308h-30zM407 550l-135 150h130l40 -150h-35z" />
    <glyph glyph-name="Wacute" unicode="&#x1e82;" horiz-adv-x="985" 
d="M35 675l-55 10v15h120q53 0 87 -24t48 -61l151 -385l88 258l-74 187l-55 10v15h120q53 0 86 -23.5t49 -61.5l151 -385l144 425l-75 30v15h185v-15l-80 -30l-225 -665h-30l-180 457l-155 -457h-30zM465 750l40 150h130l-135 -150h-35z" />
    <glyph glyph-name="wacute" unicode="&#x1e83;" horiz-adv-x="835" 
d="M30 470l-50 15v15h115q53 0 84 -22t51 -63l110 -230l57 146l-67 139l-50 15v15h115q53 0 84 -22t51 -63l110 -230l105 270l-75 30v15h185v-15l-80 -30l-185 -465h-30l-148 308l-122 -308h-30zM390 550l40 150h130l-135 -150h-35z" />
    <glyph glyph-name="Wdieresis" unicode="&#x1e84;" horiz-adv-x="985" 
d="M35 675l-55 10v15h120q53 0 87 -24t48 -61l151 -385l88 258l-74 187l-55 10v15h120q53 0 86 -23.5t49 -61.5l151 -385l144 425l-75 30v15h185v-15l-80 -30l-225 -665h-30l-180 457l-155 -457h-30zM350 780q-20 20 -20 50t20 50t50 20t50 -20t20 -50t-20 -50t-50 -20
t-50 20zM535 780q-20 20 -20 50t20 50t50 20t50 -20t20 -50t-20 -50t-50 -20t-50 20z" />
    <glyph glyph-name="wdieresis" unicode="&#x1e85;" horiz-adv-x="835" 
d="M30 470l-50 15v15h115q53 0 84 -22t51 -63l110 -230l57 146l-67 139l-50 15v15h115q53 0 84 -22t51 -63l110 -230l105 270l-75 30v15h185v-15l-80 -30l-185 -465h-30l-148 308l-122 -308h-30zM275 580q-20 20 -20 50t20 50t50 20t50 -20t20 -50t-20 -50t-50 -20t-50 20z
M460 580q-20 20 -20 50t20 50t50 20t50 -20t20 -50t-20 -50t-50 -20t-50 20z" />
    <glyph glyph-name="uni1EA0" unicode="&#x1ea0;" horiz-adv-x="680" 
d="M-20 15l80 30l275 665h30l285 -680l50 -15v-15h-120q-52 0 -85 23.5t-49 61.5l-51 120h-239l-66 -160l75 -30v-15h-185v15zM166 230h219l-110 263zM307.5 -140.5q-13.5 13.5 -13.5 32.5t13.5 33t32.5 14t33 -14t14 -33t-14 -32.5t-33 -13.5t-32.5 13.5z" />
    <glyph glyph-name="uni1EA1" unicode="&#x1ea1;" horiz-adv-x="605" 
d="M98 23q-48 38 -48 97q0 39 17 77q7 18 18 33q41 10 89 18q108 18 191 22v30q0 111 -27 153t-83 42q-21 0 -36 -5l-14 -5v-150l-13 -3q-16 -2 -27 -2q-34 0 -54.5 20.5t-20.5 54.5q0 46 46.5 78t138.5 32q78 0 134.5 -27.5t86 -76t29.5 -111.5v-270l60 -15v-15h-90
q-60 0 -93 37q-14 15 -22 38q-14 -25 -33 -45q-45 -45 -112 -45q-89 0 -137 38zM342 60q11 15 23 40v145q-46 0 -88 -5q-31 -4 -42 -5q-5 -11 -10 -30q-10 -38 -10 -75q0 -56 17 -83t43 -27q37 0 67 40zM250.5 -140.5q-13.5 13.5 -13.5 32.5t13.5 33t32.5 14t33 -14t14 -33
t-14 -32.5t-33 -13.5t-32.5 13.5z" />
    <glyph glyph-name="uni1EA2" unicode="&#x1ea2;" horiz-adv-x="680" 
d="M-20 15l80 30l275 665h30l285 -680l50 -15v-15h-120q-52 0 -85 23.5t-49 61.5l-51 120h-239l-66 -160l75 -30v-15h-185v15zM166 230h219l-110 263zM333 822q21 8 32.5 24t11.5 46q0 33 -12 47.5t-37 14.5q-5 0 -20 -3l-8 -2v-56l-4 -1h-3q-51 0 -51 26q0 55 93 55
q122 0 122 -81q0 -29 -24.5 -48.5t-68.5 -26.5l-2 -28h-27z" />
    <glyph glyph-name="uni1EA3" unicode="&#x1ea3;" horiz-adv-x="605" 
d="M98 23q-48 38 -48 97q0 39 17 77q7 18 18 33q41 10 89 18q108 18 191 22v30q0 111 -27 153t-83 42q-21 0 -36 -5l-14 -5v-150l-13 -3q-16 -2 -27 -2q-34 0 -54.5 20.5t-20.5 54.5q0 46 46.5 78t138.5 32q78 0 134.5 -27.5t86 -76t29.5 -111.5v-270l60 -15v-15h-90
q-60 0 -93 37q-14 15 -22 38q-14 -25 -33 -45q-45 -45 -112 -45q-89 0 -137 38zM342 60q11 15 23 40v145q-46 0 -88 -5q-31 -4 -42 -5q-5 -11 -10 -30q-10 -38 -10 -75q0 -56 17 -83t43 -27q37 0 67 40zM286 622q21 8 32.5 24t11.5 46q0 33 -12 47.5t-37 14.5q-5 0 -20 -3
l-8 -2v-56l-4 -1h-3q-51 0 -51 26q0 55 93 55q122 0 122 -81q0 -29 -24.5 -48.5t-68.5 -26.5l-2 -28h-27z" />
    <glyph glyph-name="uni1EA4" unicode="&#x1ea4;" horiz-adv-x="680" 
d="M-20 15l80 30l275 665h30l285 -680l50 -15v-15h-120q-52 0 -85 23.5t-49 61.5l-51 120h-239l-66 -160l75 -30v-15h-185v15zM166 230h219l-110 263zM205 750l145 165l145 -165h-35l-110 70l-110 -70h-35zM476 823l40 150h130l-135 -150h-35z" />
    <glyph glyph-name="uni1EA5" unicode="&#x1ea5;" horiz-adv-x="605" 
d="M98 23q-48 38 -48 97q0 39 17 77q7 18 18 33q41 10 89 18q108 18 191 22v30q0 111 -27 153t-83 42q-21 0 -36 -5l-14 -5v-150l-13 -3q-16 -2 -27 -2q-34 0 -54.5 20.5t-20.5 54.5q0 46 46.5 78t138.5 32q78 0 134.5 -27.5t86 -76t29.5 -111.5v-270l60 -15v-15h-90
q-60 0 -93 37q-14 15 -22 38q-14 -25 -33 -45q-45 -45 -112 -45q-89 0 -137 38zM342 60q11 15 23 40v145q-46 0 -88 -5q-31 -4 -42 -5q-5 -11 -10 -30q-10 -38 -10 -75q0 -56 17 -83t43 -27q37 0 67 40zM158 550l145 165l145 -165h-35l-110 70l-110 -70h-35zM429 623l40 150
h130l-135 -150h-35z" />
    <glyph glyph-name="uni1EA6" unicode="&#x1ea6;" horiz-adv-x="680" 
d="M-20 15l80 30l275 665h30l285 -680l50 -15v-15h-120q-52 0 -85 23.5t-49 61.5l-51 120h-239l-66 -160l75 -30v-15h-185v15zM166 230h219l-110 263zM205 750l145 165l145 -165h-35l-110 70l-110 -70h-35zM460 872l-135 150h130l40 -150h-35z" />
    <glyph glyph-name="uni1EA7" unicode="&#x1ea7;" horiz-adv-x="605" 
d="M98 23q-48 38 -48 97q0 39 17 77q7 18 18 33q41 10 89 18q108 18 191 22v30q0 111 -27 153t-83 42q-21 0 -36 -5l-14 -5v-150l-13 -3q-16 -2 -27 -2q-34 0 -54.5 20.5t-20.5 54.5q0 46 46.5 78t138.5 32q78 0 134.5 -27.5t86 -76t29.5 -111.5v-270l60 -15v-15h-90
q-60 0 -93 37q-14 15 -22 38q-14 -25 -33 -45q-45 -45 -112 -45q-89 0 -137 38zM342 60q11 15 23 40v145q-46 0 -88 -5q-31 -4 -42 -5q-5 -11 -10 -30q-10 -38 -10 -75q0 -56 17 -83t43 -27q37 0 67 40zM158 550l145 165l145 -165h-35l-110 70l-110 -70h-35zM413 672
l-135 150h130l40 -150h-35z" />
    <glyph glyph-name="uni1EA8" unicode="&#x1ea8;" horiz-adv-x="680" 
d="M-20 15l80 30l275 665h30l285 -680l50 -15v-15h-120q-52 0 -85 23.5t-49 61.5l-51 120h-239l-66 -160l75 -30v-15h-185v15zM166 230h219l-110 263zM205 750l145 165l145 -165h-35l-110 70l-110 -70h-35zM453 883q21 8 32.5 24t11.5 46q0 33 -12 47.5t-37 14.5
q-5 0 -20 -3l-8 -2v-56l-4 -1h-3q-51 0 -51 26q0 55 93 55q122 0 122 -81q0 -29 -24.5 -48.5t-68.5 -26.5l-2 -28h-27z" />
    <glyph glyph-name="uni1EA9" unicode="&#x1ea9;" horiz-adv-x="605" 
d="M98 23q-48 38 -48 97q0 39 17 77q7 18 18 33q41 10 89 18q108 18 191 22v30q0 111 -27 153t-83 42q-21 0 -36 -5l-14 -5v-150l-13 -3q-16 -2 -27 -2q-34 0 -54.5 20.5t-20.5 54.5q0 46 46.5 78t138.5 32q78 0 134.5 -27.5t86 -76t29.5 -111.5v-270l60 -15v-15h-90
q-60 0 -93 37q-14 15 -22 38q-14 -25 -33 -45q-45 -45 -112 -45q-89 0 -137 38zM342 60q11 15 23 40v145q-46 0 -88 -5q-31 -4 -42 -5q-5 -11 -10 -30q-10 -38 -10 -75q0 -56 17 -83t43 -27q37 0 67 40zM158 550l145 165l145 -165h-35l-110 70l-110 -70h-35zM406 683
q21 8 32.5 24t11.5 46q0 33 -12 47.5t-37 14.5q-5 0 -20 -3l-8 -2v-56l-4 -1h-3q-51 0 -51 26q0 55 93 55q122 0 122 -81q0 -29 -24.5 -48.5t-68.5 -26.5l-2 -28h-27z" />
    <glyph glyph-name="uni1EAA" unicode="&#x1eaa;" horiz-adv-x="680" 
d="M-20 15l80 30l275 665h30l285 -680l50 -15v-15h-120q-52 0 -85 23.5t-49 61.5l-51 120h-239l-66 -160l75 -30v-15h-185v15zM166 230h219l-110 263zM205 750l145 165l145 -165h-35l-110 70l-110 -70h-35zM359 941.5q-16 7.5 -35 21.5q-14 11 -24.5 16t-22.5 5
q-19 0 -32 -13t-13 -32h-20q0 58 23.5 86.5t66.5 28.5q22 0 38 -7.5t35 -21.5q14 -10 24.5 -15.5t22.5 -5.5q19 0 32 13t13 32h20q0 -58 -23.5 -86.5t-66.5 -28.5q-22 0 -38 7.5z" />
    <glyph glyph-name="uni1EAB" unicode="&#x1eab;" horiz-adv-x="605" 
d="M98 23q-48 38 -48 97q0 39 17 77q7 18 18 33q41 10 89 18q108 18 191 22v30q0 111 -27 153t-83 42q-21 0 -36 -5l-14 -5v-150l-13 -3q-16 -2 -27 -2q-34 0 -54.5 20.5t-20.5 54.5q0 46 46.5 78t138.5 32q78 0 134.5 -27.5t86 -76t29.5 -111.5v-270l60 -15v-15h-90
q-60 0 -93 37q-14 15 -22 38q-14 -25 -33 -45q-45 -45 -112 -45q-89 0 -137 38zM342 60q11 15 23 40v145q-46 0 -88 -5q-31 -4 -42 -5q-5 -11 -10 -30q-10 -38 -10 -75q0 -56 17 -83t43 -27q37 0 67 40zM158 550l145 165l145 -165h-35l-110 70l-110 -70h-35zM312 741.5
q-16 7.5 -35 21.5q-14 11 -24.5 16t-22.5 5q-19 0 -32 -13t-13 -32h-20q0 58 23.5 86.5t66.5 28.5q22 0 38 -7.5t35 -21.5q14 -10 24.5 -15.5t22.5 -5.5q19 0 32 13t13 32h20q0 -58 -23.5 -86.5t-66.5 -28.5q-22 0 -38 7.5z" />
    <glyph glyph-name="uni1EAC" unicode="&#x1eac;" horiz-adv-x="680" 
d="M-20 15l80 30l275 665h30l285 -680l50 -15v-15h-120q-52 0 -85 23.5t-49 61.5l-51 120h-239l-66 -160l75 -30v-15h-185v15zM166 230h219l-110 263zM307.5 -140.5q-13.5 13.5 -13.5 32.5t13.5 33t32.5 14t33 -14t14 -33t-14 -32.5t-33 -13.5t-32.5 13.5zM205 750l145 165
l145 -165h-35l-110 70l-110 -70h-35z" />
    <glyph glyph-name="uni1EAD" unicode="&#x1ead;" horiz-adv-x="605" 
d="M98 23q-48 38 -48 97q0 39 17 77q7 18 18 33q41 10 89 18q108 18 191 22v30q0 111 -27 153t-83 42q-21 0 -36 -5l-14 -5v-150l-13 -3q-16 -2 -27 -2q-34 0 -54.5 20.5t-20.5 54.5q0 46 46.5 78t138.5 32q78 0 134.5 -27.5t86 -76t29.5 -111.5v-270l60 -15v-15h-90
q-60 0 -93 37q-14 15 -22 38q-14 -25 -33 -45q-45 -45 -112 -45q-89 0 -137 38zM342 60q11 15 23 40v145q-46 0 -88 -5q-31 -4 -42 -5q-5 -11 -10 -30q-10 -38 -10 -75q0 -56 17 -83t43 -27q37 0 67 40zM250.5 -140.5q-13.5 13.5 -13.5 32.5t13.5 33t32.5 14t33 -14t14 -33
t-14 -32.5t-33 -13.5t-32.5 13.5zM158 550l145 165l145 -165h-35l-110 70l-110 -70h-35z" />
    <glyph glyph-name="uni1EAE" unicode="&#x1eae;" horiz-adv-x="680" 
d="M-20 15l80 30l275 665h30l285 -680l50 -15v-15h-120q-52 0 -85 23.5t-49 61.5l-51 120h-239l-66 -160l75 -30v-15h-185v15zM166 230h219l-110 263zM236.5 774q-36.5 24 -36.5 61q0 26 17 43t43 17q2 0 23 -3l12 -2v-110q1 0 14.5 -5t40.5 -5t40.5 5t14.5 5v110l12 2
q21 3 23 3q26 0 43 -17t17 -43q0 -37 -36.5 -61t-113.5 -24t-113.5 24zM328 900l40 150h130l-135 -150h-35z" />
    <glyph glyph-name="uni1EAF" unicode="&#x1eaf;" horiz-adv-x="605" 
d="M98 23q-48 38 -48 97q0 39 17 77q7 18 18 33q41 10 89 18q108 18 191 22v30q0 111 -27 153t-83 42q-21 0 -36 -5l-14 -5v-150l-13 -3q-16 -2 -27 -2q-34 0 -54.5 20.5t-20.5 54.5q0 46 46.5 78t138.5 32q78 0 134.5 -27.5t86 -76t29.5 -111.5v-270l60 -15v-15h-90
q-60 0 -93 37q-14 15 -22 38q-14 -25 -33 -45q-45 -45 -112 -45q-89 0 -137 38zM342 60q11 15 23 40v145q-46 0 -88 -5q-31 -4 -42 -5q-5 -11 -10 -30q-10 -38 -10 -75q0 -56 17 -83t43 -27q37 0 67 40zM189.5 574q-36.5 24 -36.5 61q0 26 17 43t43 17q2 0 23 -3l12 -2v-110
q1 0 14.5 -5t40.5 -5t40.5 5t14.5 5v110l12 2q21 3 23 3q26 0 43 -17t17 -43q0 -37 -36.5 -61t-113.5 -24t-113.5 24zM281 700l40 150h130l-135 -150h-35z" />
    <glyph glyph-name="uni1EB0" unicode="&#x1eb0;" horiz-adv-x="680" 
d="M-20 15l80 30l275 665h30l285 -680l50 -15v-15h-120q-52 0 -85 23.5t-49 61.5l-51 120h-239l-66 -160l75 -30v-15h-185v15zM166 230h219l-110 263zM236.5 774q-36.5 24 -36.5 61q0 26 17 43t43 17q2 0 23 -3l12 -2v-110q1 0 14.5 -5t40.5 -5t40.5 5t14.5 5v110l12 2
q21 3 23 3q26 0 43 -17t17 -43q0 -37 -36.5 -61t-113.5 -24t-113.5 24zM331 903l-135 150h130l40 -150h-35z" />
    <glyph glyph-name="uni1EB1" unicode="&#x1eb1;" horiz-adv-x="605" 
d="M98 23q-48 38 -48 97q0 39 17 77q7 18 18 33q41 10 89 18q108 18 191 22v30q0 111 -27 153t-83 42q-21 0 -36 -5l-14 -5v-150l-13 -3q-16 -2 -27 -2q-34 0 -54.5 20.5t-20.5 54.5q0 46 46.5 78t138.5 32q78 0 134.5 -27.5t86 -76t29.5 -111.5v-270l60 -15v-15h-90
q-60 0 -93 37q-14 15 -22 38q-14 -25 -33 -45q-45 -45 -112 -45q-89 0 -137 38zM342 60q11 15 23 40v145q-46 0 -88 -5q-31 -4 -42 -5q-5 -11 -10 -30q-10 -38 -10 -75q0 -56 17 -83t43 -27q37 0 67 40zM189.5 574q-36.5 24 -36.5 61q0 26 17 43t43 17q2 0 23 -3l12 -2v-110
q1 0 14.5 -5t40.5 -5t40.5 5t14.5 5v110l12 2q21 3 23 3q26 0 43 -17t17 -43q0 -37 -36.5 -61t-113.5 -24t-113.5 24zM284 703l-135 150h130l40 -150h-35z" />
    <glyph glyph-name="uni1EB2" unicode="&#x1eb2;" horiz-adv-x="680" 
d="M-20 15l80 30l275 665h30l285 -680l50 -15v-15h-120q-52 0 -85 23.5t-49 61.5l-51 120h-239l-66 -160l75 -30v-15h-185v15zM166 230h219l-110 263zM236.5 774q-36.5 24 -36.5 61q0 26 17 43t43 17q2 0 23 -3l12 -2v-110q1 0 14.5 -5t40.5 -5t40.5 5t14.5 5v110l12 2
q21 3 23 3q26 0 43 -17t17 -43q0 -37 -36.5 -61t-113.5 -24t-113.5 24zM333 928q21 8 32.5 24t11.5 46q0 33 -12 47.5t-37 14.5q-5 0 -20 -3l-8 -2v-56l-4 -1h-3q-51 0 -51 26q0 55 93 55q122 0 122 -81q0 -29 -24.5 -48.5t-68.5 -26.5l-2 -28h-27z" />
    </font>
</defs>
</svg>
